<?xml version="1.0" encoding="utf-8"?>
<!-- Generator: Adobe Illustrator 27.5.0, SVG Export Plug-In . SVG Version: 6.00 Build 0)  -->
<svg version="1.1" xmlns="http://www.w3.org/2000/svg" xmlns:xlink="http://www.w3.org/1999/xlink" x="0px" y="0px"
	 viewBox="0 0 500 500" style="enable-background:new 0 0 500 500;" xml:space="preserve">
<g id="Background_Complete">
	<g>
		<rect y="382.398" style="fill:#EBEBEB;" width="500" height="0.25"/>
		<rect x="416.779" y="398.494" style="fill:#EBEBEB;" width="33.122" height="0.25"/>
		<rect x="322.527" y="401.208" style="fill:#EBEBEB;" width="8.693" height="0.25"/>
		<rect x="396.586" y="389.208" style="fill:#EBEBEB;" width="19.192" height="0.25"/>
		<rect x="52.459" y="390.888" style="fill:#EBEBEB;" width="43.193" height="0.25"/>
		<rect x="104.556" y="390.888" style="fill:#EBEBEB;" width="6.333" height="0.25"/>
		<rect x="131.471" y="395.111" style="fill:#EBEBEB;" width="93.676" height="0.25"/>
		<path style="fill:#EBEBEB;" d="M237.014,337.8H43.915c-3.147,0-5.708-2.561-5.708-5.708V60.66c0-3.147,2.561-5.708,5.708-5.708
			h193.099c3.146,0,5.707,2.561,5.707,5.708v271.432C242.721,335.239,240.16,337.8,237.014,337.8z M43.915,55.203
			c-3.01,0-5.458,2.448-5.458,5.458v271.432c0,3.01,2.448,5.458,5.458,5.458h193.099c3.009,0,5.457-2.448,5.457-5.458V60.66
			c0-3.009-2.448-5.458-5.457-5.458H43.915z"/>
		<path style="fill:#EBEBEB;" d="M453.31,337.8H260.212c-3.147,0-5.707-2.561-5.707-5.708V60.66c0-3.147,2.561-5.708,5.707-5.708
			H453.31c3.148,0,5.708,2.561,5.708,5.708v271.432C459.019,335.239,456.458,337.8,453.31,337.8z M260.212,55.203
			c-3.009,0-5.457,2.448-5.457,5.458v271.432c0,3.01,2.448,5.458,5.457,5.458H453.31c3.01,0,5.458-2.448,5.458-5.458V60.66
			c0-3.009-2.448-5.458-5.458-5.458H260.212z"/>
	</g>
	<g>
		<g>
			<g>
				<polygon style="fill:#E6E6E6;" points="269.478,382.398 440.009,382.398 452.11,83.183 281.579,83.183 				"/>
				<polygon style="fill:#F0F0F0;" points="265.312,382.398 435.843,382.398 447.944,83.183 277.413,83.183 				"/>
				<polygon style="fill:#FAFAFA;" points="427.674,373.892 439.086,91.689 285.582,91.689 274.169,373.892 				"/>
			</g>
		</g>
		<g>
			<g>
				<g>
					<g>
						<path style="fill:#EBEBEB;" d="M103.386,141.261l8.923,21.993c-0.257,63.61,2.618,67.276,2.644,78.219H92.427
							C91.618,188.229,99.51,200.199,103.386,141.261z"/>
					</g>
					<path style="fill:#EBEBEB;" d="M115.96,206.22c-18.131-49.919-59.872-34.458-58.003-16.265
						C59.826,208.148,126.388,234.93,115.96,206.22z"/>
					<path style="fill:#EBEBEB;" d="M109.107,235.007c-9.892-32.171-36.196-26.919-36.197-12.135
						C72.909,237.656,114.796,253.51,109.107,235.007z"/>
					<path style="fill:#EBEBEB;" d="M108.4,176.938c-15.528-43.001-54.206-37.085-51.091-18.942
						C60.424,176.139,117.331,201.67,108.4,176.938z"/>
					<path style="fill:#EBEBEB;" d="M108.508,157.65c1.44-29.299-27.575-41.357-25.564-23.848
						C84.954,151.311,107.68,174.501,108.508,157.65z"/>
					<path style="fill:#EBEBEB;" d="M106.341,187.647c6.127-36.102,43.309-49.835,39.155-29.4
						C141.342,178.682,102.817,208.41,106.341,187.647z"/>
					<path style="fill:#EBEBEB;" d="M103.211,167.238c-7.221-37.857,26.183-54.68,27.144-36.428
						C131.316,149.061,107.363,189.011,103.211,167.238z"/>
					<path style="fill:#EBEBEB;" d="M100.312,210.001c14.758-36.483,46.362-27.43,43.173-10.827
						C140.295,215.776,91.824,230.983,100.312,210.001z"/>
					<path style="fill:#EBEBEB;" d="M107.595,235.477c-0.329-23.537,21.035-29.62,21.289-15.986
						C129.137,233.126,107.785,249.014,107.595,235.477z"/>
				</g>
				<g>
					<path style="fill:#E0E0E0;" d="M101.071,263.965L101.071,263.965c-11.744,0-21.653-8.177-24.064-19.23
						c-0.638-2.924-1.364-5.828-2.508-8.595l-0.184-0.446h53.513l-0.184,0.446c-1.145,2.767-1.871,5.671-2.508,8.595
						C122.724,255.788,112.815,263.965,101.071,263.965z"/>
				</g>
			</g>
			<g>
				<g>
					
						<rect x="49.405" y="263.965" transform="matrix(-1 -1.224647e-16 1.224647e-16 -1 122.5631 646.3635)" style="fill:#E6E6E6;" width="23.753" height="118.433"/>
					<polygon style="fill:#F0F0F0;" points="56.526,382.398 49.405,382.398 49.405,368.126 63.992,368.126 					"/>
					
						<rect x="212.192" y="263.965" transform="matrix(-1 -1.224647e-16 1.224647e-16 -1 448.1376 646.3635)" style="fill:#E6E6E6;" width="23.754" height="118.433"/>
					
						<rect x="49.405" y="263.965" transform="matrix(-1 -1.224647e-16 1.224647e-16 -1 267.8118 641.6147)" style="fill:#F0F0F0;" width="169.002" height="113.685"/>
					<polygon style="fill:#F0F0F0;" points="211.286,382.398 218.407,382.398 218.407,368.126 203.82,368.126 					"/>
					
						<rect x="54.929" y="271.966" transform="matrix(-1 -1.224647e-16 1.224647e-16 -1 267.8117 589.422)" style="fill:#E6E6E6;" width="157.953" height="45.49"/>
					<path style="fill:#F0F0F0;" d="M97.594,286.103h67.841c6.948,0,13.59-5.612,18.368-15.52l0,0H79.226l0,0
						C84.004,280.491,90.646,286.103,97.594,286.103z"/>
					
						<rect x="54.929" y="324.808" transform="matrix(-1 -1.224647e-16 1.224647e-16 -1 267.8117 695.1055)" style="fill:#E6E6E6;" width="157.953" height="45.49"/>
					<path style="fill:#F0F0F0;" d="M97.594,338.944h67.841c6.948,0,13.59-5.612,18.368-15.52l0,0H79.226l0,0
						C84.004,333.332,90.646,338.944,97.594,338.944z"/>
				</g>
			</g>
		</g>
	</g>
</g>
<g id="Background_Simple" style="display:none;">
	<g style="display:inline;">
		<path style="fill:#407BFF;" d="M249.774,293.886c-2.042,0.155-4.073,0.332-6.09,0.526c-49.592,4.779-106.953,2.173-152.976-31.256
			c-45.119-32.772-44.023-84.08-22.655-127.38c36.58-74.126,193.885-121.464,244.704-29.612
			c16.428,29.693-4.331,72.642,15.916,107.808c23.05,40.035,114.428,34.58,102.238,111.195
			c-6.759,42.482-33.452,34.908-63.077,15.156c-17-11.334-33.427-24.549-50.879-34.706
			C295.759,293.28,272.093,292.198,249.774,293.886z"/>
		<path style="opacity:0.9;fill:#FFFFFF;" d="M249.774,293.886c-2.042,0.155-4.073,0.332-6.09,0.526
			c-49.592,4.779-106.953,2.173-152.976-31.256c-45.119-32.772-44.023-84.08-22.655-127.38
			c36.58-74.126,193.885-121.464,244.704-29.612c16.428,29.693-4.331,72.642,15.916,107.808
			c23.05,40.035,114.428,34.58,102.238,111.195c-6.759,42.482-33.452,34.908-63.077,15.156c-17-11.334-33.427-24.549-50.879-34.706
			C295.759,293.28,272.093,292.198,249.774,293.886z"/>
	</g>
</g>
<g id="Shadow_1_">
	<ellipse id="_x3C_Path_x3E__356_" style="fill:#F5F5F5;" cx="250" cy="416.238" rx="193.889" ry="11.323"/>
</g>
<g id="Task_panel">
	<g>
		<g>
			<path style="fill:#407BFF;" d="M404.869,315.604H146.111c-5.701,0-9.974-4.665-9.495-10.366l15.54-185.046
				c0.479-5.701,5.535-10.366,11.236-10.366H422.15c5.701,0,9.974,4.665,9.495,10.366l-15.54,185.046
				C415.627,310.939,410.57,315.604,404.869,315.604z"/>
			<path style="opacity:0.7;fill:#FFFFFF;" d="M404.869,315.604H146.111c-5.701,0-9.974-4.665-9.495-10.366l15.54-185.046
				c0.479-5.701,5.535-10.366,11.236-10.366H422.15c5.701,0,9.974,4.665,9.495,10.366l-15.54,185.046
				C415.627,310.939,410.57,315.604,404.869,315.604z"/>
		</g>
		<path style="fill:#FFFFFF;" d="M146.448,311.603c-3.51,0-6.126-2.855-5.831-6.365l15.54-185.046c0.295-3.51,3.39-6.366,6.9-6.366
			h258.758c3.51,0,6.126,2.855,5.831,6.366l-15.54,185.046c-0.295,3.51-3.39,6.365-6.9,6.365H146.448z"/>
		<g>
			<path style="fill:#407BFF;" d="M170.611,126.766h5.379l-0.119,1.414h-1.805l-0.362,4.313h-1.77l0.362-4.313h-1.805
				L170.611,126.766z"/>
			<path style="fill:#407BFF;" d="M179.366,131.548h-2.009l-0.359,0.945h-1.807l2.633-5.727h1.93l1.671,5.727h-1.853
				L179.366,131.548z M179.103,130.309l-0.459-2.059l-0.798,2.059H179.103z"/>
			<path style="fill:#407BFF;" d="M181.84,130.598l1.692-0.105c0.014,0.273,0.07,0.482,0.17,0.625
				c0.163,0.232,0.414,0.348,0.752,0.348c0.252,0,0.452-0.059,0.599-0.178c0.147-0.119,0.227-0.256,0.24-0.412
				c0.013-0.148-0.041-0.281-0.162-0.398c-0.12-0.117-0.413-0.228-0.878-0.332c-0.761-0.174-1.295-0.406-1.602-0.695
				c-0.309-0.289-0.445-0.658-0.407-1.105c0.025-0.294,0.133-0.572,0.326-0.834c0.192-0.262,0.466-0.467,0.821-0.617
				c0.355-0.15,0.831-0.225,1.427-0.225c0.732,0,1.278,0.136,1.64,0.408c0.361,0.272,0.553,0.705,0.576,1.299l-1.676,0.098
				c-0.023-0.258-0.1-0.445-0.232-0.563c-0.132-0.117-0.323-0.176-0.573-0.176c-0.206,0-0.365,0.043-0.476,0.131
				c-0.111,0.087-0.172,0.193-0.183,0.318c-0.008,0.091,0.028,0.173,0.108,0.246c0.077,0.076,0.269,0.146,0.576,0.211
				c0.76,0.167,1.299,0.336,1.62,0.506c0.32,0.17,0.546,0.382,0.677,0.635c0.131,0.252,0.184,0.535,0.157,0.848
				c-0.031,0.367-0.161,0.706-0.39,1.016c-0.229,0.31-0.533,0.545-0.911,0.705c-0.378,0.16-0.844,0.24-1.399,0.24
				c-0.974,0-1.633-0.188-1.976-0.563C182.013,131.653,181.84,131.176,181.84,130.598z"/>
			<path style="fill:#407BFF;" d="M188.255,126.766h1.77l-0.182,2.164l2.035-2.164h2.354l-2.271,2.162l1.884,3.565h-2.179
				l-1.01-2.355l-0.995,0.958l-0.117,1.398h-1.77L188.255,126.766z"/>
			<path style="fill:#407BFF;" d="M197.572,126.766h2.941c0.641,0,1.108,0.152,1.401,0.457c0.293,0.305,0.417,0.738,0.369,1.301
				c-0.049,0.578-0.26,1.03-0.635,1.355c-0.375,0.326-0.919,0.488-1.633,0.488h-0.969l-0.178,2.125h-1.777L197.572,126.766z
				 M199.144,129.208h0.434c0.341,0,0.585-0.059,0.734-0.178c0.148-0.119,0.23-0.27,0.245-0.455c0.015-0.18-0.032-0.332-0.141-0.457
				c-0.109-0.125-0.33-0.188-0.66-0.188h-0.504L199.144,129.208z"/>
			<path style="fill:#407BFF;" d="M205.796,131.548h-2.009l-0.359,0.945h-1.807l2.633-5.727h1.93l1.671,5.727h-1.853
				L205.796,131.548z M205.533,130.309l-0.459-2.059l-0.798,2.059H205.533z"/>
			<path style="fill:#407BFF;" d="M208.911,126.766h1.652l1.89,3.168l0.266-3.168h1.668l-0.481,5.727h-1.668l-1.88-3.145
				l-0.264,3.145h-1.664L208.911,126.766z"/>
			<path style="fill:#407BFF;" d="M215.56,126.766h4.742l-0.103,1.223h-2.969l-0.076,0.91h2.754l-0.098,1.168h-2.754l-0.095,1.129
				h3.055l-0.109,1.297h-4.828L215.56,126.766z"/>
			<path style="fill:#407BFF;" d="M221.341,126.766h1.77l-0.363,4.316h2.762l-0.118,1.41h-4.531L221.341,126.766z"/>
		</g>
		<path style="opacity:0.1;fill:#407BFF;" d="M252.96,135.048h-15c-1.696,0-2.967-1.387-2.824-3.083l0.448-5.333
			c0.142-1.696,1.646-3.083,3.342-3.083h15c1.696,0,2.967,1.387,2.824,3.083l-0.448,5.333
			C256.16,133.661,254.656,135.048,252.96,135.048z"/>
		<g>
			
				<ellipse transform="matrix(0.7218 -0.6921 0.6921 0.7218 23.7595 317.703)" style="opacity:0.1;fill:#407BFF;" cx="407.057" cy="129.298" rx="5.214" ry="4.794"/>
			
				<ellipse transform="matrix(0.7218 -0.6921 0.6921 0.7218 18.1952 303.8607)" style="opacity:0.1;fill:#407BFF;" cx="387.057" cy="129.298" rx="5.214" ry="4.794"/>
			
				<ellipse transform="matrix(0.7218 -0.6921 0.6921 0.7218 12.631 290.0184)" style="opacity:0.1;fill:#407BFF;" cx="367.057" cy="129.298" rx="5.214" ry="4.794"/>
		</g>
		<g>
			<g>
				<path style="opacity:0.1;fill:#407BFF;" d="M238.47,150.159h-63.144c-3.775,0-7.103,2.854-7.396,6.342l-13.025,155.102h76.871
					l13.025-155.102C245.094,153.013,242.245,150.159,238.47,150.159z"/>
				<path style="fill:#FFFFFF;" d="M236.508,153.993h-59.864c-2.755,0-5.199,2.254-5.43,5.009l-3.015,35.902
					c-0.231,2.755,1.833,5.009,4.589,5.009h59.864c2.755,0,5.199-2.254,5.43-5.009l3.015-35.902
					C241.328,156.247,239.263,153.993,236.508,153.993z"/>
				<path style="fill:#FFFFFF;" d="M232.197,205.331h-59.864c-2.755,0-5.199,2.254-5.43,5.009l-3.015,35.902
					c-0.231,2.755,1.834,5.009,4.589,5.009h59.864c2.755,0,5.199-2.254,5.43-5.009l3.015-35.902
					C237.017,207.585,234.952,205.331,232.197,205.331z"/>
				<path style="fill:#FFFFFF;" d="M227.885,256.669h-59.864c-2.755,0-5.199,2.254-5.43,5.009l-3.015,35.902
					c-0.231,2.755,1.833,5.009,4.589,5.009h59.864c2.755,0,5.199-2.254,5.43-5.009l3.015-35.902
					C232.705,258.924,230.64,256.669,227.885,256.669z"/>
			</g>
			<g>
				<path style="opacity:0.5;fill:#407BFF;" d="M187.816,174.159h-10.583c-1.26,0-2.205-1.031-2.099-2.292l0.889-10.583
					c0.106-1.26,1.224-2.292,2.484-2.292h10.583c1.26,0,2.205,1.031,2.099,2.292l-0.889,10.583
					C190.195,173.128,189.077,174.159,187.816,174.159z"/>
				<path style="opacity:0.5;fill:#407BFF;" d="M233.047,182.409h-57.716c-0.596,0-1.042-0.487-0.992-1.083l0,0
					c0.05-0.596,0.578-1.083,1.174-1.083h57.716c0.596,0,1.042,0.488,0.992,1.083l0,0
					C234.172,181.922,233.643,182.409,233.047,182.409z"/>
				<g>
					<path style="opacity:0.2;fill:#263238;" d="M225.411,165.437h-26.556c-0.947,0-1.657-0.775-1.578-1.722l0,0
						c0.08-0.947,0.92-1.722,1.867-1.722h26.556c0.947,0,1.657,0.775,1.578,1.722l0,0
						C227.199,164.662,226.359,165.437,225.411,165.437z"/>
					<path style="opacity:0.2;fill:#263238;" d="M214.431,171.159h-16.055c-0.947,0-1.657-0.775-1.578-1.722l0,0
						c0.079-0.947,0.92-1.722,1.867-1.722h16.056c0.947,0,1.657,0.775,1.578,1.722l0,0
						C216.218,170.384,215.378,171.159,214.431,171.159z"/>
				</g>
			</g>
			<g>
				<path style="opacity:0.5;fill:#407BFF;" d="M183.505,225.498h-10.583c-1.26,0-2.205-1.031-2.099-2.292l0.889-10.583
					c0.106-1.26,1.224-2.292,2.484-2.292h10.583c1.26,0,2.205,1.031,2.099,2.292l-0.889,10.583
					C185.883,224.466,184.765,225.498,183.505,225.498z"/>
				<path style="opacity:0.5;fill:#407BFF;" d="M228.736,233.748H171.02c-0.596,0-1.042-0.488-0.992-1.083l0,0
					c0.05-0.596,0.578-1.083,1.174-1.083h57.716c0.596,0,1.042,0.488,0.992,1.083l0,0
					C229.861,233.26,229.332,233.748,228.736,233.748z"/>
				<g>
					<path style="opacity:0.2;fill:#263238;" d="M221.1,216.775h-26.555c-0.947,0-1.657-0.775-1.578-1.722l0,0
						c0.079-0.947,0.92-1.722,1.867-1.722h26.556c0.947,0,1.657,0.775,1.578,1.722l0,0C222.887,216,222.047,216.775,221.1,216.775z"
						/>
					<path style="opacity:0.2;fill:#263238;" d="M210.12,222.498h-16.056c-0.947,0-1.657-0.775-1.577-1.722l0,0
						c0.079-0.947,0.92-1.722,1.867-1.722h16.056c0.947,0,1.657,0.775,1.578,1.722l0,0
						C211.907,221.723,211.067,222.498,210.12,222.498z"/>
				</g>
				<path style="fill:#407BFF;" d="M205.959,238.748h20.885c1.405,0,2.459,1.15,2.341,2.555l-0.313,3.727
					c-0.118,1.405-1.365,2.555-2.77,2.555h-20.885c-1.405,0-2.459-1.15-2.341-2.555l0.313-3.727
					C203.307,239.898,204.554,238.748,205.959,238.748z"/>
				<g>
					<g>
						<path style="fill:#FFFFFF;" d="M207.591,244.331h-1.22l-0.219,0.574h-1.097l1.607-3.476h1.172l1.006,3.476h-1.125
							L207.591,244.331z M207.433,243.579l-0.276-1.25l-0.488,1.25H207.433z"/>
						<path style="fill:#FFFFFF;" d="M211.531,243.482l0.917,0.285c-0.086,0.264-0.205,0.485-0.356,0.662
							c-0.151,0.177-0.332,0.311-0.541,0.401c-0.209,0.09-0.47,0.135-0.781,0.135c-0.378,0-0.682-0.055-0.912-0.165
							c-0.23-0.11-0.42-0.303-0.57-0.579c-0.15-0.277-0.206-0.63-0.169-1.062c0.05-0.575,0.241-1.017,0.573-1.326
							c0.333-0.309,0.779-0.463,1.338-0.463c0.438,0,0.775,0.089,1.01,0.266c0.235,0.177,0.398,0.449,0.488,0.816l-0.967,0.211
							c-0.024-0.106-0.052-0.184-0.084-0.232c-0.053-0.082-0.121-0.146-0.204-0.19c-0.083-0.044-0.178-0.066-0.286-0.066
							c-0.243,0-0.439,0.098-0.585,0.294c-0.111,0.145-0.179,0.373-0.206,0.684c-0.033,0.385,0.002,0.649,0.107,0.792
							c0.105,0.143,0.263,0.214,0.475,0.214c0.205,0,0.366-0.058,0.481-0.173C211.374,243.869,211.465,243.701,211.531,243.482z"/>
						<path style="fill:#FFFFFF;" d="M215.309,243.482l0.917,0.285c-0.086,0.264-0.205,0.485-0.356,0.662
							c-0.151,0.177-0.332,0.311-0.541,0.401c-0.209,0.09-0.47,0.135-0.781,0.135c-0.378,0-0.682-0.055-0.912-0.165
							c-0.23-0.11-0.42-0.303-0.57-0.579c-0.15-0.277-0.206-0.63-0.169-1.062c0.05-0.575,0.241-1.017,0.573-1.326
							c0.333-0.309,0.779-0.463,1.338-0.463c0.438,0,0.775,0.089,1.01,0.266c0.235,0.177,0.398,0.449,0.488,0.816l-0.967,0.211
							c-0.024-0.106-0.052-0.184-0.084-0.232c-0.053-0.082-0.121-0.146-0.204-0.19c-0.083-0.044-0.178-0.066-0.286-0.066
							c-0.243,0-0.438,0.098-0.585,0.294c-0.111,0.145-0.179,0.373-0.206,0.684c-0.033,0.385,0.002,0.649,0.107,0.792
							c0.105,0.143,0.263,0.214,0.475,0.214c0.205,0,0.366-0.058,0.481-0.173C215.152,243.869,215.242,243.701,215.309,243.482z"/>
						<path style="fill:#FFFFFF;" d="M216.947,241.428h2.879l-0.064,0.742h-1.802l-0.048,0.553h1.672l-0.061,0.709h-1.672
							l-0.059,0.685h1.854l-0.068,0.787h-2.931L216.947,241.428z"/>
						<path style="fill:#FFFFFF;" d="M220.452,241.428h1.786c0.389,0,0.672,0.092,0.85,0.277s0.252,0.448,0.222,0.79
							c-0.03,0.351-0.16,0.625-0.388,0.823c-0.228,0.198-0.559,0.296-0.992,0.296h-0.588l-0.112,1.29h-1.079L220.452,241.428z
							 M221.403,242.91h0.263c0.207,0,0.356-0.036,0.446-0.108c0.09-0.072,0.14-0.164,0.15-0.276
							c0.009-0.109-0.019-0.202-0.085-0.277c-0.066-0.076-0.2-0.114-0.4-0.114h-0.306L221.403,242.91z"/>
						<path style="fill:#FFFFFF;" d="M223.72,241.428h3.265l-0.074,0.858h-1.096l-0.226,2.618h-1.074l0.226-2.618h-1.096
							L223.72,241.428z"/>
					</g>
				</g>
			</g>
			<g>
				<path style="opacity:0.5;fill:#407BFF;" d="M179.194,276.836H168.61c-1.26,0-2.205-1.031-2.099-2.292l0.889-10.583
					c0.106-1.26,1.224-2.292,2.484-2.292h10.583c1.26,0,2.205,1.031,2.099,2.292l-0.889,10.583
					C181.572,275.805,180.454,276.836,179.194,276.836z"/>
				<path style="opacity:0.25;fill:#407BFF;" d="M224.425,285.086h-57.716c-0.596,0-1.042-0.487-0.992-1.083l0,0
					c0.05-0.596,0.578-1.083,1.174-1.083h57.716c0.596,0,1.042,0.487,0.992,1.083l0,0
					C225.549,284.599,225.021,285.086,224.425,285.086z"/>
				<path style="opacity:0.25;fill:#407BFF;" d="M213.253,285.086h-46.543c-0.596,0-1.042-0.487-0.992-1.083l0,0
					c0.05-0.596,0.578-1.083,1.174-1.083h46.543c0.596,0,1.042,0.487,0.992,1.083l0,0
					C214.377,284.599,213.848,285.086,213.253,285.086z"/>
				<g>
					<path style="opacity:0.2;fill:#263238;" d="M216.789,268.114h-26.556c-0.947,0-1.657-0.775-1.577-1.722l0,0
						c0.079-0.947,0.92-1.722,1.867-1.722h26.556c0.947,0,1.657,0.775,1.578,1.722l0,0
						C218.576,267.339,217.736,268.114,216.789,268.114z"/>
					<path style="opacity:0.2;fill:#263238;" d="M205.808,273.836h-16.056c-0.947,0-1.657-0.775-1.578-1.722l0,0
						c0.08-0.947,0.92-1.722,1.867-1.722h16.055c0.947,0,1.657,0.775,1.578,1.722l0,0
						C207.596,273.061,206.756,273.836,205.808,273.836z"/>
				</g>
			</g>
		</g>
		<g>
			<g>
				<path style="opacity:0.1;fill:#407BFF;" d="M320.956,150.159h-63.144c-3.775,0-7.103,2.854-7.396,6.342l-13.025,155.102h76.871
					l13.025-155.102C327.58,153.013,324.731,150.159,320.956,150.159z"/>
				<path style="fill:#FFFFFF;" d="M318.994,153.993H259.13c-2.755,0-5.199,2.254-5.43,5.009l-3.015,35.902
					c-0.231,2.755,1.833,5.009,4.589,5.009h59.864c2.755,0,5.199-2.254,5.43-5.009l3.015-35.902
					C323.814,156.247,321.749,153.993,318.994,153.993z"/>
				<path style="fill:#FFFFFF;" d="M314.683,205.331h-59.864c-2.755,0-5.199,2.254-5.43,5.009l-3.015,35.902
					c-0.231,2.755,1.834,5.009,4.589,5.009h59.864c2.755,0,5.199-2.254,5.43-5.009l3.015-35.902
					C319.503,207.585,317.438,205.331,314.683,205.331z"/>
				<path style="fill:#FFFFFF;" d="M310.371,256.669h-59.864c-2.755,0-5.199,2.254-5.43,5.009l-3.015,35.902
					c-0.231,2.755,1.833,5.009,4.589,5.009h59.864c2.755,0,5.199-2.254,5.43-5.009l3.015-35.902
					C315.191,258.924,313.127,256.669,310.371,256.669z"/>
			</g>
			<g>
				<path style="opacity:0.5;fill:#407BFF;" d="M270.302,174.159h-10.583c-1.26,0-2.205-1.031-2.099-2.292l0.889-10.583
					c0.106-1.26,1.224-2.292,2.484-2.292h10.583c1.26,0,2.205,1.031,2.099,2.292l-0.889,10.583
					C272.681,173.128,271.563,174.159,270.302,174.159z"/>
				<path style="opacity:0.25;fill:#407BFF;" d="M315.534,182.409h-57.716c-0.596,0-1.042-0.487-0.992-1.083l0,0
					c0.05-0.596,0.578-1.083,1.174-1.083h57.716c0.596,0,1.042,0.488,0.992,1.083l0,0
					C316.658,181.922,316.129,182.409,315.534,182.409z"/>
				<path style="opacity:0.25;fill:#407BFF;" d="M282.583,182.409h-24.765c-0.596,0-1.042-0.487-0.992-1.083l0,0
					c0.05-0.596,0.578-1.083,1.174-1.083h24.766c0.596,0,1.042,0.488,0.992,1.083l0,0
					C283.708,181.922,283.179,182.409,282.583,182.409z"/>
				<g>
					<path style="opacity:0.2;fill:#263238;" d="M307.897,165.437h-26.555c-0.947,0-1.657-0.775-1.578-1.722l0,0
						c0.079-0.947,0.92-1.722,1.867-1.722h26.556c0.947,0,1.657,0.775,1.578,1.722l0,0
						C309.685,164.662,308.845,165.437,307.897,165.437z"/>
					<path style="opacity:0.2;fill:#263238;" d="M296.917,171.159h-16.056c-0.947,0-1.657-0.775-1.577-1.722l0,0
						c0.079-0.947,0.92-1.722,1.867-1.722h16.056c0.947,0,1.657,0.775,1.578,1.722l0,0
						C298.704,170.384,297.864,171.159,296.917,171.159z"/>
				</g>
			</g>
			<g>
				<path style="opacity:0.5;fill:#407BFF;" d="M265.991,225.498h-10.583c-1.26,0-2.205-1.031-2.099-2.292l0.889-10.583
					c0.106-1.26,1.224-2.292,2.484-2.292h10.583c1.26,0,2.205,1.031,2.099,2.292l-0.889,10.583
					C268.369,224.466,267.251,225.498,265.991,225.498z"/>
				<path style="opacity:0.25;fill:#407BFF;" d="M311.222,233.748h-57.716c-0.596,0-1.042-0.488-0.992-1.083l0,0
					c0.05-0.596,0.579-1.083,1.174-1.083h57.716c0.596,0,1.042,0.488,0.992,1.083l0,0
					C312.347,233.26,311.818,233.748,311.222,233.748z"/>
				<path style="opacity:0.25;fill:#407BFF;" d="M256.591,233.748h-3.085c-0.596,0-1.042-0.488-0.992-1.083l0,0
					c0.05-0.596,0.579-1.083,1.174-1.083h3.085c0.596,0,1.042,0.488,0.992,1.083l0,0
					C257.716,233.26,257.187,233.748,256.591,233.748z"/>
				<g>
					<path style="opacity:0.2;fill:#263238;" d="M303.586,216.775h-26.556c-0.947,0-1.657-0.775-1.578-1.722l0,0
						c0.08-0.947,0.92-1.722,1.867-1.722h26.556c0.947,0,1.657,0.775,1.577,1.722l0,0C305.374,216,304.534,216.775,303.586,216.775z
						"/>
					<path style="opacity:0.2;fill:#263238;" d="M292.606,222.498H276.55c-0.947,0-1.657-0.775-1.578-1.722l0,0
						c0.08-0.947,0.92-1.722,1.867-1.722h16.055c0.947,0,1.657,0.775,1.578,1.722l0,0
						C294.393,221.723,293.553,222.498,292.606,222.498z"/>
				</g>
			</g>
			<g>
				<path style="opacity:0.5;fill:#407BFF;" d="M261.68,276.836h-10.583c-1.26,0-2.205-1.031-2.099-2.292l0.889-10.583
					c0.106-1.26,1.224-2.292,2.484-2.292h10.583c1.26,0,2.205,1.031,2.099,2.292l-0.889,10.583
					C264.058,275.805,262.94,276.836,261.68,276.836z"/>
				<path style="opacity:0.5;fill:#407BFF;" d="M306.911,285.086h-57.716c-0.596,0-1.042-0.487-0.992-1.083l0,0
					c0.05-0.596,0.578-1.083,1.174-1.083h57.716c0.596,0,1.042,0.487,0.992,1.083l0,0
					C308.035,284.599,307.507,285.086,306.911,285.086z"/>
				<g>
					<path style="opacity:0.2;fill:#263238;" d="M299.275,268.114H272.72c-0.947,0-1.657-0.775-1.578-1.722l0,0
						c0.08-0.947,0.92-1.722,1.867-1.722h26.556c0.947,0,1.657,0.775,1.578,1.722l0,0
						C301.062,267.339,300.222,268.114,299.275,268.114z"/>
					<path style="opacity:0.2;fill:#263238;" d="M288.294,273.836h-16.055c-0.947,0-1.657-0.775-1.578-1.722l0,0
						c0.079-0.947,0.92-1.722,1.867-1.722h16.056c0.947,0,1.657,0.775,1.578,1.722l0,0
						C290.082,273.061,289.242,273.836,288.294,273.836z"/>
				</g>
				<path style="fill:#407BFF;" d="M284.134,290.086h20.885c1.405,0,2.459,1.15,2.341,2.555l-0.313,3.727
					c-0.118,1.405-1.365,2.555-2.77,2.555h-20.885c-1.405,0-2.459-1.15-2.341-2.555l0.313-3.727
					C281.483,291.236,282.729,290.086,284.134,290.086z"/>
				<g>
					<g>
						<path style="fill:#FFFFFF;" d="M285.766,295.669h-1.219l-0.219,0.574h-1.097l1.607-3.476h1.172l1.006,3.476h-1.125
							L285.766,295.669z M285.608,294.917l-0.276-1.25l-0.488,1.25H285.608z"/>
						<path style="fill:#FFFFFF;" d="M289.706,294.82l0.917,0.285c-0.086,0.264-0.205,0.485-0.356,0.662
							c-0.151,0.177-0.332,0.311-0.541,0.401c-0.209,0.09-0.47,0.135-0.781,0.135c-0.378,0-0.682-0.055-0.912-0.165
							c-0.23-0.11-0.42-0.303-0.57-0.579c-0.15-0.277-0.206-0.63-0.169-1.062c0.05-0.575,0.241-1.017,0.574-1.326
							c0.332-0.309,0.779-0.463,1.338-0.463c0.438,0,0.775,0.089,1.01,0.266c0.235,0.177,0.398,0.449,0.488,0.816L289.737,294
							c-0.024-0.106-0.052-0.184-0.084-0.232c-0.053-0.082-0.121-0.146-0.204-0.19c-0.083-0.044-0.178-0.066-0.286-0.066
							c-0.243,0-0.439,0.098-0.585,0.294c-0.111,0.145-0.179,0.374-0.206,0.685c-0.033,0.385,0.002,0.649,0.107,0.792
							c0.105,0.143,0.263,0.214,0.475,0.214c0.205,0,0.366-0.058,0.481-0.173C289.549,295.208,289.64,295.04,289.706,294.82z"/>
						<path style="fill:#FFFFFF;" d="M293.484,294.82l0.917,0.285c-0.086,0.264-0.205,0.485-0.356,0.662
							c-0.151,0.177-0.331,0.311-0.541,0.401c-0.209,0.09-0.47,0.135-0.781,0.135c-0.378,0-0.682-0.055-0.912-0.165
							c-0.23-0.11-0.42-0.303-0.57-0.579c-0.15-0.277-0.206-0.63-0.169-1.062c0.05-0.575,0.241-1.017,0.573-1.326
							s0.779-0.463,1.338-0.463c0.438,0,0.775,0.089,1.01,0.266c0.235,0.177,0.398,0.449,0.488,0.816L293.514,294
							c-0.024-0.106-0.052-0.184-0.084-0.232c-0.053-0.082-0.121-0.146-0.204-0.19c-0.083-0.044-0.178-0.066-0.286-0.066
							c-0.243,0-0.438,0.098-0.585,0.294c-0.111,0.145-0.179,0.374-0.206,0.685c-0.033,0.385,0.002,0.649,0.107,0.792
							c0.105,0.143,0.263,0.214,0.475,0.214c0.205,0,0.366-0.058,0.481-0.173C293.327,295.208,293.417,295.04,293.484,294.82z"/>
						<path style="fill:#FFFFFF;" d="M295.122,292.767h2.879l-0.064,0.742h-1.802l-0.048,0.553h1.672l-0.061,0.709h-1.672
							l-0.059,0.685h1.854l-0.068,0.787h-2.931L295.122,292.767z"/>
						<path style="fill:#FFFFFF;" d="M298.627,292.767h1.786c0.389,0,0.672,0.092,0.85,0.277c0.178,0.185,0.252,0.448,0.222,0.79
							c-0.03,0.351-0.159,0.625-0.388,0.823c-0.228,0.198-0.559,0.296-0.992,0.296h-0.588l-0.112,1.29h-1.079L298.627,292.767z
							 M299.578,294.249h0.263c0.207,0,0.355-0.036,0.446-0.108c0.09-0.072,0.14-0.164,0.15-0.276
							c0.009-0.109-0.019-0.202-0.085-0.277c-0.066-0.076-0.2-0.114-0.401-0.114h-0.306L299.578,294.249z"/>
						<path style="fill:#FFFFFF;" d="M301.895,292.767h3.265l-0.074,0.858h-1.096l-0.226,2.618h-1.074l0.226-2.618h-1.096
							L301.895,292.767z"/>
					</g>
				</g>
			</g>
		</g>
		<g>
			<g>
				<path style="opacity:0.1;fill:#407BFF;" d="M403.442,150.159h-63.144c-3.775,0-7.103,2.854-7.396,6.342l-13.025,155.102h76.871
					l13.025-155.102C410.066,153.013,407.217,150.159,403.442,150.159z"/>
				<path style="fill:#FFFFFF;" d="M401.48,153.993h-59.864c-2.755,0-5.199,2.254-5.43,5.009l-3.015,35.902
					c-0.231,2.755,1.834,5.009,4.589,5.009h59.864c2.755,0,5.199-2.254,5.43-5.009l3.015-35.902
					C406.3,156.247,404.235,153.993,401.48,153.993z"/>
				<path style="fill:#FFFFFF;" d="M397.169,205.331h-59.864c-2.755,0-5.199,2.254-5.43,5.009l-3.015,35.902
					c-0.231,2.755,1.833,5.009,4.589,5.009h59.864c2.755,0,5.199-2.254,5.43-5.009l3.015-35.902
					C401.989,207.585,399.924,205.331,397.169,205.331z"/>
				<path style="fill:#FFFFFF;" d="M392.858,256.669h-59.864c-2.755,0-5.199,2.254-5.43,5.009l-3.015,35.902
					c-0.231,2.755,1.833,5.009,4.589,5.009h59.864c2.755,0,5.199-2.254,5.43-5.009l3.015-35.902
					C397.678,258.924,395.613,256.669,392.858,256.669z"/>
			</g>
			<g>
				<path style="opacity:0.5;fill:#407BFF;" d="M352.789,174.159h-10.583c-1.26,0-2.205-1.031-2.099-2.292l0.889-10.583
					c0.106-1.26,1.224-2.292,2.484-2.292h10.583c1.26,0,2.205,1.031,2.099,2.292l-0.889,10.583
					C355.167,173.128,354.049,174.159,352.789,174.159z"/>
				<path style="opacity:0.5;fill:#407BFF;" d="M398.02,182.409h-57.716c-0.596,0-1.042-0.487-0.992-1.083l0,0
					c0.05-0.596,0.578-1.083,1.174-1.083h57.716c0.596,0,1.042,0.488,0.992,1.083l0,0
					C399.144,181.922,398.616,182.409,398.02,182.409z"/>
				<g>
					<path style="opacity:0.2;fill:#263238;" d="M390.384,165.437h-26.556c-0.947,0-1.657-0.775-1.578-1.722l0,0
						c0.08-0.947,0.92-1.722,1.867-1.722h26.556c0.947,0,1.657,0.775,1.577,1.722l0,0
						C392.171,164.662,391.331,165.437,390.384,165.437z"/>
					<path style="opacity:0.2;fill:#263238;" d="M379.403,171.159h-16.056c-0.947,0-1.657-0.775-1.578-1.722l0,0
						c0.08-0.947,0.92-1.722,1.867-1.722h16.056c0.947,0,1.657,0.775,1.578,1.722l0,0
						C381.19,170.384,380.35,171.159,379.403,171.159z"/>
				</g>
			</g>
			<g>
				<path style="opacity:0.5;fill:#407BFF;" d="M348.477,225.498h-10.583c-1.26,0-2.205-1.031-2.099-2.292l0.889-10.583
					c0.106-1.26,1.224-2.292,2.484-2.292h10.583c1.26,0,2.205,1.031,2.099,2.292l-0.889,10.583
					C350.855,224.466,349.738,225.498,348.477,225.498z"/>
				<path style="opacity:0.5;fill:#407BFF;" d="M393.708,233.748h-57.716c-0.596,0-1.042-0.488-0.992-1.083l0,0
					c0.05-0.596,0.578-1.083,1.174-1.083h57.716c0.596,0,1.042,0.488,0.992,1.083l0,0
					C394.833,233.26,394.304,233.748,393.708,233.748z"/>
				<g>
					<path style="opacity:0.2;fill:#263238;" d="M386.073,216.775h-26.556c-0.947,0-1.657-0.775-1.578-1.722l0,0
						c0.08-0.947,0.92-1.722,1.867-1.722h26.555c0.947,0,1.657,0.775,1.578,1.722l0,0C387.86,216,387.02,216.775,386.073,216.775z"
						/>
					<path style="opacity:0.2;fill:#263238;" d="M375.092,222.498h-16.055c-0.947,0-1.657-0.775-1.578-1.722l0,0
						c0.079-0.947,0.92-1.722,1.867-1.722h16.056c0.947,0,1.657,0.775,1.578,1.722l0,0
						C376.879,221.723,376.039,222.498,375.092,222.498z"/>
				</g>
				<path style="fill:#407BFF;" d="M370.932,238.748h20.885c1.405,0,2.459,1.15,2.341,2.555l-0.313,3.727
					c-0.118,1.405-1.365,2.555-2.77,2.555H370.19c-1.405,0-2.459-1.15-2.341-2.555l0.313-3.727
					C368.28,239.898,369.526,238.748,370.932,238.748z"/>
				<g>
					<g>
						<path style="fill:#FFFFFF;" d="M372.563,244.331h-1.219l-0.219,0.574h-1.097l1.607-3.476h1.172l1.006,3.476h-1.125
							L372.563,244.331z M372.405,243.579l-0.276-1.25l-0.488,1.25H372.405z"/>
						<path style="fill:#FFFFFF;" d="M376.503,243.482l0.917,0.285c-0.086,0.264-0.205,0.485-0.356,0.662
							c-0.151,0.177-0.332,0.311-0.541,0.401c-0.209,0.09-0.47,0.135-0.781,0.135c-0.378,0-0.682-0.055-0.912-0.165
							c-0.23-0.11-0.42-0.303-0.57-0.579c-0.15-0.277-0.206-0.63-0.169-1.062c0.05-0.575,0.241-1.017,0.573-1.326
							c0.333-0.309,0.779-0.463,1.338-0.463c0.438,0,0.775,0.089,1.01,0.266c0.235,0.177,0.398,0.449,0.488,0.816l-0.967,0.211
							c-0.024-0.106-0.052-0.184-0.084-0.232c-0.053-0.082-0.121-0.146-0.204-0.19c-0.083-0.044-0.178-0.066-0.286-0.066
							c-0.243,0-0.439,0.098-0.585,0.294c-0.111,0.145-0.179,0.373-0.206,0.684c-0.033,0.385,0.002,0.649,0.107,0.792
							c0.105,0.143,0.263,0.214,0.475,0.214c0.205,0,0.366-0.058,0.481-0.173S376.437,243.701,376.503,243.482z"/>
						<path style="fill:#FFFFFF;" d="M380.281,243.482l0.917,0.285c-0.086,0.264-0.205,0.485-0.356,0.662
							c-0.151,0.177-0.331,0.311-0.541,0.401c-0.209,0.09-0.47,0.135-0.781,0.135c-0.378,0-0.682-0.055-0.912-0.165
							c-0.23-0.11-0.42-0.303-0.57-0.579c-0.15-0.277-0.206-0.63-0.169-1.062c0.05-0.575,0.241-1.017,0.573-1.326
							c0.333-0.309,0.779-0.463,1.338-0.463c0.438,0,0.775,0.089,1.01,0.266c0.235,0.177,0.398,0.449,0.488,0.816l-0.967,0.211
							c-0.024-0.106-0.052-0.184-0.084-0.232c-0.053-0.082-0.121-0.146-0.204-0.19c-0.083-0.044-0.178-0.066-0.286-0.066
							c-0.243,0-0.439,0.098-0.585,0.294c-0.111,0.145-0.179,0.373-0.206,0.684c-0.033,0.385,0.002,0.649,0.107,0.792
							c0.105,0.143,0.263,0.214,0.475,0.214c0.205,0,0.366-0.058,0.481-0.173C380.124,243.869,380.215,243.701,380.281,243.482z"/>
						<path style="fill:#FFFFFF;" d="M381.919,241.428h2.879l-0.064,0.742h-1.802l-0.048,0.553h1.672l-0.061,0.709h-1.672
							l-0.059,0.685h1.854l-0.068,0.787h-2.931L381.919,241.428z"/>
						<path style="fill:#FFFFFF;" d="M385.424,241.428h1.786c0.389,0,0.672,0.092,0.85,0.277c0.178,0.185,0.252,0.448,0.222,0.79
							c-0.03,0.351-0.159,0.625-0.388,0.823c-0.228,0.198-0.559,0.296-0.992,0.296h-0.588l-0.112,1.29h-1.079L385.424,241.428z
							 M386.375,242.91h0.263c0.207,0,0.355-0.036,0.446-0.108c0.09-0.072,0.14-0.164,0.15-0.276
							c0.009-0.109-0.019-0.202-0.085-0.277c-0.066-0.076-0.2-0.114-0.401-0.114h-0.306L386.375,242.91z"/>
						<path style="fill:#FFFFFF;" d="M388.692,241.428h3.265l-0.074,0.858h-1.096l-0.226,2.618h-1.074l0.226-2.618h-1.096
							L388.692,241.428z"/>
					</g>
				</g>
			</g>
			<g>
				<path style="opacity:0.5;fill:#407BFF;" d="M344.166,276.836h-10.583c-1.26,0-2.205-1.031-2.099-2.292l0.889-10.583
					c0.106-1.26,1.224-2.292,2.484-2.292h10.583c1.26,0,2.205,1.031,2.099,2.292l-0.889,10.583
					C346.544,275.805,345.427,276.836,344.166,276.836z"/>
				<path style="opacity:0.25;fill:#407BFF;" d="M389.397,285.086h-57.716c-0.596,0-1.042-0.487-0.992-1.083l0,0
					c0.05-0.596,0.578-1.083,1.174-1.083h57.716c0.596,0,1.042,0.487,0.992,1.083l0,0
					C390.522,284.599,389.993,285.086,389.397,285.086z"/>
				<g>
					<path style="opacity:0.2;fill:#263238;" d="M381.761,268.114h-26.556c-0.947,0-1.657-0.775-1.578-1.722l0,0
						c0.079-0.947,0.92-1.722,1.867-1.722h26.556c0.947,0,1.657,0.775,1.578,1.722l0,0
						C383.548,267.339,382.708,268.114,381.761,268.114z"/>
					<path style="opacity:0.2;fill:#263238;" d="M370.781,273.836h-16.056c-0.947,0-1.657-0.775-1.578-1.722l0,0
						c0.08-0.947,0.92-1.722,1.867-1.722h16.055c0.947,0,1.657,0.775,1.578,1.722l0,0
						C372.568,273.061,371.728,273.836,370.781,273.836z"/>
				</g>
			</g>
		</g>
	</g>
</g>
<g id="Character_1_">
	<g>
		<path style="fill:#B55B52;" d="M115.944,144.62c0.096,5.959,0.419,16.537-2.744,20.241c0,0,10.854,3.072,18.893,12.284
			c4.326-7.082-1.316-10.887-1.316-10.887c-6.235-2.011-5.013-5.918-3.705-10.236L115.944,144.62z"/>
		<path style="fill:#B55B52;" d="M110.497,175.629l-3.672,7.079l-3.636,7.096c-1.18,2.365-2.338,4.728-3.406,7.061
			c-0.53,1.164-1.014,2.33-1.465,3.443c-0.441,1.091-0.825,2.237-0.99,2.92l-0.003-1.584c0.109,1.327,0.366,2.779,0.784,4.261
			c0.428,1.48,0.943,3.012,1.581,4.533c0.621,1.531,1.33,3.064,2.09,4.596c0.742,1.518,1.607,3.096,2.372,4.527l0.104,0.195
			c0.765,1.432,0.225,3.214-1.208,3.979c-1.085,0.58-2.372,0.408-3.264-0.331c-1.585-1.316-2.891-2.636-4.207-4.089
			c-1.296-1.442-2.5-2.981-3.629-4.614c-1.103-1.647-2.153-3.382-3.025-5.276c-0.873-1.893-1.629-3.931-2.081-6.178
			c-0.088-0.44-0.1-0.877-0.043-1.299l0.041-0.286c0.276-1.996,0.704-3.451,1.141-4.924c0.438-1.451,0.941-2.812,1.445-4.156
			c1.012-2.678,2.111-5.251,3.263-7.785c1.139-2.538,2.354-5.022,3.592-7.488c1.253-2.469,2.52-4.878,3.915-7.321
			c1.609-2.817,5.197-3.795,8.013-2.186c2.744,1.567,3.744,5.012,2.306,7.793L110.497,175.629z"/>
		<path style="fill:#B55B52;" d="M107.716,221.655l-1.36-0.86l-3.857-2.47l-2.751,4.1c1.001,3.961,5.02,5.909,5.02,5.909l1.531,0.35
			c1.136,0.26,2.163-0.305,2.581-1.42l0.443-1.181C109.889,224.572,109.163,222.571,107.716,221.655z"/>
		<g>
			<path style="fill:#407BFF;" d="M184.53,204.087l18.109-10.404c1.219-0.7,2.702-0.226,3.297,1.053l1.577,3.392
				c0.595,1.279,0.084,2.898-1.134,3.598L188.27,212.13c-1.219,0.7-2.702,0.226-3.297-1.053l-1.577-3.392
				C182.801,206.406,183.311,204.787,184.53,204.087z"/>
			<g>
				<path style="fill:#FFFFFF;" d="M188.725,208.115l-1.057,0.607l0.096,0.607l-0.951,0.546l-0.338-3.815l1.016-0.584l2.604,2.513
					l-0.975,0.56L188.725,208.115z M188.214,207.542l-0.861-0.946l0.2,1.326L188.214,207.542z"/>
				<path style="fill:#FFFFFF;" d="M191.719,205.416l0.937-0.21c0.057,0.272,0.064,0.522,0.021,0.751
					c-0.043,0.229-0.133,0.434-0.269,0.617c-0.137,0.182-0.34,0.351-0.61,0.506c-0.328,0.188-0.618,0.292-0.873,0.311
					c-0.254,0.02-0.515-0.053-0.783-0.218c-0.268-0.165-0.493-0.444-0.676-0.836c-0.243-0.523-0.298-1.002-0.163-1.435
					c0.135-0.434,0.444-0.79,0.93-1.069c0.38-0.218,0.716-0.309,1.008-0.273s0.569,0.191,0.829,0.464l-0.733,0.665
					c-0.074-0.08-0.137-0.133-0.189-0.16c-0.087-0.045-0.178-0.066-0.271-0.063c-0.094,0.003-0.188,0.031-0.281,0.085
					c-0.211,0.121-0.332,0.303-0.361,0.546c-0.024,0.181,0.031,0.413,0.162,0.696c0.163,0.351,0.326,0.562,0.487,0.634
					c0.162,0.072,0.335,0.055,0.518-0.051c0.178-0.102,0.288-0.232,0.331-0.39C191.776,205.83,191.771,205.639,191.719,205.416z"/>
				<path style="fill:#FFFFFF;" d="M194.995,203.534l0.937-0.21c0.057,0.272,0.064,0.522,0.021,0.751
					c-0.043,0.229-0.133,0.435-0.269,0.617c-0.137,0.182-0.34,0.351-0.61,0.506c-0.328,0.188-0.618,0.292-0.873,0.311
					c-0.254,0.02-0.515-0.053-0.783-0.218c-0.268-0.165-0.493-0.444-0.676-0.836c-0.243-0.523-0.298-1.002-0.163-1.435
					c0.135-0.434,0.444-0.79,0.93-1.068c0.38-0.218,0.716-0.309,1.008-0.273s0.569,0.191,0.829,0.464l-0.733,0.665
					c-0.074-0.08-0.136-0.133-0.189-0.16c-0.087-0.045-0.178-0.066-0.271-0.063c-0.094,0.003-0.188,0.031-0.281,0.085
					c-0.211,0.121-0.332,0.303-0.361,0.546c-0.024,0.181,0.031,0.413,0.162,0.696c0.163,0.351,0.326,0.562,0.488,0.634
					c0.162,0.072,0.335,0.055,0.518-0.051c0.178-0.102,0.288-0.232,0.331-0.39C195.051,203.948,195.046,203.758,194.995,203.534z"/>
				<path style="fill:#FFFFFF;" d="M195.392,200.937l2.496-1.434l0.314,0.676l-1.563,0.898l0.234,0.503l1.45-0.833l0.3,0.645
					l-1.45,0.833l0.29,0.624l1.608-0.924l0.333,0.716l-2.541,1.46L195.392,200.937z"/>
				<path style="fill:#FFFFFF;" d="M198.431,199.191l1.548-0.889c0.337-0.194,0.629-0.255,0.875-0.183s0.442,0.263,0.586,0.574
					c0.148,0.319,0.173,0.622,0.074,0.907c-0.099,0.285-0.337,0.535-0.712,0.751l-0.51,0.293l0.546,1.174l-0.936,0.537
					L198.431,199.191z M199.994,200.003l0.228-0.131c0.18-0.103,0.29-0.208,0.333-0.316c0.042-0.107,0.04-0.212-0.008-0.314
					c-0.046-0.099-0.117-0.165-0.212-0.198c-0.095-0.033-0.23,0.001-0.404,0.101l-0.265,0.152L199.994,200.003z"/>
				<path style="fill:#FFFFFF;" d="M201.265,197.563l2.831-1.627l0.363,0.781l-0.95,0.546l1.108,2.383l-0.932,0.535l-1.108-2.383
					l-0.95,0.546L201.265,197.563z"/>
			</g>
		</g>
		<path style="fill:#B55B52;" d="M178.711,205.726l-3.013,1.359c-1.218,0.549-1.773,1.971-1.25,3.2l1.068,2.51
			c0.271,0.638,0.837,1.106,1.516,1.246c2.554,0.526,6.243-0.938,8.903-2.268c1.831-0.915,2.463-3.212,1.346-4.926l-1.159-1.778
			c-1.011-1.552-3.075-2.015-4.652-1.043L178.711,205.726z"/>
		<path style="fill:#263238;" d="M105.346,165.34c-5.255,2.327-10.065,7.881-13.991,18.143c1.263,4.229,14.265,11.164,14.265,11.164
			S121.844,160.241,105.346,165.34z"/>
		<path style="fill:#263238;" d="M148.769,178.482c-0.045,3.818,6.265,12.646-1.012,17.763c-0.629,7.714-1.482,15.305-3.135,27.951
			h-38.831c3.694-13.975,0.503-23.404-5.421-48.017c-1.374-5.706,2.465-11.187,8.247-11.771c1.545-0.156,3.182-0.286,4.861-0.367
			c6.524-0.315,11.871-0.523,17.632,0.001c1.909,0.174,3.885,0.415,5.773,0.679C143.695,165.672,148.849,171.64,148.769,178.482z"/>
		<path style="fill:#407BFF;" d="M131.26,162.852c-8.954-2.281-28.123-2.053-31.609,0.684c-3.485,2.737,3.846,7.298,4.267,7.663
			c-2.524,1.414,0,8.712,10.516,10.719c10.516,2.007,12.831-11.018,15.864-13.729C131.848,166.803,132.704,164.645,131.26,162.852z"
			/>
		<path style="opacity:0.2;" d="M105.346,170.889c5.265,0.722,16.509-1.778,20.332-2.945
			C120.778,170.556,108.247,175.333,105.346,170.889z"/>
		<path style="fill:#B55B52;" d="M147.568,173.854c0.543,2.664,1.07,5.47,1.669,8.189c0.578,2.738,1.185,5.464,1.816,8.16
			c0.645,2.69,1.325,5.36,2.089,7.918c0.382,1.275,0.803,2.526,1.231,3.701c0.429,1.165,0.91,2.281,1.358,3.093l-1.96-1.815
			c-0.012-0.008-0.028-0.01-0.045-0.005c-0.028,0.004,0.074,0.038,0.104,0.058c0.061,0.047,0.276,0.113,0.423,0.176
			c0.363,0.126,0.802,0.254,1.262,0.385c0.933,0.255,1.967,0.477,3.013,0.683c2.102,0.404,4.29,0.796,6.493,1.136l6.664,1.052
			c2.228,0.38,4.486,0.703,6.706,1.104l0.035,0.006c1.598,0.288,2.659,1.818,2.371,3.415c-0.234,1.296-1.288,2.239-2.529,2.395
			c-2.33,0.291-4.621,0.442-6.939,0.608c-2.314,0.136-4.631,0.21-6.966,0.233c-2.335-0.002-4.682-0.017-7.095-0.194
			c-1.211-0.088-2.43-0.193-3.73-0.377c-0.656-0.093-1.328-0.21-2.063-0.384c-0.396-0.106-0.736-0.175-1.205-0.337
			c-0.235-0.082-0.409-0.126-0.693-0.246c-0.275-0.115-0.549-0.237-0.819-0.364c-0.736-0.348-1.33-0.876-1.753-1.505l-0.206-0.31
			c-1.08-1.616-1.822-3.102-2.509-4.575c-0.684-1.467-1.232-2.916-1.768-4.354c-1.065-2.875-1.94-5.726-2.731-8.583
			c-0.805-2.853-1.492-5.711-2.126-8.575c-0.605-2.884-1.206-5.699-1.668-8.678c-0.497-3.205,1.698-6.207,4.903-6.704
			c3.109-0.482,6.026,1.568,6.652,4.616L147.568,173.854z"/>
		<path style="fill:#263238;" d="M140.188,165.621c4.795,2.376,9.543,6.96,11.516,17.58c-1.248,4.186-18.367,12.258-18.367,12.258
			S123.806,159.499,140.188,165.621z"/>
		<path style="fill:#263238;" d="M139.514,139.996c-0.095,0.761,0.234,1.441,0.735,1.519c0.501,0.078,0.985-0.476,1.08-1.237
			c0.095-0.761-0.234-1.441-0.735-1.519C140.092,138.682,139.609,139.235,139.514,139.996z"/>
		<path style="fill:#263238;" d="M140.367,138.767l1.907-0.241C142.274,138.527,141.151,139.807,140.367,138.767z"/>
		<path style="fill:#A02724;" d="M139.73,140.83c0,0,0.891,3.478,2.125,5.281c-1.13,0.78-2.797,0.084-2.797,0.084L139.73,140.83z"/>
		<path style="fill:#263238;" d="M141.285,134.762c0.113-0.003,0.223-0.048,0.305-0.134c0.17-0.178,0.159-0.465-0.024-0.64
			c-1.84-1.758-3.878-1.339-3.964-1.32c-0.243,0.053-0.391,0.294-0.33,0.538c0.061,0.244,0.307,0.398,0.549,0.347
			c0.08-0.018,1.665-0.32,3.128,1.079C141.044,134.723,141.166,134.766,141.285,134.762z"/>
		<path style="fill:#B55B52;" d="M114.487,133.566c-0.603,9.433-1.057,13.407,3.006,18.929c6.112,8.305,17.673,7.301,21.044-1.685
			c3.034-8.088,3.511-22.155-5.062-27.279C125.029,118.483,115.09,124.133,114.487,133.566z"/>
		<path style="fill:#263238;" d="M133,142.083c6.417-2.5,5.573-9.667,2.245-12.5c6.505,2.667,10.98,0.583,6.076-6.5
			C136.417,116,109.483,114.5,113.2,125.5c-11.978-3.858-8.478,12.111-7.854,22.583c-8.679,8.75,12.922,16.333,26.58,11.917
			C145.583,155.583,133,142.083,133,142.083z"/>
		<path style="fill:#B55B52;" d="M130.539,140.762c0.747,2.402,1.016,3.426,2.464,4.575c2.178,1.729,4.73,0.804,4.658-1.647
			c-0.065-2.206-1.276-5.764-3.718-6.551C131.537,136.364,129.792,138.36,130.539,140.762z"/>
		<path style="fill:#B55B52;" d="M144.622,224.196c0,0,1.372,50.137,3.199,83.12c1.938,30.267,4.43,101.057,4.43,101.057
			l-7.643,0.398c0,0-16.928-59.562-16.21-95.557c-19.866-50.339-12.722-87.51-12.722-87.51L144.622,224.196z"/>
		<g>
			<path style="fill:#263238;" d="M151.68,405.207c0.344-0.243,0.805-0.255,1.17-0.025c2.591,1.635,5.442,3.904,12.695,4.225
				c5.08,0.224,3.824,3.02-3.444,3.927c-8.546,1.066-10.378,2.819-13.139,3.515c-2.661,0.671-4.949-1.413-4.901-7.207
				c0.003-0.403,0.267-0.763,0.644-0.911C148.609,407.198,150.763,405.854,151.68,405.207z"/>
		</g>
		<path style="fill:#B55B52;" d="M134.474,224.196c0,0-13.991,59.336-22.114,86.948c-8.531,28.999-15.283,95.18-15.236,97.376
			h-6.618c0,0-8.549-53.643,2.045-97.404c0.974-70.976,13.239-86.921,13.239-86.921H134.474z"/>
		<g>
			<path style="fill:#263238;" d="M97.298,406.123c0.373-0.151,0.774-0.05,1.014,0.262c1.708,2.218,2.948,4.677,8.003,6.837
				c4.175,1.784,1.869,4.228-4.673,3.33c-7.692-1.056-7.796,0.195-10.393,0.195c-2.503,0-3.807-2.581-1.92-8.187
				c0.131-0.39,0.473-0.675,0.844-0.726C94.021,407.303,96.303,406.527,97.298,406.123z"/>
		</g>
		<path style="fill:#263238;" d="M90.111,297.556c-0.778,7.333-2.222,23.222-2.222,23.222s22.972,4.722,63.319,2.347
			c-0.208-4.833-0.25-11.833-0.25-11.833L90.111,297.556z"/>
		<path style="fill:#407BFF;" d="M144.62,224.036c0,0,8.575,44.337,7.63,97.853c-33.76,0.008-65.003-6.444-65.003-6.444
			s1.185-68.667,18.542-91.399C115.82,221.636,144.393,223.229,144.62,224.036z"/>
		<path style="opacity:0.2;" d="M104.165,251.333c11.667,8.833,20.52,10.51,20.52,10.51S115.129,265.218,104.165,251.333z"/>
	</g>
</g>
<g id="Plant">
	<g>
		<g>
			<path style="fill:#263238;" d="M367.857,398.44c-0.018,0-0.035-0.002-0.053-0.006c-0.135-0.028-0.221-0.161-0.192-0.296
				c5.186-24.327,2.759-47.423-7.215-68.647c-9.253-19.691-22.203-31.349-25.952-34.453c-0.106-0.088-0.121-0.245-0.033-0.352
				c0.088-0.106,0.245-0.122,0.352-0.033c3.769,3.12,16.788,14.84,26.085,34.625c10.021,21.326,12.461,44.528,7.251,68.964
				C368.076,398.36,367.973,398.44,367.857,398.44z"/>
			<path style="fill:#263238;" d="M377.208,352.866c-2.48,5.707-7.387,9.074-7.387,9.074s-0.887-5.885,1.593-11.592
				c2.48-5.707,7.388-9.074,7.388-9.074S379.688,347.159,377.208,352.866z"/>
			<path style="fill:#263238;" d="M353.921,322.626c5.182,3.444,7.635,8.867,7.635,8.867s-5.949-0.161-11.132-3.605
				s-7.635-8.867-7.635-8.867S348.739,319.182,353.921,322.626z"/>
			<path style="fill:#407BFF;" d="M349.977,297.846c0.985,6.144-1.335,11.624-1.335,11.624s-3.917-4.48-4.902-10.624
				c-0.985-6.144,1.335-11.624,1.335-11.624S348.992,291.703,349.977,297.846z"/>
			<path style="fill:#407BFF;" d="M336.538,294.634c0.117,1.067-0.654,2.027-1.721,2.144c-1.067,0.117-2.027-0.654-2.144-1.721
				c-0.117-1.067,0.654-2.027,1.721-2.144C335.461,292.797,336.421,293.567,336.538,294.634z"/>
		</g>
		<g>
			<path style="fill:#263238;" d="M373.728,393.471c-0.098,0-0.19-0.058-0.23-0.153c-8.412-20.017-10.093-40.222-4.997-60.054
				c4.728-18.4,13.942-30.518,16.654-33.793c0.088-0.106,0.246-0.122,0.352-0.033c0.106,0.088,0.122,0.245,0.033,0.352
				c-2.695,3.256-11.853,15.299-16.555,33.599c-5.068,19.725-3.395,39.822,4.974,59.736c0.054,0.127-0.006,0.273-0.134,0.327
				C373.793,393.465,373.76,393.471,373.728,393.471z"/>
			<path style="fill:#407BFF;" d="M362.288,371.878c2.429,2.657,5.746,3.578,5.746,3.578s-0.62-3.387-3.049-6.044
				c-2.429-2.657-5.746-3.578-5.746-3.578S359.86,369.221,362.288,371.878z"/>
			<path style="fill:#407BFF;" d="M369.56,334.323c-2.276,3.338-2.427,7.199-2.427,7.199s3.54-1.55,5.816-4.888
				c2.276-3.338,2.427-7.2,2.427-7.2S371.837,330.985,369.56,334.323z"/>
			<path style="fill:#407BFF;" d="M369.157,319.336c0.215,3.308,2.068,5.88,2.068,5.88s1.505-2.79,1.29-6.098
				c-0.215-3.308-2.068-5.88-2.068-5.88S368.942,316.029,369.157,319.336z"/>
			<path style="fill:#407BFF;" d="M381.697,306.638c-2.805,1.766-4.183,4.621-4.183,4.621s3.17-0.007,5.975-1.773
				c2.805-1.766,4.183-4.621,4.183-4.621S384.502,304.873,381.697,306.638z"/>
			<path style="fill:#407BFF;" d="M383.663,299.762c0.073,0.93,0.886,1.624,1.816,1.551c0.93-0.073,1.624-0.886,1.55-1.816
				c-0.073-0.93-0.886-1.624-1.816-1.551C384.284,298.02,383.59,298.833,383.663,299.762z"/>
		</g>
		<path style="fill:#407BFF;" d="M389.781,409.749l-0.938-0.348c0.606-1.635,0.914-3.474,0.914-5.468h1
			C390.757,406.047,390.429,408.003,389.781,409.749z"/>
		<path style="fill:#407BFF;" d="M389.004,398.7c-1.051-3.586-3.115-6.759-5.968-9.175l0.646-0.764
			c3.003,2.544,5.175,5.883,6.282,9.657L389.004,398.7z"/>
		<path style="fill:#407BFF;" d="M377.97,389.193l2.027-8.31H361.78l2.027,8.31c-5.489,2.643-9.287,8.241-9.287,14.741
			c0,9.04,7.329,12.305,16.369,12.305c9.04,0,16.369-3.264,16.369-12.305C387.258,397.433,383.459,391.835,377.97,389.193z"/>
	</g>
</g>
</svg>
