<?xml version="1.0" encoding="utf-8"?>
<!-- Generator: Adobe Illustrator 27.5.0, SVG Export Plug-In . SVG Version: 6.00 Build 0)  -->
<svg version="1.1" id="_x3C_Layer_x3E_" xmlns="http://www.w3.org/2000/svg" xmlns:xlink="http://www.w3.org/1999/xlink" x="0px"
	 y="0px" viewBox="0 0 2975 1700" style="enable-background:new 0 0 2975 1700;" xml:space="preserve">
<rect style="fill:#FFFFFF;" width="2975" height="1700"/>
<g>
	<path style="fill:#EBF2F9;" d="M541.911,1503.264c0,0-497.429-497.861-188.52-795.536
		c308.907-297.675,553.062,88.765,721.911,60.293c213.726-36.038,306.154-578.264,625.657-578.779
		c363.534-0.585,630.357,214.317,488.228,726.117c-104.829,377.485,615.732,68.361,509.903,595.244L541.911,1503.264z"/>
	<path style="fill:#ACD29A;" d="M1626.84,1438.567c-67.621-10.883-118.674,12.806-167.764,5.997
		c-39.146-5.43-59.55-45.039-112.157-56.256c12.514-7.381,27.094-16.61,34.06-23.321c13.538-13.042,32.985-39.12,0-40.146
		c-23.731-0.737-42.215,38.793-50.717,61.03c-7.79-0.651-16.225-0.703-25.407-0.026c10.859-34.996,32.031-102.736,37.211-115.75
		c7.049-17.708-22.556-76.747-57.448-10.488c-24.473,46.475-7.854,100.178,4.254,128.108c-9.563,1.542-18.579,3.767-27.197,6.461
		c-28.837-65.782-120.563-253.337-219.997-230.031c-108.401,25.406,123.841,151.494,182.413,244.977
		c-47.848,22.179-89.894,49.121-162.568,29.445c-193.139-52.287-208.459,65.361-208.459,65.361l863.109,0.294
		C1716.172,1504.223,1694.459,1449.451,1626.84,1438.567z"/>
	<g>
		<path style="fill:#FFB07B;" d="M1392.046,1015.227c0.889,8.307,12.642,8.006,25.924,6.016c13.282-1.99,9.85,1.502,28.528,1.141
			c18.677-0.36,24.907-6.745,25.722-9.442c0.728-2.394-8.33-4.088-18.028-6.109c-1.219-0.251-2.443-0.517-3.668-0.782
			c-10.938-2.397-18.39-10.275-27.905-17.056c-9.015-6.422-15.088-35.855-15.088-35.855l-26.552-0.156
			c0,0,8.344,26.616,12.688,35.873c2.556,5.444-0.167,12.434-1.024,17.678C1392.184,1009.384,1391.729,1012.299,1392.046,1015.227z"
			/>
		<path style="fill:#365DA4;" d="M1417.97,1021.242c13.282-1.99,9.85,1.502,28.528,1.141c18.677-0.36,24.907-6.745,25.722-9.442
			c0.728-2.394-8.33-4.088-18.028-6.109l-0.108,0.18c0,0-11.807,6.852-27.231,5.817c-12.573-0.839-25.533-5.646-34.209-6.295
			c-0.459,2.851-0.914,5.766-0.597,8.693C1392.935,1023.533,1404.688,1023.232,1417.97,1021.242z"/>
		<path style="fill:#FFB07B;" d="M1184.463,1013.909c0.575,8.335,12.331,8.478,25.679,6.989c13.348-1.489,9.786,1.871,28.465,2.215
			c18.678,0.344,25.145-5.802,26.061-8.467c0.817-2.365-8.171-4.399-17.786-6.785c-1.209-0.296-2.422-0.607-3.636-0.919
			c-10.84-2.808-17.99-10.962-27.244-18.095c-8.766-6.758-1.555-34.788-1.555-34.788l-20.146-9.515c0,0-2.771,28.889-4.266,43.5
			c-0.612,5.983-3.592,11.993-4.647,17.2C1184.821,1008.077,1184.258,1010.973,1184.463,1013.909z"/>
		<path style="fill:#365DA4;" d="M1210.142,1020.898c13.348-1.489,9.786,1.871,28.465,2.215c18.678,0.344,25.145-5.802,26.061-8.467
			c0.817-2.365-8.171-4.399-17.786-6.785l-0.115,0.176c0,0-12.056,6.402-27.432,4.787c-12.532-1.313-25.303-6.603-33.947-7.579
			c-0.565,2.832-1.129,5.728-0.924,8.664C1185.038,1022.244,1196.794,1022.387,1210.142,1020.898z"/>
		<path style="fill:#2B478B;" d="M1229.721,597.912c0,0-5.58,27.021-11.173,164.059c0,0-10.365,25.374-17.884,56.399
			c-7.52,31.024-12.825,160.482-12.825,160.482s2.997,4.322,12.101,4.868c7.434,0.446,13.217-2.813,13.217-2.813
			s52.273-169.558,77.718-235.384c25.444-65.828,40.354-159.823,40.354-159.823L1229.721,597.912z"/>
		<path style="fill:#2B478B;" d="M1292.588,609.481c0,0,4.122,27.282,46.323,157.779c0,0-0.938,27.393,2.751,59.103
			c3.688,31.71,46.404,156.557,46.404,156.557s5.672,1.971,14.185-0.275c7.911-2.088,14.114-6.848,14.114-6.848
			s-16.375-178.444-15.297-249.01c1.077-70.564-17.48-163.908-17.48-163.908L1292.588,609.481z"/>
		<path style="fill:#C65447;" d="M1367.328,231.538c-6.615-4.21-14.752-5.04-20.476-4.988c1.546-1.443,4.463-1.852,4.463-1.852
			c-3.513-0.703-11.586,2.412-11.586,2.412c-48.274-21.427-59.635,50.662-59.442,67.552c0.186,16.888-0.658,36.275-25.985,50.148
			c-49.833,27.296-11.634,81.208-11.634,81.208c-8.971,25.738,24.238,57.272,24.238,57.272
			c-0.563-13.669,62.181-100.753,96.011-120.62c8.561-11.34,12.431-31.936,12.726-33.558c-2.198,16.374-5.473,25.456-8.246,30.523
			C1396.409,335.497,1384.86,242.693,1367.328,231.538z"/>
		<path style="fill:#FFB07B;" d="M1356.813,353.345c0.17,0.077-15.827,8.382-27.863,5.092
			c-11.321-3.085-18.717-17.765-18.563-17.799c4.794-0.952,6.18-7.54,6.077-35.845l2.168,0.425l35.131,6.961l1.309,0.255
			c0,0-0.834,11.466-0.859,22.27c-0.008,2.287,0.025,4.539,0.111,6.647C1354.56,347.624,1355.257,352.614,1356.813,353.345z"/>
		<path style="fill:#EA8E50;" d="M1354.211,334.705c-0.008,2.287,0.025,4.539,0.111,6.647
			c-20.435-0.824-32.215-24.191-36.661-34.442l36.101,5.27l1.309,0.255C1355.07,312.435,1354.236,323.901,1354.211,334.705z"/>
		<path style="fill:#C65447;" d="M1314.865,301.252c0,0-10.686-16.884-13.25-31.321c-1.832-10.308,3.419-48.514,41.812-43.011
			c0,0,11.151,1.099,21.633,8.178c8.336,5.63,20.366,17.784,6.915,51.124l-3.494,11.263L1314.865,301.252z"/>
		<path style="fill:#FFB07B;" d="M1357.218,329.41c0,0-47.834-6.323-43.438-36.052c4.396-29.729,1.184-50.566,31.91-47.786
			c30.728,2.78,34.97,14.999,35.916,25.279C1382.552,281.131,1369.774,330.288,1357.218,329.41z"/>
		<path style="fill:#C65447;" d="M1367.53,248.082c0,0-18.26,32.925-39.079,35.093c-20.819,2.169-28.716-4.5-28.716-4.5
			s17.2-9.926,23.57-30.777C1323.306,247.898,1360.148,230.016,1367.53,248.082z"/>
		<path style="fill:#C65447;" d="M1363.871,250.431c0,0,8.597,9.239,9.849,17.163c1.25,7.923-0.002,23.665,4.618,23.811
			c0,0,13.376-22.235,4.312-37.291C1373.038,238.148,1363.871,250.431,1363.871,250.431z"/>
		<path style="fill:#D86713;" d="M1681.535,654.335c-10.035-21.257-37.934-38.846-61.439-38.854
			c-17.359-0.005-32.67,5.919-44.518,15.569c-6.774,5.518-16.992,1.879-18.83-6.663l-20.573-95.589
			c-3-13.938-16.731-22.807-30.67-19.807l-332.912,71.65c-13.618,2.932-22.282,16.347-19.351,29.966l71.571,332.548
			c2.047,9.512,9.022,16.688,17.671,19.444l-4.37,1.239h12.924l0.105-0.018c1.58-0.046,3.179-0.229,4.782-0.573l7.249-1.56l0,0l0,0
			l85.44-18.389c11.99-2.58,16.858-17.086,8.802-26.334c-7.783-8.933-13.383-19.997-15.77-32.531
			c-6.724-35.318,15.112-70.305,49.814-79.707c38.6-10.458,77.582,13.639,85.888,52.232c3.125,14.518,1.448,28.953-3.963,41.651
			c-2.102,4.933-0.363,10.056,3.247,12.975l-4.984,2.432l11.548-0.007v-0.001c0.864,0.021,1.756-0.053,2.666-0.249l102.021-21.957
			c13.944-3.002,22.815-16.738,19.814-30.683l-20.446-95c-1.893-8.791,6.125-16.496,14.836-14.258
			c10.07,2.588,20.879,2.937,31.736,0.601C1676.514,743.276,1701.466,696.554,1681.535,654.335z"/>
		<path style="fill:#F1A34F;" d="M1608.34,615.481c-17.358-0.005-32.669,5.919-44.518,15.569
			c-6.773,5.518-16.991,1.879-18.829-6.663l-20.573-95.589c-3-13.938-16.731-22.807-30.67-19.807l-332.912,71.65
			c-13.618,2.932-22.283,16.347-19.351,29.966l71.57,332.548c3.044,14.14,16.974,23.135,31.113,20.092l92.688-19.949
			c11.991-2.58,16.859-17.086,8.802-26.334c-7.782-8.933-13.382-19.997-15.769-32.531c-6.724-35.317,15.112-70.305,49.813-79.707
			c38.601-10.458,77.583,13.639,85.889,52.232c3.126,14.52,1.448,28.953-3.962,41.651c-3.516,8.251,3.706,17.037,12.475,15.15
			l102.021-21.957c13.943-3.002,22.814-16.738,19.814-30.683l-20.447-95c-1.892-8.791,6.127-16.496,14.837-14.258
			c10.07,2.588,20.88,2.937,31.737,0.601c42.688-9.188,67.641-55.91,47.71-98.129
			C1659.744,633.078,1631.848,615.489,1608.34,615.481z"/>
		<path style="fill:#FFB07B;" d="M1486.534,489.057c0,0,20.765,3.403,26.207,16.907c5.442,13.504-2.157,22.647-5.081,22.616
			c-2.925-0.031-8.526-2.191-11.151-9.195C1493.884,512.383,1486.534,489.057,1486.534,489.057z"/>
		<path style="fill:#FFB07B;" d="M1200.664,549.315c0,0,23.31-0.03,31.695,13.747c8.385,13.778,1.731,25.144-1.472,25.638
			c-3.202,0.493-9.715-0.857-13.847-8.037C1212.907,573.481,1200.664,549.315,1200.664,549.315z"/>
		<path style="fill:#80BDCC;" d="M1487.111,504.73c-2.065-0.441-11.102-1.504-22.596-3.313
			c-21.161-3.321-50.667-9.166-60.566-18.298c-2.68-2.479-8.927-16.121-15.417-31.76c-6.566,34.623-6.929,61.178-5.19,81.394
			l-143.044,30.787c12.267-24.796,31.249-55.541,27.689-80.422c-1.318-9.225-6.373-21.882-8.263-36.102
			c-0.159-1.223-0.294-2.445-0.403-3.687c-20.06,16.514-43.235,34.734-43.79,38.379c-0.923,6.107,14.695,73.731,14.695,73.731
			c-3.879,8.928-20.723,7.05-20.723,7.05c-15.787-11.271-39.004-75.15-37.14-89.301c1.855-14.152,59.415-94.799,73.346-114.073
			c13.763-19.045,64.001-18.569,65.21-18.561h0.01c0.008,0,0.008,0,0.016,0c39.952,23.988,43.555,4.052,43.555,4.052
			s36.047,6.855,42.244,17.499c6.197,10.651,33.361,91.4,35.283,94.246c4.022,5.946,69.694,29.739,70.87,36.628
			C1504.09,499.871,1492.998,505.979,1487.111,504.73z"/>
		<path style="fill:#5F9AA8;" d="M1290.175,552.856l-49.877,10.686c12.418-24.727,28.744-55.522,25.174-80.249
			c-1.335-9.232-4.328-20.156-5.771-34.44c-0.14-1.377-0.379-5.521-0.379-5.521s35.321,27.797,35.942,57.879
			C1295.587,516.816,1292.861,537.231,1290.175,552.856z"/>
		<path style="fill:#5F9AA8;" d="M1465.842,501.604c-21.42-3.327-51.291-9.173-61.31-18.309
			c-2.716-2.481-9.041-16.138-15.611-31.797c0,0-2.303-25.171,4.276-24.23c6.579,0.939,16.261,45.585,23.168,48.404
			C1422.55,478.201,1456.734,491.322,1465.842,501.604z"/>
	</g>
	<g id="man_2_">
		<g>
			<path style="fill:#2C3A64;" d="M2521.1,1460.524c-3.017,10.175-16.957,16.957-18.844,29.393
				c-0.918,6.069-3.18,10.786-6.053,14.025h-43.4c0.434-2.39,2.338-4.964,7.981-6.196c12.053-2.636,16.601-17.247,15.852-30.813
				c-0.313-5.688-0.169-12.172,0.111-17.782c0.382-7.769,1.02-13.872,1.02-13.872l25.62-6.026l2.693,3.46l2.584,3.322
				C2508.664,1436.035,2524.109,1450.35,2521.1,1460.524z"/>
			<path style="fill:#2C3A64;" d="M2318.996,1503.942h-87.806c1.989-2.329,5.364-4.582,11.067-5.509
				c13.515-2.193,36.915-10.038,42.134-27.31c0.17-0.553,0.323-1.122,0.45-1.7c4.141-18.462,34.289,5.652,34.289,5.652
				s0.094,0.74,0.23,1.998C2319.889,1482.268,2321.062,1496.369,2318.996,1503.942z"/>
			<path style="fill:#35488B;" d="M2245.846,1014.768c0,0,4.579,57.12,9.96,125.78c7.313,93.271,16.108,207.839,16.979,229.543
				c1.504,37.687,7.54,97.972,7.54,97.972s14.311,14.322,42.955,8.286c0,0,25.524-86.059,32.816-177.112
				c0.112-1.493,0.227-2.996,0.34-4.5c6.782-92.693,17.328-287.881,17.328-287.881L2245.846,1014.768z"/>
			<path style="fill:#2C3A64;" d="M2245.846,1014.768c0,0,4.579,57.12,9.96,125.78l100.29,158.688c0.112-1.493,0.227-2.996,0.34-4.5
				c6.782-92.693,17.328-287.881,17.328-287.881L2245.846,1014.768z"/>
			<path style="fill:#35488B;" d="M2266.754,1021.551c0,0,82.52,206.865,136.779,304.081
				c54.26,97.215,71.216,124.346,71.216,124.346s31.087-12.435,33.913-20.913c0,0-20.75-187.68-57.086-233.43
				c-20.533-25.853-44.651-103.434-45.782-130.563c-1.13-27.13-7.347-80.824-7.347-80.824L2266.754,1021.551z"/>
		</g>
		<path style="fill:#935C2F;" d="M2309.076,702.234c-3.67-21.663-3.781-34.504-3.781-34.504l41.868-33.742
			c-1.556,46.397,28.175,68.707,28.175,68.707s-55.793,27.464-88.043,17.292C2287.295,719.987,2295.234,709.839,2309.076,702.234z"
			/>
		<path style="fill:#A16D3C;" d="M2295.433,666.965c0,0,53.264,8.849,58.264-24.406s15.242-54.51-18.555-61.565
			c-33.796-7.056-42.326,4.639-46.695,15.332C2284.078,607.019,2281.706,663.806,2295.433,666.965z"/>
		<g>
			<path style="fill:#A16D3C;" d="M2108.359,735.518l-11.336-7.021c0,0-14.14-20.872-38.29-7.904c0,0-9.568,6.099-3.148,11.206
				c6.421,5.106,4.694,2.221,13.588,9.619c8.894,7.397,20.401,10.04,27.823,5.962l9.52-0.899L2108.359,735.518z"/>
			<path style="fill:#D3782F;" d="M2094.897,737.705c2.919-9.138,4.309-9.944,4.309-9.944s91.706,10.836,100.352,11.476
				c8.646,0.64,128.71-24.099,128.71-24.099l56.69,68.843c0,0-167.147,6.302-189.022,4.253
				c-36.15-3.388-101.701-37.043-101.701-37.043S2092.604,744.882,2094.897,737.705z"/>
		</g>
		<path style="fill:#E69D43;" d="M2404.738,994.818c0.161,3.553-7.16,7.453-10.338,8.881
			c-23.938,10.734-46.234,18.188-71.423,20.612c-29.879,3.064-65.19-3.655-77.297-3.496c-1.297,0-2.425-0.48-3.394-1.288
			c-0.807-0.648-1.456-37.144-0.807-83.161c0-1.776,0-3.722,0.159-5.498v-0.64c0.047-4.793,0.122-9.662,0.226-14.578
			c0.301-13.449,0.809-27.257,1.391-40.979c0.875-20.227,2.077-40.106,3.74-57.719c1.739-18.395,3.948-34.325,6.759-45.623
			c6.456-25.998,21.316-43.122,34.88-55.717l11.138-9.841c11.137,2.256,22.933,1.606,34.719-4.201
			c12.755-6.298,26.646-13.084,28.902-11.467c17.218,12.867,28.808,42.079,34.747,79.205c3.195,19.981,4.756,42.248,4.672,65.501
			c-0.037,8.919-0.311,17.971-0.827,27.107c-2.876,49.034,0.075,91.546,1.767,116.255
			C2404.24,985.277,2404.627,990.927,2404.738,994.818z"/>
		<path style="fill:#4A75CB;" d="M2121.584,541.526l-336.848-53.496c-14.323-2.275-27.777,7.491-30.053,21.814l-14.909,93.886
			c-0.69,4.349,0.411,16.57,0.411,16.57l12.142,1.807c0.688,0.15,1.391,0.257,2.104,0.313l0,0l0,0
			c2.197,0.177,4.491-0.097,6.778-0.924c11.17-4.043,23.544-5.272,36.126-2.964c35.458,6.502,60.263,39.587,56.488,75.438
			c-4.199,39.877-40.846,67.601-79.938,61.393c-14.706-2.336-27.596-9.131-37.508-18.787c-1.922-1.873-4.235-2.862-6.572-3.103l0,0
			l-12.702-1.906l-15.821,114.526c-2.242,14.125,7.389,27.393,21.514,29.637l96.228,15.282c8.904,1.413,13.205,11.7,7.959,19.033
			c-6.065,8.479-10.307,18.46-12.053,29.456c-6.867,43.242,27.781,83.49,74.475,80.142c23.508-1.686,50.055-21.4,58.573-43.377
			c6.291-16.228,6.296-32.689,1.563-47.262c-2.707-8.331,4.396-16.567,13.048-15.193l96.825,15.377
			c14.118,2.243,27.382-7.385,29.624-21.504l53.555-337.216C2144.783,556.676,2135.377,543.718,2121.584,541.526z"/>
		<path style="fill:#D3782F;" d="M2364.625,768.313c0,0-25.819,120.494-122.76,147.338c0.301-13.449,0.809-27.257,1.391-40.979
			c0.875-20.227,2.077-40.106,3.74-57.719c1.729-0.894,3.355-1.589,4.842-2.078C2284.733,804.028,2364.625,768.313,2364.625,768.313
			z"/>
		<path style="fill:#699DEE;" d="M1935.523,974.388c6.291-16.229,6.297-32.688,1.563-47.262
			c-2.706-8.331,4.397-16.566,13.049-15.193l96.824,15.378c14.118,2.242,27.382-7.387,29.624-21.504l53.555-337.217
			c2.191-13.794-7.216-26.752-21.009-28.942l-336.848-53.497c-14.322-2.274-27.776,7.492-30.051,21.814l-14.911,93.887
			c-1.929,12.145,9.871,21.95,21.436,17.766c11.169-4.043,23.543-5.271,36.125-2.964c35.458,6.501,60.264,39.587,56.489,75.438
			c-4.2,39.877-40.845,67.6-79.938,61.392c-14.707-2.336-27.595-9.13-37.508-18.787c-6.442-6.275-17.273-2.703-18.684,6.179
			l-16.412,103.34c-2.243,14.124,7.39,27.393,21.513,29.636l96.228,15.283c8.905,1.414,13.206,11.7,7.96,19.033
			c-6.066,8.479-10.307,18.459-12.054,29.457c-6.867,43.241,27.782,83.489,74.475,80.142
			C1900.459,1016.079,1927.006,996.363,1935.523,974.388z"/>
		<g>
			<path style="fill:#A16D3C;" d="M2108.75,813.204l-13.85-2.291c0,0-15.789-22.848-43.309-10.03c0,0-10.914,6.104-3.696,11.818
				c7.219,5.715,5.296,2.564,15.292,10.825c9.996,8.261,23.009,11.559,31.467,7.521l10.799-0.562L2108.75,813.204z"/>
			<path style="fill:#E69D43;" d="M2098.164,820.242c0.447-10.191,5.875-11.278,5.875-11.278s104.912-6.94,113.962-8.694
				c9.051-1.756,92.609-70.986,92.609-70.986s32.314-29.043,54.954-19.243c19.674,8.516,25.832,25.317,26.822,40.769
				c1.179,18.413-9.204,35.626-25.922,43.434c-37.525,17.527-112.575,51.934-129.666,54.901
				c-38.04,6.606-135.814-14.568-135.814-14.568S2097.813,828.247,2098.164,820.242z"/>
		</g>
		<path style="fill:#2C3A64;" d="M2288.446,596.325c0,0-21.617-16.031-7.52-40.94c0,0,17.006,5.64,41.165,0
			c24.158-5.639,45.775,2.351,48.596,10.809c0,0,9.398,3.761,10.339,17.858c0.939,14.099-27.33,58.506-27.33,58.506
			s-6.037-7.517-4.392-12.686c1.645-5.17,6.814-16.683,0.47-16.683s-8.459,9.399-11.044,5.64c-2.584-3.76,2.115-19.503-5.404-22.088
			C2325.808,594.156,2296.906,601.079,2288.446,596.325z"/>
	</g>
	<path style="fill:#C3E0F4;" d="M1553.674,1491.938l-95.222-432.33h26.212c6.212,0,11.295-5.083,11.295-11.295v-14.604
		c0-6.213-5.083-11.295-11.295-11.295h-332.49c-6.214,0-11.296,5.082-11.296,11.295v14.604c0,6.212,5.082,11.295,11.296,11.295
		h33.744l-95.223,432.33c-1.28,5.813,2.414,11.618,8.209,12.901c5.795,1.285,11.584-2.42,12.864-8.232l96.249-436.999h228.333
		l96.25,436.999c1.28,5.813,7.069,9.518,12.864,8.232l0,0C1551.26,1503.557,1554.954,1497.751,1553.674,1491.938z"/>
	<g>
		<path style="fill:#ACD29A;" d="M2185.108,1227.184c-35.244-33.835-162.123,179.645-162.123,179.645
			S2220.353,1261.019,2185.108,1227.184z"/>
		<path style="fill:#ACD29A;" d="M2180.879,1325.867c-31.202-12.48-130.912,92.643-153.369,116.916
			c-17.184-2.284-36.029-3.766-56.687-4.134c-157.895-2.82-229.514,68.695-229.514,68.695l440.455,1.498
			c0,0-39.017-49.542-149.702-65.437c27.043-12.771,107.036-49.973,136.129-57.126
			C2203.436,1377.614,2216.123,1339.965,2180.879,1325.867z"/>
	</g>
	<g>
		<path style="fill:#D86713;" d="M2056.646,1111.607h-95.063c-12.298,0-20.131,13.191-14.184,23.956
			c5.744,10.397-14.467,100.484-57.05,102.835c-40.036,2.211-73.171-29.735-73.171-69.318c0-14.891,4.689-28.686,12.672-39.99
			c5.188-7.347-0.039-17.482-9.032-17.482h-104.635c-14.302,0-25.896,11.593-25.896,25.896c0,0-9.484,112.31-17.55,108.279
			c-8.309-4.153-17.568-6.683-27.364-7.187l0.003-0.003h-0.095c-1.169-0.059-2.344-0.095-3.526-0.095
			c-1.188,0-18.411-0.294-18.411-0.294l-2.611,138.786l14.957,0.159c14.221-0.425,26.569-1.756,37.547-7.353
			c7.803-3.979,17.051,1.744,17.051,10.504v98.038c0,14.295,11.589,25.884,25.885,25.884h341.442
			c13.967,0,25.289-11.322,25.289-25.289v-341.069C2082.903,1123.363,2071.146,1111.607,2056.646,1111.607z"/>
		<path style="fill:#F1A34F;" d="M1607.902,1375.373c17.016,3.667,33.272,1.09,46.922-5.87c7.805-3.979,17.053,1.744,17.053,10.504
			v98.038c0,14.295,11.589,25.885,25.885,25.885h341.441c13.967,0,25.29-11.323,25.29-25.29v-341.068
			c0-14.502-11.757-26.258-26.258-26.258h-95.063c-12.298,0-20.131,13.191-14.184,23.956c5.744,10.397,8.898,22.426,8.594,35.215
			c-0.86,36.037-29.645,65.727-65.644,67.621c-40.042,2.107-73.171-29.736-73.171-69.318c0-14.892,4.689-28.687,12.672-39.991
			c5.187-7.347-0.039-17.482-9.033-17.482h-104.634c-14.303,0-25.896,11.594-25.896,25.896v97.433
			c0,9.018-9.484,14.878-17.551,10.847c-9.325-4.661-19.847-7.284-30.982-7.284c-43.782,0-78.099,40.534-67.468,86.122
			C1561.229,1347.28,1584.863,1370.406,1607.902,1375.373z"/>
	</g>
	<path style="fill:#ACD29A;" d="M619.293,1505.842l61.366,0.451c0,0-2.135-14.849-43.444-18.679l0,0
		c-16.015-44.487-63.063-164.159-103.918-158.5c-40.338,5.59,55.196,115.38,94.062,158.062c-5.499,0.01-10.625,0.457-15.356,1.218
		c-9.362-18.641-27.926-44.99-57.719-43.789c-31.707,1.277,11.49,30.231,41.229,48.013c-15.064,5.403-23.198,12.879-23.198,12.879
		l46.281,0.34c0.545,0.298,0.84,0.457,0.84,0.457S619.388,1506.134,619.293,1505.842z"/>
	<g>
		<g>
			<path style="fill:#EA8E50;" d="M838.547,1009.956l9.079,7.374c0,0,24.839-8.906,30.444,20.608c0,0,1.492,12.579-6.476,12.603
				c-7.968,0.024-4.681-1.375-15.964-1.044s-20.635-5.618-22.288-14.774l-5.397-7.758L838.547,1009.956z"/>
			<path style="fill:#1E3D70;" d="M837.519,1025.781c7.243-7.564,6.66-13.154,6.66-13.154s-83.883-68.676-92.39-74.271
				c-5.797-3.813-67.573-58.579-96.45-91.967c-14.323-16.562-32.065-10.135-52.365-4.311l-16.717,4.796
				c-20.185,5.791-25.435,34.023-8.873,47.742c46.646,38.636,124.242,82.094,138.76,91.226
				c36.044,22.674,106.595,49.615,106.595,49.615S831.299,1032.276,837.519,1025.781z"/>
		</g>
		<path style="fill:#233862;" d="M935.69,1447.013c0,0,20.356,15.252,51.549,7.192c0,0,25.15-5.73,30.666,6.813
			c0,0-38.571,19.595-48.332,24.953c-7.356,4.039-15.032,10.414-20.459,15.342c-4.295,3.901-10.985,3.372-14.646-1.13
			c-1.697-2.087-3.639-4.571-5.767-7.454c-5.946-8.059-19.805-34.092-19.805-34.092L935.69,1447.013z"/>
		<path style="fill:#2B478B;" d="M945.195,1439.969c0,0-12.396,28.582-41.01,23.328c0,0-58.388-48.219-98.438-98.31
			c-13.007-16.269-24.082-32.734-30.59-47.803c-26.559-61.49-98.241-153.202-143.817-199.684l114.028-41.251
			c0,0,36.523,73.472,85.119,163.719C865.511,1304.991,906.791,1378.728,945.195,1439.969z"/>
		<path style="fill:#233862;" d="M830.488,1239.969l-24.74,125.019c-13.007-16.269-24.082-32.734-30.59-47.803
			c-26.559-61.49-98.241-153.202-143.817-199.684l114.028-41.251C745.369,1076.25,781.893,1149.722,830.488,1239.969z"/>
		<path style="fill:#233862;" d="M736.984,1463.227c0,0-1.243,22.807,26.405,25.849c0,0,15.8,0.084,15.845,14.6l-80.357,0.255
			c0,0-2.333-5.856-2.9-18.396c-0.434-9.631,9.335-34.809,9.335-34.809L736.984,1463.227z"/>
		<path style="fill:#2B478B;" d="M707.968,1076.25c0,0,50.798,55.818,83.044,156.381c17.544,54.713-32.156,192.274-41.846,240.069
			c0,0-33.341,2.83-56.138-5.983c0,0-1.732-98.718,11.601-174.804c7.461-42.582-66.885-91.069-99.371-168.011
			c-22.1-52.344,4.786-51.455,37.827-52.712L707.968,1076.25z"/>
		<path style="fill:#FFB07B;" d="M649.327,827.222c-28.263,15.959-86.122,1.241-86.122,1.241s23.497-26.863,12.82-70.126
			l22.19,11.269l23.837,12.106c0,0,1.54,7.641,2.612,21.364c0.273,3.534,0.517,7.481,0.686,11.795
			C639.862,819.271,649.327,827.222,649.327,827.222z"/>
		<path style="fill:#2A4E96;" d="M752.962,1073.366c0,4.968-5.722,7.346-6.938,7.587c-11.398,2.084-43.228,14.465-71.9,17.305
			c-24.143,2.528-46.559,0.127-71.185-4.817c-3.261-0.656-10.916-2.718-11.46-5.843c-0.68-3.413-94.987-192.256-21.674-273.374
			c1.722-1.902,16.193,1.524,29.428,4.665c12.222,2.899,23.433,1.283,33.444-2.732l12.411,6.53
			c15.241,8.493,44.081,38.668,47.455,62.344c1.714,12.041,8.6,20.957,10.592,31.549c0.74,3.919,1.496,7.746,2.266,11.475
			c1.502,7.315,3.051,14.276,4.643,20.897c4.312,17.907,8.863,33.323,13.333,46.641c4.756,14.141,9.421,25.902,13.588,35.738
			c5.405,12.76,9.974,22.295,12.827,29.596C751.808,1066.066,752.962,1070.098,752.962,1073.366z"/>
		<path style="fill:#1E3D70;" d="M749.792,1060.926C616.665,998.204,570.56,877.767,570.56,877.767s108.162,39.899,134.842,50.287
			c1.502,7.315,3.051,14.276,4.643,20.897c4.312,17.907,8.863,33.323,13.333,46.641c4.756,14.141,9.421,25.902,13.588,35.738
			C742.37,1044.09,746.938,1053.625,749.792,1060.926z"/>
		<path style="fill:#4A75CB;" d="M1125.828,927.533l-28.515-90.422c-2.77-8.781-11.856-12.938-19.792-10.705l0,0l-0.022,0.006
			c-0.422,0.12-0.839,0.264-1.253,0.419l-9.999,3.34c0,0-15.652,16.121-26.892,19.372c-34.537,9.993-67.318-8.415-79.92-42.088
			c-14.016-37.454,2.245-78.582,39.894-90.455c12.882-4.063,38.233,3.508,38.233,3.508l10.177-3.382
			c5.526-1.681,9.323-7.645,7.349-13.905l-31.387-99.524c-4.29-13.604-18.795-21.154-32.398-16.863l-92.675,29.226
			c-8.577,2.705-16.996-4.559-15.581-13.438c1.636-10.268,0.975-21.064-2.365-31.654c-13.134-41.645-61.982-62.126-102.156-38.34
			c-20.227,11.976-35.134,41.393-32.946,64.798c1.616,17.284,8.943,31.975,19.658,42.87c6.126,6.229,3.456,16.743-4.876,19.37
			l-93.251,29.408c-13.598,4.289-21.144,18.788-16.855,32.385l102.421,324.769c4.189,13.284,18.356,20.658,31.641,16.469
			l324.413-102.31C1122.523,956.035,1130.179,941.327,1125.828,927.533z"/>
		<path style="fill:#699DEE;" d="M735.71,600.714c1.616,17.284,8.943,31.975,19.659,42.87c6.125,6.229,3.455,16.741-4.877,19.369
			l-93.25,29.408c-13.598,4.288-21.145,18.788-16.857,32.386l102.421,324.769c4.19,13.285,18.356,20.657,31.641,16.469
			l324.413-102.311c13.795-4.35,21.449-19.058,17.1-32.852l-28.517-90.421c-3.688-11.698-18.586-15.191-27.04-6.305
			c-8.167,8.582-18.662,15.191-30.917,18.737c-34.536,9.992-71.409-8.482-84.011-42.154c-14.016-37.454,6.336-78.518,43.985-90.391
			c14.163-4.466,28.691-4.145,41.839,0.057c8.544,2.73,16.617-5.281,13.92-13.836l-31.388-99.525
			c-4.289-13.603-18.795-21.151-32.397-16.862l-92.676,29.228c-8.576,2.704-16.996-4.559-15.581-13.439
			c1.636-10.27,0.975-21.064-2.366-31.655c-13.134-41.646-61.98-62.126-102.154-38.34C748.43,547.892,733.522,577.31,735.71,600.714
			z"/>
		<g>
			<path style="fill:#FFB07B;" d="M827.681,1024.578l11.504,4.218c0,0,23.038-16.29,37.38,10.204c0,0,5.188,11.572-3.023,14.085
				c-8.213,2.514-5.227,0.147-16.77,3.992c-11.543,3.844-22.914,1.075-27.274-7.171l-7.818-5.736L827.681,1024.578z"/>
			<path style="fill:#2A4E96;" d="M837.148,1040.846c4.254-11.098,6.196-16.123,6.196-16.123s-86.927-70.854-95.783-76.932
				c-6.036-4.141-66.122-49.055-95.417-84.058c-14.531-17.362-37.443-25.3-59.603-20.653l-18.247,3.827
				c-22.034,4.621-29.193,32.51-12.101,47.162c48.139,41.269,129.33,89.134,144.468,99.089
				c37.581,24.715,120.704,59.347,120.704,59.347S833.809,1049.563,837.148,1040.846z"/>
		</g>
		<path style="fill:#EA8E50;" d="M624.665,803.076c-27.792,1.561-45.866-21.387-45.866-21.387s12.565-6.961,19.417-12.083
			l23.837,12.106C622.053,781.712,623.593,789.352,624.665,803.076z"/>
		<path style="fill:#FFB07B;" d="M636.506,774.541c0,0-42.111,30.221-60.527,3.706c-18.415-26.515-36.254-40.471-10.145-60.887
			c26.109-20.415,38.416-13.966,46.715-6.611C620.848,718.104,646.985,765.997,636.506,774.541z"/>
		<path style="fill:#233862;" d="M616.997,686.804c-1.51-10.192-4.907-17.364-4.907-17.364s-2.643,10.947-22.648,9.436
			c-20.006-1.509-51.714,1.968-62.283,24.765c-0.673,1.451-1.273,2.945-1.805,4.473c-1.913-5.055-2.374-12.628-2.374-12.628
			c-3.802,9.813,0,22.091,0,22.091h0.001c-0.057,0.356-0.104,0.716-0.156,1.075c-4.414,3.732-8.123,15.336-8.123,15.336
			c1.333-3.234,4.582-5.348,7.479-6.648c-0.09,17.739,7.104,35.081,19.73,40.244c18.465,7.549,18.317,1.79,36.888,14.107
			c0,0,4.981-6.18,1.584-10.332c-3.398-4.152-16.231-10.191-9.06-16.231c7.172-6.039,9.813,0.755,12.456-3.397
			c2.643-4.152-10.568-16.231,6.417-27.555C607.183,712.85,618.507,696.995,616.997,686.804z"/>
	</g>
	<path style="fill:#82B378;" d="M1701.059,1504.087c0,0-21.294-31.476-54.623-28.939c-10.128,0.771-26.588,3.239-45.705,5.869
		c-14.42-50.314-54.164-169.921-107.767-176.653c-54.745-6.877,52.386,126.139,96.194,178.215
		c-7.989,1.051-16.286,2.08-24.662,2.989c-23.193-24.766-63.612-61.455-97.363-58.636c-33.835,2.827,29.512,37.808,75.232,60.691
		c-28.054,2.1-54.652,1.868-70.909-4.416c-39.81-15.392-76.396,20.88-76.396,20.88H1701.059z"/>
	<path style="fill:#2E3552;" d="M2772.078,1510.76H202.922c-1.605,0-2.918-1.313-2.918-2.918v-0.995
		c0-1.604,1.313-2.917,2.918-2.917h2569.156c1.604,0,2.917,1.313,2.917,2.917v0.995
		C2774.995,1509.447,2773.682,1510.76,2772.078,1510.76z"/>
</g>
</svg>
