<?xml version="1.0" encoding="utf-8"?>
<!-- Generator: Adobe Illustrator 27.5.0, SVG Export Plug-In . SVG Version: 6.00 Build 0)  -->
<svg version="1.1" xmlns="http://www.w3.org/2000/svg" xmlns:xlink="http://www.w3.org/1999/xlink" x="0px" y="0px"
	 viewBox="0 0 3710 3710" style="enable-background:new 0 0 3710 3710;" xml:space="preserve">
<g id="Background">
	<g>
		<g>
			<rect style="fill:#FFFFFF;" width="3710" height="3710"/>
		</g>
	</g>
</g>
<g id="Illustration">
	<g>
		<path style="fill:#F4F7FA;" d="M3221.442,1650.966c-76.318-499.541-389.224-1113.263-1007.405-1177.489
			c0,0-469.351-57.09-932.029,29.435c-274.599,51.352-515.383,204.217-667.741,423.922
			C461.909,1146.54,411.016,1414.44,472.781,1669.85c40.116,165.891,67.224,337.582,59.784,508.045
			c-12.948,296.675-5.498,573.599,282.418,750.527c257.076,157.978,580.61,297.308,889.266,321.712
			c209.76,16.585,444.993-10.253,647.163-64.864C3381.711,2906.954,3297.76,2150.507,3221.442,1650.966z"/>
		<g>
			<g>
				<linearGradient id="SVGID_1_" gradientUnits="userSpaceOnUse" x1="813.368" y1="1544.8842" x2="863.6186" y2="661.9047">
					<stop  offset="0" style="stop-color:#FFC444"/>
					<stop  offset="0.9964" style="stop-color:#F36F56"/>
				</linearGradient>
				<polygon style="fill:url(#SVGID_1_);" points="852.112,644.432 880.812,591.023 897.781,649.232 936.958,602.957 
					941.453,663.422 989.395,626.303 981.221,686.381 1035.832,660.042 1015.346,717.108 1074.24,702.698 1042.337,754.258 
					1102.94,752.408 1061.014,796.207 1120.678,806.998 1070.561,841.124 1126.677,864.083 1070.561,887.043 1120.678,921.169 
					1061.014,931.96 1102.94,975.759 1042.337,973.909 1074.24,1025.469 1015.346,1011.059 1035.832,1068.125 981.221,1041.786 
					989.395,1101.864 941.453,1064.746 936.958,1125.21 897.781,1078.936 880.812,1137.144 852.112,1083.735 823.413,1137.144 
					806.444,1078.936 767.267,1125.21 762.772,1064.746 714.83,1101.864 723.004,1041.786 668.393,1068.125 688.879,1011.059 
					629.985,1025.469 661.888,973.909 601.285,975.759 643.211,931.96 583.547,921.169 633.664,887.043 577.548,864.083 
					633.664,841.124 583.547,806.998 643.211,796.207 601.285,752.408 661.888,754.258 629.985,702.698 688.879,717.108 
					668.393,660.042 723.004,686.381 714.83,626.303 762.772,663.422 767.267,602.957 806.444,649.232 823.413,591.023 				"/>
				
					<linearGradient id="SVGID_00000125580792199353853980000003864486825641870776_" gradientUnits="userSpaceOnUse" x1="831.175" y1="1493.8895" x2="877.6143" y2="677.8806" gradientTransform="matrix(1 0.0056 -0.0056 1 -10.0259 -5.4965)">
					<stop  offset="0" style="stop-color:#FFC444"/>
					<stop  offset="0.9964" style="stop-color:#F36F56"/>
				</linearGradient>
				<polygon style="fill:url(#SVGID_00000125580792199353853980000003864486825641870776_);" points="1050.963,905.854 
					1104.771,890.028 1055.302,863.597 1104.644,836.93 1050.761,821.363 1093.48,785.019 1037.538,780.995 1071.768,736.564 
					1016.211,744.259 1040.455,693.682 987.711,712.759 1000.911,658.247 953.286,687.873 954.863,631.808 914.439,670.689 
					904.325,615.521 872.868,661.957 851.505,610.097 830.39,662.058 798.711,615.774 788.862,670.989 748.252,632.302 
					750.097,688.36 702.332,658.961 715.791,713.41 662.957,694.585 687.443,745.045 631.85,737.617 666.292,781.883 
					610.37,786.175 653.263,822.314 599.454,838.139 648.924,864.57 599.581,891.237 653.464,906.805 610.745,943.148 
					666.688,947.172 632.458,991.603 688.015,983.909 663.771,1034.485 716.514,1015.408 703.315,1069.92 750.939,1040.294 
					749.362,1096.359 789.786,1057.478 799.9,1112.646 831.357,1066.21 852.72,1118.07 873.835,1066.109 905.514,1112.394 
					915.364,1057.178 955.973,1095.865 954.128,1039.808 1001.894,1069.206 988.434,1014.757 1041.268,1033.582 1016.782,983.122 
					1072.375,990.551 1037.933,946.284 1093.856,941.992 				"/>
			</g>
			<g>
				
					<linearGradient id="SVGID_00000018234159449470877740000006368488465311559048_" gradientUnits="userSpaceOnUse" x1="998.3632" y1="505.0981" x2="682.4724" y2="1280.4681">
					<stop  offset="0" style="stop-color:#FCB148"/>
					<stop  offset="0.0521" style="stop-color:#FDBA46"/>
					<stop  offset="0.1424" style="stop-color:#FFC244"/>
					<stop  offset="0.3183" style="stop-color:#FFC444"/>
					<stop  offset="0.4849" style="stop-color:#FDB946"/>
					<stop  offset="0.7754" style="stop-color:#F99C4D"/>
					<stop  offset="0.8658" style="stop-color:#F8924F"/>
					<stop  offset="1" style="stop-color:#F8924F"/>
				</linearGradient>
				<path style="fill:url(#SVGID_00000018234159449470877740000006368488465311559048_);" d="M1071.051,864.083
					c0,112.012-84.135,204.389-192.653,217.371c-8.614,1.041-17.384,1.567-26.286,1.567c-120.913,0-218.938-98.025-218.938-218.938
					c0-55.073,20.328-105.395,53.9-143.861c40.141-46.003,99.197-75.077,165.038-75.077
					C973.026,645.145,1071.051,743.17,1071.051,864.083z"/>
				
					<linearGradient id="SVGID_00000031907762437650543840000015656065971492392602_" gradientUnits="userSpaceOnUse" x1="633.1741" y1="901.6221" x2="958.5368" y2="901.6221">
					<stop  offset="0" style="stop-color:#FCB148"/>
					<stop  offset="0.0521" style="stop-color:#FDBA46"/>
					<stop  offset="0.1424" style="stop-color:#FFC244"/>
					<stop  offset="0.3183" style="stop-color:#FFC444"/>
					<stop  offset="0.4849" style="stop-color:#FDB946"/>
					<stop  offset="0.7754" style="stop-color:#F99C4D"/>
					<stop  offset="0.8658" style="stop-color:#F8924F"/>
					<stop  offset="1" style="stop-color:#F8924F"/>
				</linearGradient>
				<path style="opacity:0.2;fill:url(#SVGID_00000031907762437650543840000015656065971492392602_);" d="M952.578,993.192
					c-11.079,30.868-37.113,61.21-74.18,88.262c-8.614,1.041-17.384,1.567-26.286,1.567c-120.913,0-218.938-98.025-218.938-218.938
					c0-55.073,20.328-105.395,53.9-143.861c1.734,15.937,9.906,33.692,29.696,51.938c20.244,18.629,52.656,37.784,102.811,55.97
					C939.274,871.549,974.043,933.334,952.578,993.192z"/>
				
					<ellipse transform="matrix(0.7071 -0.7071 0.7071 0.7071 -361.4213 855.6188)" style="opacity:0.3;fill:#FFFFFF;" cx="852.113" cy="864.083" rx="163.586" ry="163.586"/>
			</g>
		</g>
		<g>
			
				<linearGradient id="SVGID_00000065037677958046228500000000823356262268832921_" gradientUnits="userSpaceOnUse" x1="1659.5111" y1="2988.7249" x2="1467.1727" y2="3069.5068">
				<stop  offset="0" style="stop-color:#40447E"/>
				<stop  offset="0.9964" style="stop-color:#3C3B6B"/>
			</linearGradient>
			<path style="fill:url(#SVGID_00000065037677958046228500000000823356262268832921_);" d="M3240.904,2883.274l-2737.753-24.063
				v71.199c0,19.325,11.941,35.757,28.113,38.685l774.155,140.204c9.188,1.664,18.504,2.105,27.775,1.316l1877.959-159.855
				c16.766-1.427,29.751-17.91,29.751-37.765V2883.274z"/>
			<g>
				
					<linearGradient id="SVGID_00000119077043498305417650000009383614462205198778_" gradientUnits="userSpaceOnUse" x1="1346.5648" y1="2133.6663" x2="1147.1417" y2="2217.4241">
					<stop  offset="0" style="stop-color:#40447E"/>
					<stop  offset="0.9964" style="stop-color:#3C3B6B"/>
				</linearGradient>
				<path style="fill:url(#SVGID_00000119077043498305417650000009383614462205198778_);" d="M2247.384,2767.857l-1715.922,130.25
					c-30.705,2.331-55.671-22.435-55.671-55.323V1525.187c0-32.887,24.966-59.548,55.671-59.548h1715.922
					c25.297,0,45.75,24.101,45.75,53.831v1191.085C2293.133,2740.283,2272.68,2765.937,2247.384,2767.857z"/>
				
					<linearGradient id="SVGID_00000088855380496755748150000010189443837480427148_" gradientUnits="userSpaceOnUse" x1="503.1507" y1="2181.9487" x2="2320.4939" y2="2181.9487">
					<stop  offset="0" style="stop-color:#40447E"/>
					<stop  offset="0.9964" style="stop-color:#3C3B6B"/>
				</linearGradient>
				<path style="fill:url(#SVGID_00000088855380496755748150000010189443837480427148_);" d="M2274.744,2767.857l-1715.922,130.25
					c-30.706,2.331-55.671-22.435-55.671-55.323V1525.187c0-32.887,24.965-59.548,55.671-59.548h1715.922
					c25.297,0,45.75,24.101,45.75,53.831v1191.085C2320.494,2740.283,2300.041,2765.937,2274.744,2767.857z"/>
				<path style="fill:#FFFFFF;" d="M2221.288,2683.884l-1598.202,113.14c-24.987,1.769-45.293-18.558-45.293-45.406V1598.057
					c0-26.848,20.306-48.704,45.293-48.815l1598.202-7.104c20.868-0.093,37.748,19.656,37.748,44.11v1050.686
					C2259.036,2661.387,2242.156,2682.407,2221.288,2683.884z"/>
				<path style="fill:#FFFFFF;" d="M1477.385,1501.678c0,12.242-8.832,22.196-19.738,22.232
					c-10.92,0.036-19.781-9.882-19.781-22.153c0-12.27,8.862-22.224,19.781-22.233
					C1468.553,1479.516,1477.385,1489.434,1477.385,1501.678z"/>
				<path style="opacity:0.2;fill:#B7C0CE;" d="M1861.32,2406.485c-132.282-76.449-236.295,20.421-336.675-75.157
					c-60.857-57.946-30.979-101.156-105.862-187.749c-82.939-95.908-136.937-63.669-220.288-149.987
					c-105.393-109.144-52.681-194.06-143.465-272.422c-110.132-95.064-228.904-7.076-333.743-98.246
					c-45.218-39.322-70.028-96.489-82.983-157.286H535.724c-17.975,0-32.573,15.649-32.573,34.953v1365.805
					c0,19.304,14.597,33.841,32.573,32.47l1748.806-133.335c8.582-0.654,16.192-6.036,21.076-13.839
					c-128.018-5.011-206.665-51.108-256.939-98.761C1950.318,2559.708,1967.376,2467.777,1861.32,2406.485z"/>
			</g>
			
				<linearGradient id="SVGID_00000126287867058735457610000006394265991251346876_" gradientUnits="userSpaceOnUse" x1="503.1507" y1="2903.8052" x2="3240.9036" y2="2903.8052">
				<stop  offset="0" style="stop-color:#40447E"/>
				<stop  offset="0.9964" style="stop-color:#3C3B6B"/>
			</linearGradient>
			<path style="fill:url(#SVGID_00000126287867058735457610000006394265991251346876_);" d="M2343.136,2761.95L503.151,2899.051
				l802.268,145.295c9.188,1.664,18.504,2.106,27.775,1.316l1907.71-162.388l-868.499-120.393
				C2362.692,2761.535,2352.896,2761.223,2343.136,2761.95z"/>
			
				<linearGradient id="SVGID_00000029728286137615284270000002089692540434046350_" gradientUnits="userSpaceOnUse" x1="771.6333" y1="2881.167" x2="2777.5676" y2="2881.167">
				<stop  offset="0" style="stop-color:#40447E"/>
				<stop  offset="0.9964" style="stop-color:#3C3B6B"/>
			</linearGradient>
			<polygon style="opacity:0.3;fill:url(#SVGID_00000029728286137615284270000002089692540434046350_);" points="771.633,2902.499 
				2303.476,2786.657 2777.568,2851.847 1258.921,2975.677 			"/>
			<g>
				<polygon style="fill:#D8DEE8;" points="903.864,1639.824 727.876,1640.438 727.876,1583.486 903.864,1583.486 				"/>
				<polygon style="fill:#D8DEE8;" points="1825.967,1636.604 1015.651,1639.433 1015.651,1583.486 1825.967,1583.486 				"/>
				<polygon style="fill:#D8DEE8;" points="1185.517,1733.396 1015.651,1735.002 1015.651,1679.054 1185.517,1678.041 				"/>
				<polygon style="fill:#D8DEE8;" points="2076.6,1724.97 1293.448,1732.375 1293.448,1677.397 2076.6,1672.726 				"/>
				<polygon style="fill:#D8DEE8;" points="1185.517,1827.951 1015.651,1830.57 1015.651,1774.622 1185.517,1772.596 				"/>
				<polygon style="fill:#D8DEE8;" points="2076.6,1814.211 1293.448,1826.286 1293.448,1771.308 2076.6,1761.967 				"/>
				<polygon style="fill:#D8DEE8;" points="903.864,1928.528 727.876,1932.292 727.876,1875.339 903.864,1872.19 				"/>
				<polygon style="fill:#D8DEE8;" points="1825.967,1908.811 1015.651,1926.138 1015.651,1870.19 1825.967,1855.692 				"/>
				<polygon style="fill:#D8DEE8;" points="1185.517,2017.061 1015.651,2021.706 1015.651,1965.758 1185.517,1961.706 				"/>
				<polygon style="fill:#D8DEE8;" points="2076.6,1992.693 1293.448,2014.109 1293.448,1959.131 2076.6,1940.449 				"/>
				<polygon style="fill:#D8DEE8;" points="1185.517,2111.616 1015.651,2117.274 1015.651,2061.326 1185.517,2056.261 				"/>
				<polygon style="fill:#D8DEE8;" points="2076.6,2081.934 1293.448,2108.021 1293.448,2053.042 2076.6,2029.69 				"/>
				<polygon style="fill:#D8DEE8;" points="1185.517,2206.171 1015.651,2212.842 1015.651,2156.894 1185.517,2150.816 				"/>
				<polygon style="fill:#D8DEE8;" points="2076.6,2171.175 1293.448,2201.932 1293.448,2146.954 2076.6,2118.931 				"/>
				<polygon style="fill:#D8DEE8;" points="1460.049,2288.307 1296.045,2295.726 1296.045,2240.757 1460.049,2233.91 				"/>
				<polygon style="fill:#D8DEE8;" points="2196.189,2255.005 1564.287,2283.591 1564.287,2229.559 2196.189,2203.179 				"/>
				<polygon style="fill:#D8DEE8;" points="903.864,2409.702 727.876,2418.713 727.876,2361.76 903.864,2353.364 				"/>
				<polygon style="fill:#D8DEE8;" points="1825.967,2362.489 1015.651,2403.979 1015.651,2348.031 1825.967,2309.37 				"/>
				<polygon style="fill:#D8DEE8;" points="1185.517,2489.836 1015.651,2499.547 1015.651,2443.599 1185.517,2434.481 				"/>
				<polygon style="fill:#D8DEE8;" points="2076.6,2438.897 1293.448,2483.666 1293.448,2428.688 2076.6,2386.653 				"/>
				<polygon style="fill:#D8DEE8;" points="1185.517,2584.391 1015.651,2595.115 1015.651,2539.167 1185.517,2529.036 				"/>
				<polygon style="fill:#D8DEE8;" points="2076.6,2528.138 1293.448,2577.578 1293.448,2522.6 2076.6,2475.894 				"/>
				<polygon style="fill:#D8DEE8;" points="903.864,2698.406 727.876,2710.566 727.876,2653.614 903.864,2642.068 				"/>
				<polygon style="fill:#D8DEE8;" points="1825.967,2634.696 1015.651,2690.683 1015.651,2634.735 1825.967,2581.577 				"/>
			</g>
		</g>
		<g>
			
				<linearGradient id="SVGID_00000054264653429134582800000002094366465383923630_" gradientUnits="userSpaceOnUse" x1="2303.0125" y1="541.7468" x2="768.5316" y2="3610.7019">
				<stop  offset="0.0036" style="stop-color:#E38DDD"/>
				<stop  offset="1" style="stop-color:#9571F6"/>
			</linearGradient>
			<path style="fill:url(#SVGID_00000054264653429134582800000002094366465383923630_);" d="M2488.599,901.567L1072.707,855.04
				c-47.479-1.56-86.131,35.894-86.131,83.663v1379.996c0,47.769,38.652,84.843,86.131,82.816l1415.893-60.459
				c40.953-1.749,74.024-38.916,74.024-83.021V983.861C2562.624,939.755,2529.553,902.913,2488.599,901.567z"/>
			<path style="opacity:0.74;fill:#FFFFFF;" d="M1072.708,2374.012c-32.295,1.335-58.551-23.903-58.551-56.376V939.493
				c0-32.473,26.255-57.969,58.55-56.951L2488.6,927.167c27.896,0.879,50.451,25.959,50.451,56.019v1275.755
				c0,30.06-22.554,55.361-50.451,56.515L1072.708,2374.012z"/>
			
				<linearGradient id="SVGID_00000137811031619494004740000009949576815857123248_" gradientUnits="userSpaceOnUse" x1="1639.3457" y1="445.9034" x2="1905.9672" y2="1512.3923">
				<stop  offset="0.0036" style="stop-color:#E38DDD"/>
				<stop  offset="1" style="stop-color:#9571F6"/>
			</linearGradient>
			<path style="fill:url(#SVGID_00000137811031619494004740000009949576815857123248_);" d="M2488.6,901.567L1072.708,855.04
				c-47.479-1.56-86.132,35.894-86.132,83.663v62.045l1576.049,40.4v-57.288C2562.625,939.755,2529.555,902.913,2488.6,901.567z"/>
			<path style="fill:#FFFFFF;" d="M1139.718,934.774c0,15.518-12.494,27.751-27.926,27.324
				c-15.456-0.428-28.003-13.389-28.003-28.949c0-15.56,12.547-27.792,28.003-27.322
				C1127.225,906.296,1139.718,919.256,1139.718,934.774z"/>
			<path style="fill:#FFFFFF;" d="M1237.198,937.606c0,15.444-12.374,27.62-27.66,27.197c-15.308-0.424-27.735-13.321-27.735-28.807
				s12.427-27.661,27.735-27.195C1224.824,909.267,1237.198,922.163,1237.198,937.606z"/>
			<path style="fill:#FFFFFF;" d="M1333.75,940.412c0,15.37-12.257,27.491-27.397,27.072c-15.163-0.42-27.471-13.254-27.471-28.666
				c0-15.412,12.308-27.531,27.471-27.069C1321.493,912.209,1333.75,925.042,1333.75,940.412z"/>
			<g>
				<polygon style="fill:#FFFFFF;" points="1834.838,1173.416 1086.974,1159.974 1086.974,1203.946 1834.838,1215.781 				"/>
				<polygon style="fill:#FFFFFF;" points="2397.101,1183.522 2397.101,1224.678 2476.224,1225.93 2476.224,1184.944 				"/>
			</g>
			<g>
				<polygon style="fill:#FFFFFF;" points="1245.082,1311.508 1086.974,1309.824 1086.974,1264.48 1245.082,1266.514 				"/>
				<polygon style="fill:#FFFFFF;" points="2089.739,1320.501 1346.019,1312.582 1346.019,1267.813 2089.739,1277.38 				"/>
				<polygon style="fill:#FFFFFF;" points="1500.162,1390.114 1346.019,1389.057 1346.019,1344.287 1500.162,1345.686 				"/>
				<polygon style="fill:#FFFFFF;" points="2324.151,1395.767 1598.584,1390.79 1598.584,1346.579 2324.151,1353.166 				"/>
				<polygon style="fill:#FFFFFF;" points="1500.162,1466.005 1346.019,1465.531 1346.019,1420.761 1500.162,1421.577 				"/>
				<polygon style="fill:#FFFFFF;" points="2324.151,1468.537 1598.584,1466.307 1598.584,1422.097 2324.151,1425.936 				"/>
				<polygon style="fill:#FFFFFF;" points="1245.082,1542.078 1086.974,1542.191 1086.974,1496.846 1245.082,1497.084 				"/>
				<polygon style="fill:#FFFFFF;" points="2089.739,1541.475 1346.019,1542.006 1346.019,1497.236 2089.739,1498.354 				"/>
				<polygon style="fill:#FFFFFF;" points="1500.162,1617.786 1346.019,1618.48 1346.019,1573.71 1500.162,1573.358 				"/>
				<polygon style="fill:#FFFFFF;" points="2324.151,1614.077 1598.584,1617.343 1598.584,1573.133 2324.151,1571.476 				"/>
				<polygon style="fill:#FFFFFF;" points="1500.162,1693.677 1346.019,1694.954 1346.019,1650.184 1500.162,1649.249 				"/>
				<polygon style="fill:#FFFFFF;" points="2324.151,1686.847 1598.584,1692.861 1598.584,1648.651 2324.151,1644.246 				"/>
				<polygon style="fill:#FFFFFF;" points="1500.162,1769.568 1346.019,1771.429 1346.019,1726.659 1500.162,1725.139 				"/>
				<polygon style="fill:#FFFFFF;" points="2324.151,1759.618 1598.584,1768.379 1598.584,1724.169 2324.151,1717.016 				"/>
				<polygon style="fill:#FFFFFF;" points="1751.247,1841.475 1600.957,1843.859 1600.957,1799.655 1751.247,1797.604 				"/>
				<polygon style="fill:#FFFFFF;" points="2436.744,1830.602 1847.224,1839.953 1847.224,1796.294 2436.744,1788.25 				"/>
				<polygon style="fill:#FFFFFF;" points="1245.082,1926.361 1086.974,1929.468 1086.974,1884.124 1245.082,1881.367 				"/>
				<polygon style="fill:#FFFFFF;" points="2089.739,1909.764 1346.019,1924.378 1346.019,1879.608 2089.739,1866.643 				"/>
				<polygon style="fill:#FFFFFF;" points="1500.162,1997.239 1346.019,2000.852 1346.019,1956.082 1500.162,1952.811 				"/>
				<polygon style="fill:#FFFFFF;" points="2324.151,1977.928 1598.584,1994.933 1598.584,1950.723 2324.151,1935.326 				"/>
				<polygon style="fill:#FFFFFF;" points="1500.162,2073.13 1346.019,2077.326 1346.019,2032.557 1500.162,2028.702 				"/>
				<polygon style="fill:#FFFFFF;" points="2324.151,2050.698 1598.584,2070.451 1598.584,2026.241 2324.151,2008.096 				"/>
				<polygon style="fill:#FFFFFF;" points="1245.082,2156.931 1086.974,2161.834 1086.974,2116.49 1245.082,2111.938 				"/>
				<polygon style="fill:#FFFFFF;" points="2089.739,2130.737 1346.019,2153.801 1346.019,2109.031 2089.739,2087.616 				"/>
				<polygon style="fill:#FFFFFF;" points="1500.162,2224.911 1346.019,2230.275 1346.019,2185.505 1500.162,2180.483 				"/>
				<polygon style="fill:#FFFFFF;" points="2324.151,2196.238 1598.584,2221.486 1598.584,2177.277 2324.151,2153.637 				"/>
			</g>
			<g style="opacity:0.5;">
				<path style="fill:#FFFFFF;" d="M1938.233,1432.079c-165.374-240.636-451.617-164.074-632.695-429.951
					c-32.657-47.949-54.816-96.74-70.014-141.737l-162.817-5.35c-47.48-1.56-86.132,35.894-86.132,83.664v1379.996
					c0,47.769,38.652,84.843,86.131,82.815l1364.037-58.245c-31.248-45.066-303.408-211.994-373.714-468.289
					C1998.734,1640.594,2038.009,1577.261,1938.233,1432.079z"/>
			</g>
		</g>
		<g>
			
				<linearGradient id="SVGID_00000011026309132485265290000012192306373867137213_" gradientUnits="userSpaceOnUse" x1="-1814.3729" y1="1493.9232" x2="-2144.5237" y2="3076.832" gradientTransform="matrix(1 0 0 1 3148.573 0)">
				<stop  offset="0" style="stop-color:#FF9085"/>
				<stop  offset="1" style="stop-color:#FB6FBB"/>
			</linearGradient>
			<path style="fill:url(#SVGID_00000011026309132485265290000012192306373867137213_);" d="M1407.895,1947.726
				c28.723-30.667-50.793-145.879-93.353-196.363c-37.181-44.103-75.396-89.435-122.324-83.696
				c-41.202,5.039-81.294,48.49-83.696,90.134C1102.06,1869.831,1367.061,1991.323,1407.895,1947.726z"/>
			
				<linearGradient id="SVGID_00000068674863303672047190000001728727708258569912_" gradientUnits="userSpaceOnUse" x1="4290.0024" y1="3060.3406" x2="4388.877" y2="3060.3406" gradientTransform="matrix(-0.9996 0.0289 0.0289 0.9996 5354.2485 -31.2392)">
				<stop  offset="0" style="stop-color:#444B8C"/>
				<stop  offset="0.9964" style="stop-color:#26264F"/>
			</linearGradient>
			<path style="fill:url(#SVGID_00000068674863303672047190000001728727708258569912_);" d="M1063.021,3131.631
				c-5.407,4.395-6.401,15.37-7.05,22.545c-0.292,3.205-0.436,4.808-0.078,5.939c2.612,8.257,18.626,9.125,43.736,11.691
				c39.682,4.054,51.491,7.177,54.597,1.272c2.911-5.534-4.133-14.595-4.926-15.594c-4.264-5.371-9.497-7.325-19.615-10.655
				c-18.722-6.162-31.371-9.537-35.201-10.558C1070.568,3129.887,1066.573,3128.746,1063.021,3131.631z"/>
			<path style="fill:#D8DEE8;" d="M1086.62,3095.379l3.971,45.22c-1.127,2.184-14.568,8.733-25.244,3.116l-10.203-44.449
				L1086.62,3095.379z"/>
			
				<linearGradient id="SVGID_00000011030236846966300900000001835157876484048537_" gradientUnits="userSpaceOnUse" x1="4638.0957" y1="2285.833" x2="4743.1436" y2="2285.833" gradientTransform="matrix(-0.9642 0.2651 0.2651 0.9642 5341.4233 -308.9189)">
				<stop  offset="0" style="stop-color:#444B8C"/>
				<stop  offset="0.9964" style="stop-color:#26264F"/>
			</linearGradient>
			<path style="fill:url(#SVGID_00000011030236846966300900000001835157876484048537_);" d="M1377.728,3125.82
				c-6.48,7.156-7.957,20.334-2.322,26.826c5.539,6.383,13.868,1.596,37.489,2.301c25.303,0.757,31.91,6.732,49.104,1.988
				c6.946-1.92,19.215-6.577,18.982-11.538c-0.164-3.489-6.41-5.29-27.271-12.279c-29.612-9.919-29.481-10.461-35.77-11.503
				C1402.146,3118.999,1386.287,3116.371,1377.728,3125.82z"/>
			<path style="fill:#D8DEE8;" d="M1393.94,3084.552l12.691,42.214c-0.959,2.265-13.861,9.818-24.933,5.033l-18.848-40.973
				L1393.94,3084.552z"/>
			
				<linearGradient id="SVGID_00000043436253747318973290000015942265366838258367_" gradientUnits="userSpaceOnUse" x1="-1707.7316" y1="2953.6572" x2="-1987.9135" y2="2322.0603" gradientTransform="matrix(1 0 0 1 3148.573 0)">
				<stop  offset="0" style="stop-color:#AA80F9"/>
				<stop  offset="0.9964" style="stop-color:#6165D7"/>
			</linearGradient>
			<path style="fill:url(#SVGID_00000043436253747318973290000015942265366838258367_);" d="M1281.18,2159.988
				c1.818,141.873,11.499,301.392,34.729,474.701c22.958,171.289,55.132,326.056,90.229,462.152
				c-16.192,4.356-32.384,8.712-48.575,13.069c-41.079-38.304-92.9-98.601-117.905-183.811
				c-15.519-52.886-10.347-80.063-20.191-145.111c-15.674-103.572-47.423-157.835-80.237-241.356
				c-29.488-75.051-64.343-185.197-83.032-332.426C1131.192,2191.467,1206.187,2175.727,1281.18,2159.988z"/>
			
				<linearGradient id="SVGID_00000146479764993499291830000014958529521765928320_" gradientUnits="userSpaceOnUse" x1="-2265.9761" y1="2617.5049" x2="-2546.1531" y2="1985.9192" gradientTransform="matrix(0.9925 -0.1225 0.1225 0.9925 3231.5779 108.1241)">
				<stop  offset="0" style="stop-color:#AA80F9"/>
				<stop  offset="0.9964" style="stop-color:#6165D7"/>
			</linearGradient>
			<path style="fill:url(#SVGID_00000146479764993499291830000014958529521765928320_);" d="M1135.022,2146.45
				c-9.91,180.439-18.061,364.235-24.238,551.288c-4.636,140.364-8.04,278.948-10.302,415.708
				c-16.539,2.042-33.079,4.085-49.62,6.126c-15.982-29.755-37.209-75.247-51.75-133.554
				c-17.661-70.815-13.572-112.87-21.317-186.265c-8.69-82.318-21.313-100.252-43.674-204.095
				c-45.385-210.746-68.078-316.12-17.451-381.668C933.104,2192.71,984.625,2139.331,1135.022,2146.45z"/>
			
				<linearGradient id="SVGID_00000172406819537050721840000002762742603108310148_" gradientUnits="userSpaceOnUse" x1="-1928.6884" y1="1470.08" x2="-2258.8384" y2="3052.9854" gradientTransform="matrix(1 0 0 1 3148.573 0)">
				<stop  offset="0" style="stop-color:#FF9085"/>
				<stop  offset="1" style="stop-color:#FB6FBB"/>
			</linearGradient>
			<path style="fill:url(#SVGID_00000172406819537050721840000002762742603108310148_);" d="M893.97,1692.959
				c38.734-10.892,95.502-23.63,165.024-27.56c99.157-5.605,148.737-8.407,183.87,15.206
				c81.145,54.538,18.323,180.412,51.538,492.442c4.744,44.56,5.808,89.437,9.242,134.117c5.688,73.977,6.984,77.993,1.836,85.49
				c-32.279,47.008-152.706-23.896-329.217,4.132c-98.761,15.682-143.553,51.811-170.61,25.752
				c-31.554-30.389-4.487-112.127,18.811-182.491c26.744-80.767,43.266-81.807,58.446-142.634
				c15.867-63.578,6.27-96.313,3.799-196.571C885.528,1852.87,885.779,1781.477,893.97,1692.959z"/>
			<g style="opacity:0.3;">
				
					<linearGradient id="SVGID_00000070085851498597542070000016298585609357504687_" gradientUnits="userSpaceOnUse" x1="-2212.615" y1="2823.8384" x2="-2087.3157" y2="2228.6682" gradientTransform="matrix(1 0 0 1 3148.573 0)">
					<stop  offset="0" style="stop-color:#FF9085"/>
					<stop  offset="1" style="stop-color:#FB6FBB"/>
				</linearGradient>
				<path style="fill:url(#SVGID_00000070085851498597542070000016298585609357504687_);" d="M1133.997,2278.753
					c-46.134-3.61-76.063,22.472-115.886,2.146c-54.608-27.873-72.154-114.596-68.674-175.975
					c5.288-93.258,58.539-117.84,49.359-178.122c-4.964-32.6-28.239-75.881-111.806-120.1c-1.114,37.216-0.902,68.938-0.281,94.14
					c2.471,100.258,12.068,132.993-3.799,196.571c-15.18,60.827-31.702,61.867-58.446,142.634
					c-23.299,70.364-50.365,152.102-18.811,182.491c27.057,26.059,71.849-10.071,170.61-25.752
					c152.091-24.15,262.482,25.088,310.782,9.119C1228.682,2309.459,1175.745,2282.02,1133.997,2278.753z"/>
			</g>
			
				<linearGradient id="SVGID_00000087396905001181211780000015932276754460478082_" gradientUnits="userSpaceOnUse" x1="-2154.8538" y1="1422.9084" x2="-2485.0037" y2="3005.8147" gradientTransform="matrix(1 0 0 1 3148.573 0)">
				<stop  offset="0" style="stop-color:#FF9085"/>
				<stop  offset="1" style="stop-color:#FB6FBB"/>
			</linearGradient>
			<path style="fill:url(#SVGID_00000087396905001181211780000015932276754460478082_);" d="M956.899,1699.361
				c-32.948-27.073-99.2,3.573-116.909,11.764c-98.76,45.682-187.432,168.783-165.461,298.876
				c3.294,19.511,18.574,110.769,95.849,154.987c69.725,39.898,163.875,29.637,239.309-26.873
				c10.308-9.148,20.619-18.294,30.928-27.442c10.141-10.962,20.286-21.925,30.427-32.889
				c-15.943-13.261-43.031-32.392-81.075-44.668c-50.158-16.185-86.674,12.857-109.946-9.223
				c-16.061-15.238-16.097-42.152-12.131-58.463c7.994-32.875,36.974-42.12,61.162-65.454
				C985.88,1845.156,996.349,1731.777,956.899,1699.361z"/>
			<g>
				
					<linearGradient id="SVGID_00000062897216888283329730000004692733944051988354_" gradientUnits="userSpaceOnUse" x1="-1873.3837" y1="2306.6396" x2="-1926.808" y2="2155.2705" gradientTransform="matrix(1 0 0 1 3148.573 0)">
					<stop  offset="0" style="stop-color:#311944"/>
					<stop  offset="1" style="stop-color:#893976"/>
				</linearGradient>
				<polygon style="fill:url(#SVGID_00000062897216888283329730000004692733944051988354_);" points="1430.403,2124.056 
					988.766,2117.463 1106.205,2174.14 1431.532,2152.848 				"/>
				
					<linearGradient id="SVGID_00000102526756464826554730000004158750945867842735_" gradientUnits="userSpaceOnUse" x1="-2106.771" y1="2087.3289" x2="-2087.1821" y2="2222.6711" gradientTransform="matrix(1 0 0 1 3148.573 0)">
					<stop  offset="0" style="stop-color:#311944"/>
					<stop  offset="1" style="stop-color:#893976"/>
				</linearGradient>
				<path style="fill:url(#SVGID_00000102526756464826554730000004158750945867842735_);" d="M973.18,2129.199v0.002
					c0,8.265,5.172,15.647,12.939,18.472l141.117,55.323l0.643-38.354l-139.114-47.179
					C980.96,2115.219,973.18,2121.079,973.18,2129.199z"/>
			</g>
			
				<linearGradient id="SVGID_00000049940248418935315340000008455929649343451050_" gradientUnits="userSpaceOnUse" x1="1040.8793" y1="2108.5737" x2="1151.5908" y2="2108.5737">
				<stop  offset="0" style="stop-color:#FFC444"/>
				<stop  offset="0.9964" style="stop-color:#F36F56"/>
			</linearGradient>
			<path style="fill:url(#SVGID_00000049940248418935315340000008455929649343451050_);" d="M1041.184,2103.068
				c-2.71-0.605,13.204-32.316,25.699-28.657c12.491,3.66,73.598,39.074,79.153,53.656c5.555,14.581,5.555,14.581,5.555,14.581
				s-26.655,2.084-43.186-3.47C1091.873,2133.622,1063.225,2107.982,1041.184,2103.068z"/>
			<g>
				<g>
					
						<linearGradient id="SVGID_00000106844402003210845780000015108297495247670960_" gradientUnits="userSpaceOnUse" x1="-1718.6251" y1="2099.1829" x2="-1822.7833" y2="1951.2783" gradientTransform="matrix(1 0 0 1 3148.573 0)">
						<stop  offset="0" style="stop-color:#444B8C"/>
						<stop  offset="0.9964" style="stop-color:#26264F"/>
					</linearGradient>
					<path style="fill:url(#SVGID_00000106844402003210845780000015108297495247670960_);" d="M1139.596,1895.535l-31.13,283.441
						c-1.074,9.78,12.618,24.351,22.446,23.886l456.676-28.035c7.505-0.357,13.753-5.879,15.023-13.283l57.319-273.754
						c1.71-9.962-16.198-20.251-26.302-19.969l-478.568,13.456C1147.067,1881.502,1140.467,1887.586,1139.596,1895.535z"/>
					
						<linearGradient id="SVGID_00000139283076077078802690000010796661639754802087_" gradientUnits="userSpaceOnUse" x1="-1918.4193" y1="2343.9624" x2="-1690.474" y2="1880.9491" gradientTransform="matrix(1 0 0 1 3148.573 0)">
						<stop  offset="0" style="stop-color:#311944"/>
						<stop  offset="1" style="stop-color:#893976"/>
					</linearGradient>
					<path style="fill:url(#SVGID_00000139283076077078802690000010796661639754802087_);" d="M1150.033,1903.799l-31.131,283.444
						c-1.073,9.78,6.844,18.205,16.672,17.742l462.452-21.893c7.503-0.356,13.751-5.879,15.022-13.282l47.246-275.007
						c1.711-9.964-6.125-19.001-16.229-18.716l-478.569,13.456C1157.506,1889.765,1150.903,1895.853,1150.033,1903.799z"/>
				</g>
				
					<linearGradient id="SVGID_00000049223503708605232710000000756186944335425434_" gradientUnits="userSpaceOnUse" x1="-2029.7686" y1="2046.7852" x2="-1529.0048" y2="2046.7852" gradientTransform="matrix(1 0 0 1 3148.573 0)">
					<stop  offset="0" style="stop-color:#311944"/>
					<stop  offset="1" style="stop-color:#893976"/>
				</linearGradient>
				<path style="opacity:0.3;fill:url(#SVGID_00000049223503708605232710000000756186944335425434_);" d="M1421.584,2116.673
					c-40.38-17.114-26.127-49.751-73.811-90.418c-62.905-53.65-127.022-30.382-149.469-71.966
					c-6.99-12.952-10.329-33.104,1.847-65.721l-34.655,0.974c-7.991,0.223-14.594,6.31-15.464,14.256l-31.131,283.444
					c-1.072,9.779,6.846,18.205,16.672,17.742l462.452-21.893c7.503-0.356,13.751-5.878,15.022-13.282l6.52-37.948
					c-14.031-7.808-30.798-14.908-50.363-18.877C1501.36,2099.221,1468.073,2136.377,1421.584,2116.673z"/>
			</g>
			
				<linearGradient id="SVGID_00000096774407785733573480000011972720225594176151_" gradientUnits="userSpaceOnUse" x1="1552.6581" y1="2165.2056" x2="1627.3473" y2="2165.2056">
				<stop  offset="0" style="stop-color:#FFC444"/>
				<stop  offset="0.9964" style="stop-color:#F36F56"/>
			</linearGradient>
			<path style="fill:url(#SVGID_00000096774407785733573480000011972720225594176151_);" d="M1627.16,2143.447
				c0.752-2.283-0.842-4.636-3.244-4.758c-9.774-0.499-32.442-0.701-44.957,6.963c-16.257,9.958-37.277,28.128-19.575,37.297
				l16.529,8.563c0.759,0.393,1.586,0.515,2.419,0.333c5.873-1.292,30.594-6.776,33.298-8.137
				C1614.092,2182.468,1623.517,2154.497,1627.16,2143.447z"/>
			<g>
				
					<linearGradient id="SVGID_00000034086875990914910210000016821251704905496195_" gradientUnits="userSpaceOnUse" x1="1098.6676" y1="1493.3784" x2="1017.5488" y2="2009.4296">
					<stop  offset="0" style="stop-color:#FFC444"/>
					<stop  offset="0.9964" style="stop-color:#F36F56"/>
				</linearGradient>
				<path style="fill:url(#SVGID_00000034086875990914910210000016821251704905496195_);" d="M1066.398,1557.064
					c0.247,29.396-3.033,52.71-6.136,68.676c-3.554,18.293-6.115,23.019-9.383,26.854c-4.919,5.772-12.375,10.614-54.499,21.06
					c-22.923,5.682-25.872,5.528-26.379,7.803c-2.469,11.097,60.038,48.918,124.615,39.802
					c39.523-5.578,75.483-28.126,73.275-39.968c-2.222-11.916-41.7-5.522-53.467-27.081c-8.186-14.997,0.99-36.289,11.836-53.921
					C1115.755,1580.608,1076.901,1576.746,1066.398,1557.064z"/>
				<g>
					
						<linearGradient id="SVGID_00000021824462242174465740000012321145827962092166_" gradientUnits="userSpaceOnUse" x1="1036.4832" y1="1567.6151" x2="1146.8589" y2="1567.6151">
						<stop  offset="0" style="stop-color:#40447E"/>
						<stop  offset="0.9964" style="stop-color:#3C3B6B"/>
					</linearGradient>
					<path style="fill:url(#SVGID_00000021824462242174465740000012321145827962092166_);" d="M1139.753,1568.687
						c9.327-12.39,9.903-34.022-0.844-47.695c-9.249-11.766-23.803-13.443-32.517-14.451c-25.249-2.915-57.108,7.625-68.19,30.864
						c-6.566,13.772,7.638,42.387,9.862,47.531c2.52,5.817,7.085,7.812,11.31,12.21c5.854,6.099,15.02,15.798,29.98,32.018
						c1.162-4.786,2.93-10.712,5.738-17.133c1.081-2.472,5.422-12.127,11.99-20.133
						C1120.24,1575.851,1130.911,1580.429,1139.753,1568.687z"/>
					
						<linearGradient id="SVGID_00000056398679127301130000000004315393929508819606_" gradientUnits="userSpaceOnUse" x1="1095.7947" y1="1563.1394" x2="1097.5205" y2="1702.939">
						<stop  offset="0" style="stop-color:#FFC444"/>
						<stop  offset="0.9964" style="stop-color:#F36F56"/>
					</linearGradient>
					<path style="fill:url(#SVGID_00000056398679127301130000000004315393929508819606_);" d="M1068.014,1615.524
						c0,0,16.599,27.232,49.648,25.082c29.59-1.926,33.924-68.283,15.024-82.364c-6.306-4.697-18.933-6.648-29.201-3.771
						c-6.064,1.7-8.119,4.22-18.081,6.803c-9.191,2.385-11.786,1.366-14.561,3.7c-3.469,2.922-6.011,10.08-0.217,29.479
						c-5.646-5.716-12.422-7.91-17.224-5.642c-0.765,0.363-2.797,1.744-3.94,3.839
						C1045.324,1600.228,1052.247,1609.907,1068.014,1615.524z"/>
					
						<linearGradient id="SVGID_00000141439563961929625180000000506857108634940334_" gradientUnits="userSpaceOnUse" x1="1049.6937" y1="1604.26" x2="1145.0383" y2="1604.26">
						<stop  offset="0" style="stop-color:#40447E"/>
						<stop  offset="0.9964" style="stop-color:#3C3B6B"/>
					</linearGradient>
					<path style="fill:url(#SVGID_00000141439563961929625180000000506857108634940334_);" d="M1069.504,1561.005
						c1.427,1.064-2.935,6.388-3.26,13.923c-0.634,14.627,14.172,32.184,29.275,33.673c8.93,0.88,11.384-4.502,26.145-6.062
						c9.139-0.965,16.747,0.197,21.533,1.243c4.639,16.042,0.274,32.036-10.449,39.456c-11.544,7.99-26.29,3.143-32.455,1.116
						c-4.125-1.356-17.34-5.673-24.248-17.792c-7.197-12.63-0.134-20.243-8.391-28.785c-4.165-4.309-9.635-6.175-14.96-14.516
						c-1.446-2.267-2.411-4.271-3.002-5.62C1057.329,1569.55,1067.438,1559.464,1069.504,1561.005z"/>
					
						<linearGradient id="SVGID_00000181068779669858739390000009575824028146639543_" gradientUnits="userSpaceOnUse" x1="1113.818" y1="1613.3872" x2="1134.8718" y2="1613.3872">
						<stop  offset="0" style="stop-color:#FFC444"/>
						<stop  offset="0.9964" style="stop-color:#F36F56"/>
					</linearGradient>
					<path style="fill:url(#SVGID_00000181068779669858739390000009575824028146639543_);" d="M1132.457,1609.729
						c0,0-6.391,3.339-17.434,2.718c-0.537-0.031-1.13,0.127-1.198,0.405c-0.254,1.047,6.831,5.745,13.359,3.91
						c4.634-1.304,8.241-5.692,7.618-6.809C1134.536,1609.483,1133.488,1609.545,1132.457,1609.729z"/>
				</g>
			</g>
		</g>
		<g>
			
				<linearGradient id="SVGID_00000029735616948765204540000005066762017881679523_" gradientUnits="userSpaceOnUse" x1="3483.2109" y1="1925.2466" x2="3476.9666" y2="2033.8998" gradientTransform="matrix(-1 0 0 1 5935.2954 0)">
				<stop  offset="0" style="stop-color:#311944"/>
				<stop  offset="1" style="stop-color:#A03976"/>
			</linearGradient>
			<path style="fill:url(#SVGID_00000029735616948765204540000005066762017881679523_);" d="M2450.784,1962.175
				c0,0-11.582-11.385-10.404-22.182c1.178-10.797,21.201,19.827,28.071,25.912c6.871,6.085,8.637,6.085,6.085,21.79
				c-2.552,15.704,1.178,32.39,1.178,32.39c5.693,0.196-21.593,2.552-21.593,2.552s-0.785-12.76-3.73-16.489
				c-2.945-3.73-13.938-6.478-15.508-22.182C2433.313,1968.262,2450.784,1962.175,2450.784,1962.175z"/>
			
				<linearGradient id="SVGID_00000139992967411800845530000010665883484672276132_" gradientUnits="userSpaceOnUse" x1="3352.9856" y1="1928.0016" x2="3337.2817" y2="2201.2549" gradientTransform="matrix(-1 0 0 1 5935.2954 0)">
				<stop  offset="0" style="stop-color:#AA80F9"/>
				<stop  offset="0.9964" style="stop-color:#6165D7"/>
			</linearGradient>
			<path style="fill:url(#SVGID_00000139992967411800845530000010665883484672276132_);" d="M2694.125,1951.453
				c0,0-69.614,23.875-111.23,118.1c-41.616,94.225-102.863-59.05-102.863-59.05l-34.549,4.871c0,0,13.872,155.21,118.043,158.35
				c91.308,2.753,140.814-75.902,163.847-189.758L2694.125,1951.453z"/>
			
				<linearGradient id="SVGID_00000003800708736146618470000012079215570573055927_" gradientUnits="userSpaceOnUse" x1="3010.5374" y1="2495.1462" x2="2817.6292" y2="2593.2212" gradientTransform="matrix(-1 0 0 1 5935.2954 0)">
				<stop  offset="0.0036" style="stop-color:#E38DDD"/>
				<stop  offset="1" style="stop-color:#9571F6"/>
			</linearGradient>
			<path style="fill:url(#SVGID_00000003800708736146618470000012079215570573055927_);" d="M2963.218,2523.107
				c0,0,5.705-12.265,12.326-11.73c6.621,0.535,13.597,1.142,29.073,11.326c15.476,10.186,22.9,11.753,22.164,18.285
				C3026.047,2547.521,2977.198,2546.225,2963.218,2523.107z"/>
			
				<linearGradient id="SVGID_00000041285826983795225080000006783036570483082388_" gradientUnits="userSpaceOnUse" x1="-9408.8418" y1="665.2787" x2="-9404.4658" y2="722.1653" gradientTransform="matrix(0.3082 -0.9513 0.9513 0.3082 5195.0952 -6628.4365)">
				<stop  offset="0" style="stop-color:#311944"/>
				<stop  offset="1" style="stop-color:#A03976"/>
			</linearGradient>
			<path style="fill:url(#SVGID_00000041285826983795225080000006783036570483082388_);" d="M2944.968,2531.057
				c1.234-0.392,14.398-8.226,21.883-12.711c3.053-1.828,6.933-1.411,9.541,1.01l0,0c3.819,3.543,4.192,9.44,0.856,13.44
				c-5.615,6.731-14.099,16.541-20.194,21.961L2944.968,2531.057z"/>
			
				<linearGradient id="SVGID_00000157999083391207994170000003936933569922873729_" gradientUnits="userSpaceOnUse" x1="3052.2185" y1="2765.2954" x2="3240.2634" y2="3010.8887" gradientTransform="matrix(-1 0 0 1 5935.2954 0)">
				<stop  offset="0.0036" style="stop-color:#E38DDD"/>
				<stop  offset="1" style="stop-color:#9571F6"/>
			</linearGradient>
			<path style="fill:url(#SVGID_00000157999083391207994170000003936933569922873729_);" d="M2837.901,2853.987
				c-0.031,0.277,0.039,0.883,0.121,1.737c0.367,3.824,0.979,12.635-6.106,19.404c-8.668,8.28-30.566,10.191-56.889,11.508
				c-26.324,1.318-5.414-15.658-1.677-17.583c3.737-1.926,55.179-24.599,55.179-24.599L2837.901,2853.987z"/>
			
				<linearGradient id="SVGID_00000094613471237265547600000018121343081098788488_" gradientUnits="userSpaceOnUse" x1="-5396.4937" y1="4573.9663" x2="-5419.144" y2="4678.7222" gradientTransform="matrix(0.4133 0.9106 -0.9106 0.4133 9360.1377 5838.626)">
				<stop  offset="0" style="stop-color:#311944"/>
				<stop  offset="1" style="stop-color:#A03976"/>
			</linearGradient>
			<path style="fill:url(#SVGID_00000094613471237265547600000018121343081098788488_);" d="M2818.079,2830.21l4.305,30.491
				c0,0,6.21,3.666,10.808-4.906l11.553-21.53L2818.079,2830.21z"/>
			<g>
				
					<linearGradient id="SVGID_00000102519678864236344890000004496890553637557942_" gradientUnits="userSpaceOnUse" x1="3224.8794" y1="2217.0813" x2="3139.7729" y2="2657.2036" gradientTransform="matrix(-1 0 0 1 5935.2954 0)">
					<stop  offset="0" style="stop-color:#FFC444"/>
					<stop  offset="0.9964" style="stop-color:#F36F56"/>
				</linearGradient>
				<path style="fill:url(#SVGID_00000102519678864236344890000004496890553637557942_);" d="M2714.615,2236.194
					c-36.017-2.235-50.985,38.153-71.342,73.528c-40.076,69.638-99.288,218.71-42.625,294.525
					c47.698,63.821,186.828,33.03,227.657,19.742c85.65-27.875,82.165-36.573,141.981-74.727
					c-10.5-8.335-13.757-18.625-22.497-27.685c-21.41-2.067-61.663-2.729-80.155-3.087c-27.349-0.529-76.11,1.667-90.935,2.823
					c-23.477,1.833-68.274,13.546-76.079,3.12c-17.256-23.053,32.048-140.289,32.83-178.558
					C2733.779,2329.833,2747.501,2238.234,2714.615,2236.194z"/>
				
					<linearGradient id="SVGID_00000096777735507265494080000013582384857005619885_" gradientUnits="userSpaceOnUse" x1="-8977.4609" y1="4734.6465" x2="-8706.9951" y2="4948.6416" gradientTransform="matrix(0.9513 0.3082 -0.3082 0.9513 12539.1035 419.9144)">
					<stop  offset="0" style="stop-color:#FFC444"/>
					<stop  offset="0.9964" style="stop-color:#F36F56"/>
				</linearGradient>
				<path style="opacity:0.3;fill:url(#SVGID_00000096777735507265494080000013582384857005619885_);" d="M2643.926,2308.016
					c-9.405,14.575-18.765,39.006-26.34,55.702c7.52,5.08,18.041,11.029,20.731,19.509c12.368,38.978-14.254,74.122-11.602,123.069
					c0.677,12.519,5.789,57.557,29.777,68.611c28.665,13.207,84.063-6.277,121.896-1.5c19.627,2.478,38.342,16.382,58.442,14.126
					c31.736-3.563,52.018-26.66,84.174-31.265c8.498-1.217,23.43,1.865,32.356,5.446c5.475-3.849,10.291-7.876,15.403-11.978
					c-7.108-9.389-13.171-18.809-20.923-28.173c-21.505-2.052-61.711-2.699-80.2-3.076c-27.348-0.558-76.137,1.729-90.935,2.818
					c-23.434,1.725-68.358,13.745-76.082,3.124c-17.076-23.481,31.727-139.53,32.961-178.869
					c0.517-16.49,12.816-104.724-18.665-110.088C2680.442,2229.595,2659.873,2283.303,2643.926,2308.016z"/>
			</g>
			<g>
				
					<linearGradient id="SVGID_00000163030575921532576330000017076860413247252894_" gradientUnits="userSpaceOnUse" x1="3055.9419" y1="2243.8679" x2="3229.803" y2="2805.5737" gradientTransform="matrix(-1 0 0 1 5935.2954 0)">
					<stop  offset="0" style="stop-color:#FFC444"/>
					<stop  offset="0.9964" style="stop-color:#F36F56"/>
				</linearGradient>
				<path style="fill:url(#SVGID_00000163030575921532576330000017076860413247252894_);" d="M2695.588,2333.718
					c-3.797,64.261,35.905,153.013,30.97,227.153c-0.562,8.445,2.516,43.967,5.879,53.978
					c10.893,32.424,75.465,224.186,77.111,226.034c12.008-2.486,24.488-4.003,36.698-6.639
					c15.992-29.113,28.886-69.642,36.245-100.552c9.908-41.613-10.213-90.395-14.903-118.103
					c-5.401-31.901-4.955-83.956-8.201-94.848c-24.111-80.867,5.895-111.591-5.544-177.753c-5.929-34.284-27.79-51.031-52.725-71.57
					C2765.744,2307.158,2725.736,2294.221,2695.588,2333.718z"/>
			</g>
			
				<linearGradient id="SVGID_00000169536259383672126200000003944695397981161914_" gradientUnits="userSpaceOnUse" x1="3112.5674" y1="1841.4738" x2="3189.519" y2="2491.6365" gradientTransform="matrix(-1 0 0 1 5935.2954 0)">
				<stop  offset="0" style="stop-color:#AA80F9"/>
				<stop  offset="0.9964" style="stop-color:#6165D7"/>
			</linearGradient>
			<path style="fill:url(#SVGID_00000169536259383672126200000003944695397981161914_);" d="M2641.599,2306.371
				c7.254,30.718,44.254,45.605,82.352,60.932c25.47,10.24,104.212,41.931,150.006,6.314c19.284-15.014,21.391-33.104,35.147-99.659
				c9.956-48.212,18.186-83.861,24.498-111.029c15.861-68.157,19.787-83.013,9.266-109.207
				c-22.71-56.598-79.779-83.358-99.096-91.273c-2.07-0.848-3.767-1.475-4.929-1.948c-49.125-18.656-140.24-28.235-176.893,10.019
				c-39.794,41.585,25.851,96.55-2.794,221.021c-8.637,37.596-18.186,60.713-20.007,84.017
				C2638.394,2285.422,2638.992,2295.315,2641.599,2306.371z"/>
			
				<linearGradient id="SVGID_00000034779495206192508260000009466611661364128682_" gradientUnits="userSpaceOnUse" x1="-11172.4678" y1="1266.0824" x2="-11269.8115" y2="1018.8466" gradientTransform="matrix(0.9842 0.1772 -0.1772 0.9842 14046.7217 2787.666)">
				<stop  offset="0" style="stop-color:#311944"/>
				<stop  offset="1" style="stop-color:#6B3976"/>
			</linearGradient>
			<path style="fill:url(#SVGID_00000034779495206192508260000009466611661364128682_);" d="M2706.342,1845.312
				c-2.099-10.979-10.184-11.284-11.919-21.456c-2.177-12.761,7.858-28.027,20.262-34.567c12.143-6.404,17.625,0.262,44.103,0
				c28.444-0.281,32.863-8.082,56.023-4.768c6.047,0.865,17.324,2.583,29.798,9.535c9.947,5.541,29.672,16.536,32.183,36.952
				c2.745,22.318-17.156,38.973-19.072,40.527c7.526,25.903,4.319,36.885-1.191,41.72c0,0-5.849,5.13-35.758,4.768l0,0
				c0,0-8.445,10.492-13.357,13.995c-5.59,3.984-16.46,5.943-39.886-5.191c-0.414-5.026-1.25-12.197-3.1-20.66
				c-3.473-15.883-5.21-23.829-9.615-25.33c-11.096-3.787-25.916,35.009-40.918,32.154c-9.646-1.834-17.157-20.468-15.899-35.496
				C2699.258,1862.46,2708.726,1857.787,2706.342,1845.312z"/>
			
				<linearGradient id="SVGID_00000090275042318886969200000009400619805194679170_" gradientUnits="userSpaceOnUse" x1="-8609.1992" y1="2522.1147" x2="-8630.3389" y2="2702.3613" gradientTransform="matrix(0.9939 0.1103 -0.1103 0.9939 11646.2119 263.1535)">
				<stop  offset="0" style="stop-color:#311944"/>
				<stop  offset="1" style="stop-color:#A03976"/>
			</linearGradient>
			<path style="fill:url(#SVGID_00000090275042318886969200000009400619805194679170_);" d="M2746.032,1935.07
				c2.189,10.835-4.62,20.133-14.679,20.527c-11.75,0.461-25.47,1.451-31.24,3.636c-10.24,3.879,33.024,6.229,78.197,15.008
				c31.347,6.093,57.054,8.177,72.449,8.871c4.247,0.191,5.479-4.598,1.66-6.504c-13.751-6.866-35.412-17.031-53.329-22.491
				c-21.155-6.448-39.258-55.214-39.258-55.214l-18.3,13.882L2746.032,1935.07z"/>
			
				<linearGradient id="SVGID_00000155835545616615980610000003845050750135189666_" gradientUnits="userSpaceOnUse" x1="-9153.3555" y1="6422.248" x2="-9192.2178" y2="6519.4038" gradientTransform="matrix(0.7805 0.6252 -0.6252 0.7805 14048.6426 2519.6465)">
				<stop  offset="0" style="stop-color:#311944"/>
				<stop  offset="1" style="stop-color:#A03976"/>
			</linearGradient>
			<path style="fill:url(#SVGID_00000155835545616615980610000003845050750135189666_);" d="M2786.759,1921.333
				c0,0-23.935,27.187-60.476,18.271c-32.719-7.986-24.49-83.061-0.575-95.089c7.977-4.012,22.487-3.705,33.405,1.537
				c6.448,3.096,8.249,6.319,18.883,11.174c9.809,4.476,12.916,3.848,15.557,7.007c3.307,3.949,4.739,12.459-5.564,33.016
				c7.44-5.282,15.453-6.4,20.375-2.919c0.786,0.556,2.787,2.502,3.652,5.069
				C2815.149,1908.692,2805.501,1918.155,2786.759,1921.333z"/>
			
				<linearGradient id="SVGID_00000023998048459724239830000016879004199471184003_" gradientUnits="userSpaceOnUse" x1="2828.4124" y1="-488.7171" x2="3168.6741" y2="2386.1392" gradientTransform="matrix(-1 0 0 1 5935.2954 0)">
				<stop  offset="0" style="stop-color:#AA80F9"/>
				<stop  offset="0.9964" style="stop-color:#6165D7"/>
			</linearGradient>
			<path style="opacity:0.3;fill:url(#SVGID_00000023998048459724239830000016879004199471184003_);" d="M2641.599,2306.371
				c7.254,30.718,44.254,45.605,82.352,60.932c25.47,10.24,104.212,41.931,150.006,6.314c19.284-15.014,21.391-33.104,35.147-99.659
				c9.956-48.212,18.186-83.861,24.498-111.029l-53.081-105.877c0.534,2.763,18.783,96.361-23.682,110.086
				c-43.092,13.914-74.531,15.077-80.781,67.875c-6.061,51.069,7.665,129.119-136.908,40.547
				C2638.394,2285.422,2638.992,2295.315,2641.599,2306.371z"/>
			
				<linearGradient id="SVGID_00000142886265828589390520000012410993105153133481_" gradientUnits="userSpaceOnUse" x1="4921.9941" y1="2202.8071" x2="4599.7939" y2="1865.4097" gradientTransform="matrix(0.3873 0.9219 0.9219 -0.3873 -713.1642 -1171.4847)">
				<stop  offset="0" style="stop-color:#311944"/>
				<stop  offset="1" style="stop-color:#A03976"/>
			</linearGradient>
			<path style="fill:url(#SVGID_00000142886265828589390520000012410993105153133481_);" d="M2844.721,2351.87
				c-2.469,5.393-7.119,13.315-15.676,19.346c-18.352,12.936-46.107,11.14-49.496,2.602c-3.066-7.726,13.72-21.21,21.186-26.282
				c16.288-11.064,33.324-12.724,42.476-12.877L2844.721,2351.87z"/>
			
				<linearGradient id="SVGID_00000125595968236954093100000003637163157012917138_" gradientUnits="userSpaceOnUse" x1="2952.2397" y1="1860.4546" x2="3029.1904" y2="2510.6079" gradientTransform="matrix(-1 0 0 1 5935.2954 0)">
				<stop  offset="0" style="stop-color:#AA80F9"/>
				<stop  offset="0.9964" style="stop-color:#6165D7"/>
			</linearGradient>
			<path style="fill:url(#SVGID_00000125595968236954093100000003637163157012917138_);" d="M2904.81,2000.423
				c0,0,237.154,235.07,104.192,308.356c-132.962,73.286-169.605,55.488-169.605,55.488l-6.282-29.609
				c0,0,155.653-67.757,111.852-115.917S2768.163,2094.094,2904.81,2000.423z"/>
		</g>
		<g>
			
				<linearGradient id="SVGID_00000058559179762362053690000010968485466844148880_" gradientUnits="userSpaceOnUse" x1="4239.4106" y1="2680.8755" x2="4234.4282" y2="2779.2771" gradientTransform="matrix(-1 0 0 1 6371.5889 0)">
				<stop  offset="0" style="stop-color:#AA80F9"/>
				<stop  offset="0.9964" style="stop-color:#6165D7"/>
			</linearGradient>
			<polygon style="fill:url(#SVGID_00000058559179762362053690000010968485466844148880_);" points="2158.217,2755.353 
				1925.778,2697.213 1914.151,2753.684 2126.944,2851.895 2295.433,2810.276 2354.719,2697.213 			"/>
			
				<linearGradient id="SVGID_00000057136388912997130380000009927418654712976000_" gradientUnits="userSpaceOnUse" x1="4223.687" y1="2612.6472" x2="4249.0361" y2="2810.7468" gradientTransform="matrix(-1 0 0 1 6371.5889 0)">
				<stop  offset="0" style="stop-color:#FFC444"/>
				<stop  offset="0.9964" style="stop-color:#F36F56"/>
			</linearGradient>
			<path style="fill:url(#SVGID_00000057136388912997130380000009927418654712976000_);" d="M1892.149,2704.353
				c-0.88,12.667,30.732,24.884,38.653,27.907c46.957,18.025,70.493,1.841,122.35,10.796c44.584,7.654,37.121,21.338,81.591,28.953
				c28.512,4.898,58.362,0.412,118.063-8.543c22.349-3.368,42.633-7.161,58.362-10.567c0.037-0.038,0.077-0.041,0.114-0.041
				c20.131-4.478,32.722-8.497,32.453-10.678c-0.037-0.306-0.304-0.345-0.383-0.766c-1.261-5.625,34.712-13.012,34.903-22.044
				c0-0.88-0.306-1.722-0.917-2.526c-4.593-5.626-25.259-9.797-56.258-21.317c-30.042-11.098-45.044-16.647-58.629-27.593
				c-25.718-20.742-34.406-49.406-40.146-68.235c-6.391-21.202-18.638-57.329-2.601-96.9c0.344-0.842,0.688-1.722,1.071-2.564
				c18.255-41.944,55.108-64.026,68.466-71.297c-16.304-14.619-59.625-49.406-129.238-61.691
				c-21.431-3.75-62.648-11.557-111.289,2.373c-67.012,19.212-120.474,71.106-112.667,90.05
				c7.348,17.872,67.049,0.995,89.092,38.653c1.187,1.99,2.029,3.368,3.1,6.353c18.217,50.631,0.039,97.129-4.287,106.123
				c-3.367,6.965-13.049,25.433-33.027,43.114c-20.551,18.178-42.478,29.138-60.428,32.59h-0.037
				C1908.72,2689.955,1892.762,2695.781,1892.149,2704.353z"/>
			
				<linearGradient id="SVGID_00000129897766802715896640000008822072243911033777_" gradientUnits="userSpaceOnUse" x1="3994.2517" y1="2638.4131" x2="4479.458" y2="2638.4131" gradientTransform="matrix(-1 0 0 1 6371.5889 0)">
				<stop  offset="0" style="stop-color:#FFC444"/>
				<stop  offset="0.0985" style="stop-color:#FEBC46"/>
				<stop  offset="0.9964" style="stop-color:#F36F56"/>
			</linearGradient>
			<path style="opacity:0.5;fill:url(#SVGID_00000129897766802715896640000008822072243911033777_);" d="M1892.149,2704.353
				c-0.88,12.667,30.732,24.884,38.653,27.907c46.957,18.025,70.493,1.841,122.35,10.796c44.584,7.654,37.121,21.338,81.591,28.953
				c28.512,4.898,58.362,0.412,118.063-8.543c22.349-3.368,42.633-7.161,58.362-10.567l0.114-0.079l66.055-35.975
				c-4.593-5.626-25.259-9.798-56.258-21.317c-30.042-11.098-45.044-16.648-58.629-27.593
				c-25.718-20.742-34.406-49.406-40.146-68.235c-6.391-21.202-18.638-57.329-2.601-96.9c-9.147,0.65-36.816,6.276-33.602,51.856
				c3.827,54.573,42.366,90.93-30.5,100.956c-72.829,10.027,28.703,71.664-20.398,74.534c-49.101,2.87-72.406-47.096-204.707-43.644
				h-0.037C1908.72,2689.955,1892.762,2695.781,1892.149,2704.353z"/>
			
				<linearGradient id="SVGID_00000119830975895683374390000009196413891419539850_" gradientUnits="userSpaceOnUse" x1="1508.8396" y1="359.3565" x2="1390.7675" y2="686.0223" gradientTransform="matrix(-0.9147 0.4042 0.4042 0.9147 3223.9463 1118.3715)">
				<stop  offset="0" style="stop-color:#444B8C"/>
				<stop  offset="0.9964" style="stop-color:#26264F"/>
			</linearGradient>
			<path style="fill:url(#SVGID_00000119830975895683374390000009196413891419539850_);" d="M2016.019,2325.199
				c-7.176-2.819-27.734-18.027-29.518-38.553c-1.217-13.995,7.632-19.476,5.199-34.025c-2.764-16.521-15.473-17.21-23.312-34.379
				c-9.142-20.022-5.233-48.382,9.092-64.25c11.546-12.789,20.464-7.059,40.439-23.364c17.654-14.411,15.127-22.512,26.783-29.273
				c22.686-13.158,42.711,11.464,77.983,11.352c48.998-0.156,58.792-47.827,96.178-42.5c34.373,4.898,67.68,51.122,65.889,87.86
				c-0.718,14.72-6.426,21.353-2.436,35.292c6.133,21.423,25.795,20.573,36.45,42.91c8.059,16.895,8.674,42.254-3.713,54.495
				c-14.506,14.337-35.643-0.385-50.171,13.636c-15.647,15.101,1.139,39.636-14.225,55.814
				c-14.51,15.279-44.901,10.608-62.031,5.837c-20.639-5.749-39.535-16.376-59.408-24.384
				C2092.327,2326.804,2052.297,2339.45,2016.019,2325.199z"/>
			
				<linearGradient id="SVGID_00000181781111400848944830000002975896524944570526_" gradientUnits="userSpaceOnUse" x1="-942.2504" y1="2600.5671" x2="-916.0815" y2="2805.071" gradientTransform="matrix(1 0 0 1 3202.3257 0)">
				<stop  offset="0" style="stop-color:#FFC444"/>
				<stop  offset="0.0985" style="stop-color:#FEBC46"/>
				<stop  offset="0.9964" style="stop-color:#F36F56"/>
			</linearGradient>
			<path style="fill:url(#SVGID_00000181781111400848944830000002975896524944570526_);" d="M2164.109,2540.719
				c-11.232,21.615,28.07,84.256,82.798,89.606c29.662,2.899,58.932-11.511,76.469-33.283
				c27.067-33.601,18.695-75.434,15.764-90.078c-17.294-86.409-118.888-122.377-128.203-125.523
				c-24.718,38.306-24.322,62.467-19.104,77.589c4.303,12.471,15.564,25.794,38.086,52.439
				c20.057,23.729,30.001,32.18,27.024,39.409c-3.537,8.585-22.74,9.229-34.906,6.756c-22.54-4.584-34.885-22.716-38.111-27.801
				C2177.741,2530.817,2167.969,2533.291,2164.109,2540.719z"/>
			
				<linearGradient id="SVGID_00000098915040239143331200000006156901633235271865_" gradientUnits="userSpaceOnUse" x1="2164.0088" y1="2610.8931" x2="2191.272" y2="2823.9487" gradientTransform="matrix(-1 0 0 1 4138.9121 0)">
				<stop  offset="0" style="stop-color:#FFC444"/>
				<stop  offset="0.0985" style="stop-color:#FEBC46"/>
				<stop  offset="0.9964" style="stop-color:#F36F56"/>
			</linearGradient>
			<path style="fill:url(#SVGID_00000098915040239143331200000006156901633235271865_);" d="M2070.711,2552.282
				c11.232,21.615-28.07,84.257-82.798,89.606c-29.662,2.899-58.932-11.511-76.469-33.283
				c-27.067-33.601-18.694-75.434-15.764-90.078c17.294-86.41,112.018-133.94,121.333-137.086
				c24.718,38.306,31.193,74.03,25.974,89.152c-4.303,12.471-21.286,11.927-43.808,38.572
				c-20.057,23.729-24.279,46.047-21.302,53.276c3.537,8.585,22.74,9.229,34.906,6.756c22.54-4.584,34.885-22.716,38.111-27.801
				C2057.079,2542.38,2066.851,2544.854,2070.711,2552.282z"/>
			
				<linearGradient id="SVGID_00000111889902635856589660000012587068254946762914_" gradientUnits="userSpaceOnUse" x1="4244.8657" y1="2262.6851" x2="4247.5" y2="2387.814" gradientTransform="matrix(-1 0 0 1 6371.5889 0)">
				<stop  offset="0" style="stop-color:#311944"/>
				<stop  offset="1" style="stop-color:#A03976"/>
			</linearGradient>
			<path style="fill:url(#SVGID_00000111889902635856589660000012587068254946762914_);" d="M2131.456,2313.674
				c0,0,4.438,35.477,17.532,43.605c13.094,8.125,34.262,18.743,36.594,21.625c2.332,2.878-81.116,11.851-122.469-9.018l0,0
				c13.628-2.842,17.333-3.888,17.333-3.888c3.698-1.046,10.598-2.99,17.515-6.931c4.708-2.681,12.296-7.919,19.256-17.808
				l-0.152-19.644L2131.456,2313.674z"/>
			
				<linearGradient id="SVGID_00000130609413852228156270000000483470205544529584_" gradientUnits="userSpaceOnUse" x1="-232.759" y1="2076.3264" x2="-373.3363" y2="2250.5632" gradientTransform="matrix(0.899 0.438 -0.438 0.899 3403.3867 447.587)">
				<stop  offset="0" style="stop-color:#311944"/>
				<stop  offset="1" style="stop-color:#A03976"/>
			</linearGradient>
			<path style="fill:url(#SVGID_00000130609413852228156270000000483470205544529584_);" d="M2141.803,2326.49
				c0,0-19.801,32.011-55.422,21.996c-31.893-8.965-19.448-90.527,4.476-101.536c7.979-3.672,23.162-3.468,33.716,2.057
				c7.425,3.886,28.138,25.965,19.285,53.142c7.669-2.866,14.726-1.325,16.747,2.426c2.568,4.757-3.563,11.968-4.953,13.601
				C2150.84,2323.839,2144.665,2325.789,2141.803,2326.49z"/>
			
				<linearGradient id="SVGID_00000169539073897844354870000001181882866694700190_" gradientUnits="userSpaceOnUse" x1="4252.9321" y1="2768.0974" x2="4544.1538" y2="2768.0974" gradientTransform="matrix(-1 0 0 1 6371.5889 0)">
				<stop  offset="0" style="stop-color:#AA80F9"/>
				<stop  offset="0.9964" style="stop-color:#6165D7"/>
			</linearGradient>
			<path style="fill:url(#SVGID_00000169539073897844354870000001181882866694700190_);" d="M2118.657,2833.519
				c-46.198-24.767-80.318-49.993-103.478-69.061c-45.567-37.518-66.471-65.819-112.603-77.002
				c-8.245-1.998-55.218-13.386-70.375,7.473c-16.783,23.095,15.845,71.389,19.809,77.255
				c58.938,87.238,209.026,83.167,256.103,80.338C2111.627,2846.187,2115.142,2839.853,2118.657,2833.519z"/>
			
				<linearGradient id="SVGID_00000057829315329159265070000008875711202060759446_" gradientUnits="userSpaceOnUse" x1="4252.9326" y1="2768.7749" x2="4544.1533" y2="2768.7749" gradientTransform="matrix(-1 0 0 1 6371.5889 0)">
				<stop  offset="0" style="stop-color:#AA80F9"/>
				<stop  offset="0.9964" style="stop-color:#6165D7"/>
			</linearGradient>
			<path style="opacity:0.3;fill:url(#SVGID_00000057829315329159265070000008875711202060759446_);" d="M1832.2,2694.929
				c4.43-6.095,11.606-9.385,19.709-11.013c-2.697,9.337-2.942,18.098,0.427,25.752c9.21,20.921,36.482,14.477,55.637,39.028
				c18.813,24.112,5.79,47.352,22.42,57.298c19.061,11.399,42.691-15.232,63.11-2.492c13.882,8.662,9.563,25.095,25.742,34.047
				c11.18,6.186,22.14,3.26,34.876,1.66c14.599-1.834,34.598-2.226,59.702,3.017c-1.904,3.431-3.808,6.863-5.713,10.295
				c-47.077,2.829-197.164,6.899-256.102-80.338C1848.046,2766.318,1815.417,2718.024,1832.2,2694.929z"/>
			
				<linearGradient id="SVGID_00000152251185862567036880000005884811596261190315_" gradientUnits="userSpaceOnUse" x1="4331.5166" y1="2899.7842" x2="4275.4653" y2="2830.0317" gradientTransform="matrix(-1 0 0 1 6371.5889 0)">
				<stop  offset="0" style="stop-color:#311944"/>
				<stop  offset="1" style="stop-color:#6B3976"/>
			</linearGradient>
			<path style="fill:url(#SVGID_00000152251185862567036880000005884811596261190315_);" d="M2087.613,2864.926
				c0,0-8.465-6.07-20.749-1.934c-12.283,4.137-31.789,7.475-31.759,13.481c0.03,6.006,19.545,9.765,33.031,7.296
				C2081.036,2881.408,2091.182,2870.195,2087.613,2864.926z"/>
			
				<linearGradient id="SVGID_00000098212272524890748740000000668096659680301759_" gradientUnits="userSpaceOnUse" x1="4297.104" y1="2883.22" x2="4219.876" y2="2786.062" gradientTransform="matrix(-1 0 0 1 6371.5889 0)">
				<stop  offset="0" style="stop-color:#311944"/>
				<stop  offset="1" style="stop-color:#A03976"/>
			</linearGradient>
			<path style="fill:url(#SVGID_00000098212272524890748740000000668096659680301759_);" d="M2100.018,2854.673l-22.607,7.272
				c0,0-3.672,6.117,1.284,9.997c4.956,3.88,22.178-4.326,22.178-4.326L2100.018,2854.673z"/>
			
				<linearGradient id="SVGID_00000008144733378400941300000016263543293792851845_" gradientUnits="userSpaceOnUse" x1="4205.0532" y1="2612.3137" x2="4229.249" y2="2488.853" gradientTransform="matrix(-1 0 0 1 6371.5889 0)">
				<stop  offset="0" style="stop-color:#311944"/>
				<stop  offset="1" style="stop-color:#A03976"/>
			</linearGradient>
			<path style="fill:url(#SVGID_00000008144733378400941300000016263543293792851845_);" d="M2190.069,2552.284
				c0,0-7.654-40.821-37.632-34.124c-29.978,6.697-45.609,22.962-28.067,27.427s38.591,5.74,42.737,13.395
				C2171.253,2566.635,2193.638,2570.967,2190.069,2552.284z"/>
			<g>
				<g>
					
						<linearGradient id="SVGID_00000181795025020980805880000016556193241881871510_" gradientUnits="userSpaceOnUse" x1="2199.0352" y1="2847.1123" x2="2160.4382" y2="2737.7542" gradientTransform="matrix(-1 0 0 1 4242.7026 0)">
						<stop  offset="0" style="stop-color:#311944"/>
						<stop  offset="1" style="stop-color:#893976"/>
					</linearGradient>
					<polygon style="fill:url(#SVGID_00000181795025020980805880000016556193241881871510_);" points="1913.975,2706.739 
						2268.865,2716.888 2191.561,2750.803 1912.802,2729.682 					"/>
					
						<linearGradient id="SVGID_00000154409574346145345470000003888856688721777540_" gradientUnits="userSpaceOnUse" x1="2010.0088" y1="2697.7239" x2="2022.28" y2="2782.5071" gradientTransform="matrix(-1 0 0 1 4242.7026 0)">
						<stop  offset="0" style="stop-color:#311944"/>
						<stop  offset="1" style="stop-color:#893976"/>
					</linearGradient>
					<path style="fill:url(#SVGID_00000154409574346145345470000003888856688721777540_);" d="M2278.607,2724.499L2278.607,2724.499
						c0.082,5.069-3.023,9.505-7.801,11.108l-94.026,34.229l-0.763-25.592l92.848-27.355
						C2273.683,2715.717,2278.527,2719.521,2278.607,2724.499z"/>
				</g>
				<g>
					<g>
						
							<linearGradient id="SVGID_00000037664647401938290180000005066044773164040373_" gradientUnits="userSpaceOnUse" x1="2180.3638" y1="2701.2944" x2="2111.5132" y2="2603.5266" gradientTransform="matrix(-1 0 0 1 4160.2183 0)">
							<stop  offset="0" style="stop-color:#444B8C"/>
							<stop  offset="0.9964" style="stop-color:#26264F"/>
						</linearGradient>
						<path style="fill:url(#SVGID_00000037664647401938290180000005066044773164040373_);" d="M2171.783,2566.679l20.578,187.36
							c0.71,6.465-8.341,16.096-14.837,15.789l-301.872-18.532c-4.961-0.236-9.091-3.886-9.93-8.781l-37.889-180.957
							c-1.13-6.585,10.707-13.386,17.386-13.2l316.343,8.895C2166.844,2557.403,2171.207,2561.425,2171.783,2566.679z"/>
						
							<linearGradient id="SVGID_00000074408649223655733560000003917616596906002617_" gradientUnits="userSpaceOnUse" x1="2048.2959" y1="2863.0986" x2="2198.9722" y2="2557.0376" gradientTransform="matrix(-1 0 0 1 4160.2183 0)">
							<stop  offset="0" style="stop-color:#311944"/>
							<stop  offset="1" style="stop-color:#893976"/>
						</linearGradient>
						<path style="fill:url(#SVGID_00000074408649223655733560000003917616596906002617_);" d="M2164.884,2572.142l20.578,187.362
							c0.709,6.465-4.524,12.034-11.021,11.728l-305.69-14.472c-4.959-0.235-9.09-3.886-9.93-8.78l-31.231-181.785
							c-1.131-6.587,4.048-12.56,10.728-12.372l316.344,8.895C2159.944,2562.865,2164.309,2566.889,2164.884,2572.142z"/>
					</g>
					
						<linearGradient id="SVGID_00000134223436007134337170000007309968388940518042_" gradientUnits="userSpaceOnUse" x1="1974.6919" y1="2666.6584" x2="2305.7065" y2="2666.6584" gradientTransform="matrix(-1 0 0 1 4160.2183 0)">
						<stop  offset="0" style="stop-color:#311944"/>
						<stop  offset="1" style="stop-color:#893976"/>
					</linearGradient>
					<path style="opacity:0.3;fill:url(#SVGID_00000134223436007134337170000007309968388940518042_);" d="M1985.383,2712.856
						c26.692-11.313,17.271-32.886,48.79-59.768c41.581-35.464,83.964-20.083,98.802-47.571c4.62-8.562,6.827-21.882-1.221-43.443
						l22.908,0.644c5.282,0.147,9.646,4.171,10.222,9.424l20.578,187.362c0.709,6.464-4.525,12.034-11.021,11.728l-305.69-14.472
						c-4.959-0.235-9.09-3.886-9.93-8.78l-4.31-25.084c9.275-5.162,20.358-9.855,33.291-12.479
						C1932.65,2701.32,1954.653,2725.88,1985.383,2712.856z"/>
				</g>
			</g>
			
				<linearGradient id="SVGID_00000041975035075995274780000017708916451944939681_" gradientUnits="userSpaceOnUse" x1="4529.356" y1="2409.2942" x2="4458.1445" y2="2557.4143" gradientTransform="matrix(-0.9778 0.2095 0.2095 0.9778 6138.6636 -548.0091)">
				<stop  offset="0" style="stop-color:#AA80F9"/>
				<stop  offset="0.9964" style="stop-color:#6165D7"/>
			</linearGradient>
			<path style="fill:url(#SVGID_00000041975035075995274780000017708916451944939681_);" d="M2380.326,2697.213
				c14.67,36.603-57.13,94.946-73.888,108.379c-34.155,27.38-103.689,58.25-212.764,70.804c-3.249-8.221-6.497-16.442-9.744-24.663
				c13.08-7.86,32.316-20.204,54.031-37.346c37.06-29.257,49.673-47.181,99.712-94.255c55.371-52.09,72.844-60.994,92.817-60.296
				C2347.569,2660.433,2373.509,2680.203,2380.326,2697.213z"/>
		</g>
		<g>
			
				<linearGradient id="SVGID_00000007393198391388171850000018169019169157680306_" gradientUnits="userSpaceOnUse" x1="2054.6357" y1="1110.5173" x2="2425.6865" y2="1855.127">
				<stop  offset="0" style="stop-color:#311944"/>
				<stop  offset="1" style="stop-color:#A03976"/>
			</linearGradient>
			<path style="fill:url(#SVGID_00000007393198391388171850000018169019169157680306_);" d="M2552.66,1597.344
				c0.36-131.8-132.012-232.628-281.595-225.51c-81.371,3.872-149.975,39.244-191.746,89.713c-0.005-0.015-0.01-0.029-0.016-0.044
				c-0.257,0.311-0.496,0.634-0.751,0.946c-0.715,0.874-1.405,1.765-2.105,2.649c-1.276,1.611-2.532,3.232-3.757,4.873
				c-0.722,0.97-1.433,1.945-2.138,2.925c-1.175,1.635-2.32,3.287-3.444,4.951c-0.642,0.952-1.292,1.899-1.917,2.86
				c-1.25,1.92-2.453,3.865-3.633,5.821c-0.428,0.708-0.877,1.402-1.294,2.115c-1.554,2.648-3.044,5.328-4.469,8.038
				c-0.378,0.719-0.723,1.453-1.092,2.175c-1.035,2.031-2.047,4.072-3.01,6.136c-0.472,1.011-0.918,2.034-1.372,3.053
				c-0.812,1.825-1.6,3.659-2.354,5.509c-0.438,1.073-0.868,2.149-1.287,3.23c-0.733,1.896-1.427,3.807-2.099,5.727
				c-0.351,1.004-0.715,2.002-1.049,3.012c-0.799,2.415-1.54,4.85-2.241,7.3c-0.146,0.511-0.315,1.014-0.457,1.527
				c-0.817,2.954-1.553,5.936-2.224,8.939c-0.198,0.884-0.36,1.779-0.544,2.667c-0.448,2.153-0.872,4.312-1.245,6.489
				c-0.188,1.108-0.355,2.222-0.524,3.336c-0.307,2.013-0.581,4.035-0.821,6.067c-0.135,1.14-0.267,2.28-0.381,3.425
				c-0.213,2.142-0.375,4.298-0.514,6.46c-0.064,1.006-0.147,2.007-0.197,3.017c-0.151,3.16-0.241,6.335-0.23,9.535
				c0.249,76.13,47.376,145.837,119.52,186.67c6.74,3.815,13.708,7.386,20.887,10.695c3.603,1.66,7.259,3.254,10.968,4.78
				c26.219,10.786,55.067,18.153,85.763,21.149l0,0l0,0l0.001,0c4.259,0.416,8.502,0.732,12.734,0.971
				c1.43,0.081,2.844,0.105,4.271,0.166c2.806,0.12,5.618,0.239,8.411,0.282c1.709,0.027,3.401,0,5.104-0.001
				c2.502-0.003,5.007-0.005,7.495-0.068c1.824-0.047,3.635-0.137,5.451-0.215c2.36-0.103,4.721-0.211,7.067-0.368
				c1.875-0.125,3.736-0.284,5.602-0.443c2.278-0.195,4.551-0.404,6.812-0.65c1.895-0.205,3.781-0.433,5.663-0.674
				c2.221-0.284,4.432-0.592,6.636-0.925c1.892-0.285,3.779-0.582,5.657-0.903c2.186-0.374,4.356-0.78,6.524-1.201
				c1.866-0.362,3.733-0.725,5.583-1.122c0.683-0.147,1.385-0.264,2.065-0.415c-0.016-0.016-0.03-0.033-0.045-0.049
				C2472.362,1778.413,2552.383,1698.682,2552.66,1597.344z"/>
			<g>
				
					<linearGradient id="SVGID_00000134930172918766143980000003878013011634298762_" gradientUnits="userSpaceOnUse" x1="2170.9082" y1="1408.4728" x2="2529.5542" y2="2073.655">
					<stop  offset="0" style="stop-color:#FF9085"/>
					<stop  offset="1" style="stop-color:#FB6FBB"/>
				</linearGradient>
				<path style="fill:url(#SVGID_00000134930172918766143980000003878013011634298762_);" d="M2522.611,1595.18
					c-0.31,130.281-130.273,223.009-276.698,208.788c-133.312-12.947-233.239-111.5-233.626-221.389
					c-0.388-110.169,99.338-204.497,233.272-210.94C2392.736,1364.559,2522.922,1464.506,2522.611,1595.18z"/>
				<g>
					<path style="fill:#FFFFFF;" d="M2158.203,1543.984c-9.004-0.091-15.93,3.57-20.806,10.958
						c-4.859,7.363-7.268,17.667-7.24,30.928c0.06,27.583,9.398,41.734,28.2,42.472c7.963,0.313,17.664-1.51,29.134-5.496
						l0.033,22.422c-9.431,3.875-19.895,5.532-31.367,4.994c-16.329-0.766-28.706-6.792-37.232-18.036
						c-8.48-11.181-12.725-26.868-12.774-47.118c-0.031-12.759,2.008-23.906,6.128-33.462c4.131-9.585,10.106-16.936,17.947-22.051
						c7.882-5.144,17.187-7.714,27.937-7.688c11.039,0.027,22.219,3.017,33.543,9l-7.869,21.708
						c-4.305-2.296-8.623-4.298-12.952-6.01C2166.564,1544.899,2162.338,1544.026,2158.203,1543.984z"/>
					<path style="fill:#FFFFFF;" d="M2291.831,1618.577c0.003,11.793-4.01,20.917-12.007,27.347
						c-7.953,6.395-18.95,9.249-32.925,8.594c-12.759-0.599-23.959-3.682-33.633-9.23l-0.03-25.056
						c7.95,4.124,14.713,7.085,20.269,8.873c5.575,1.795,10.694,2.786,15.348,2.969c5.606,0.22,9.918-0.758,12.929-2.941
						c3.017-2.187,4.527-5.555,4.525-10.103c-0.001-2.539-0.669-4.821-2-6.843c-1.331-2.02-3.283-3.984-5.855-5.891
						c-2.566-1.903-7.783-4.969-15.622-9.184c-7.309-3.887-12.767-7.563-16.396-11.038c-3.622-3.465-6.509-7.46-8.665-11.986
						c-2.154-4.519-3.233-9.769-3.24-15.756c-0.013-11.278,3.508-20.118,10.591-26.541c7.117-6.455,17.018-9.679,29.757-9.647
						c6.298,0.015,12.333,0.83,18.1,2.447c5.788,1.624,11.865,3.911,18.236,6.863l-8.441,21.462
						c-6.557-2.932-11.958-4.979-16.215-6.151c-4.246-1.167-8.409-1.771-12.491-1.812c-4.841-0.049-8.543,1.119-11.113,3.498
						c-2.567,2.376-3.845,5.496-3.842,9.365c0.002,2.404,0.521,4.507,1.56,6.312c1.04,1.807,2.694,3.566,4.968,5.28
						c2.274,1.717,7.676,4.836,16.237,9.375c11.394,6.051,19.255,12.071,23.525,18.036
						C2289.682,1602.8,2291.828,1610.058,2291.831,1618.577z"/>
					<path style="fill:#FFFFFF;" d="M2399.736,1622.28c-0.012,12.214-4.328,21.656-12.914,28.302
						c-8.536,6.608-20.329,9.545-35.306,8.842c-13.669-0.641-25.661-3.851-36.013-9.608l0-25.925
						c8.508,4.277,15.747,7.351,21.696,9.21c5.971,1.865,11.453,2.899,16.441,3.095c6.007,0.236,10.631-0.771,13.861-3.026
						c3.237-2.26,4.86-5.745,4.864-10.454c0.002-2.629-0.712-4.992-2.136-7.087c-1.425-2.093-3.515-4.128-6.269-6.106
						c-2.748-1.973-8.335-5.152-16.729-9.523c-7.825-4.031-13.668-7.84-17.551-11.439c-3.875-3.589-6.961-7.725-9.265-12.411
						c-2.3-4.677-3.449-10.111-3.449-16.306c0-11.67,3.781-20.817,11.375-27.462c7.632-6.679,18.243-10.015,31.895-9.982
						c6.751,0.016,13.219,0.86,19.4,2.536c6.205,1.682,12.719,4.052,19.55,7.111l-9.082,22.224
						c-7.028-3.039-12.817-5.161-17.379-6.376c-4.55-1.21-9.012-1.837-13.387-1.881c-5.188-0.052-9.157,1.155-11.914,3.617
						c-2.753,2.459-4.127,5.688-4.128,9.692c-0.001,2.488,0.552,4.665,1.663,6.534c1.111,1.871,2.882,3.693,5.316,5.468
						c2.435,1.779,8.22,5.012,17.39,9.717c12.208,6.275,20.63,12.515,25.201,18.697
						C2397.452,1605.938,2399.745,1613.457,2399.736,1622.28z"/>
				</g>
				<g style="opacity:0.2;">
					
						<linearGradient id="SVGID_00000182494213073815310210000012313551114009925266_" gradientUnits="userSpaceOnUse" x1="2066.2996" y1="1454.5801" x2="2411.2188" y2="2146.75">
						<stop  offset="0" style="stop-color:#FF9085"/>
						<stop  offset="1" style="stop-color:#FB6FBB"/>
					</linearGradient>
					<path style="fill:url(#SVGID_00000182494213073815310210000012313551114009925266_);" d="M2308.552,1754.081
						c-31.502-66.789,0.337-125.806-42.155-168.916c-42.01-42.62-94.779-5.099-149.621-38.996
						c-20.663-12.771-43.323-36.739-60.034-85.495c-28.212,34.356-44.614,76.433-44.454,121.905
						c0.387,109.889,100.314,208.442,233.626,221.389c32.319,3.139,63.897,1.04,93.565-5.64
						C2324.777,1783.084,2315.12,1768.006,2308.552,1754.081z"/>
				</g>
			</g>
		</g>
		<g>
			
				<linearGradient id="SVGID_00000169535549834134804760000005702612294954587043_" gradientUnits="userSpaceOnUse" x1="2518.2119" y1="710.1925" x2="2922.2419" y2="1520.9838">
				<stop  offset="0" style="stop-color:#311944"/>
				<stop  offset="1" style="stop-color:#A03976"/>
			</linearGradient>
			<path style="fill:url(#SVGID_00000169535549834134804760000005702612294954587043_);" d="M3066.288,1256.298
				c0-134.017-134.147-245.008-293.45-247.797c-90.49-1.585-169.085,32.301-218.096,85.464c-0.006-0.017-0.012-0.032-0.019-0.049
				c-0.304,0.33-0.588,0.675-0.89,1.007c-0.847,0.93-1.665,1.88-2.494,2.821c-1.512,1.718-3.003,3.448-4.457,5.204
				c-0.857,1.038-1.703,2.083-2.54,3.134c-1.397,1.754-2.759,3.53-4.097,5.32c-0.765,1.025-1.539,2.045-2.283,3.081
				c-1.49,2.072-2.926,4.174-4.334,6.291c-0.511,0.766-1.047,1.517-1.546,2.289c-1.858,2.872-3.641,5.785-5.347,8.735
				c-0.453,0.783-0.866,1.585-1.309,2.373c-1.241,2.216-2.455,4.444-3.611,6.702c-0.567,1.107-1.103,2.227-1.649,3.344
				c-0.977,2-1.925,4.013-2.833,6.044c-0.527,1.179-1.045,2.362-1.55,3.551c-0.884,2.087-1.721,4.192-2.532,6.309
				c-0.424,1.108-0.863,2.208-1.268,3.324c-0.966,2.667-1.863,5.36-2.712,8.072c-0.177,0.566-0.382,1.122-0.553,1.69
				c-0.99,3.274-1.885,6.583-2.702,9.92c-0.241,0.982-0.438,1.978-0.663,2.966c-0.547,2.395-1.063,4.798-1.519,7.223
				c-0.23,1.235-0.435,2.477-0.643,3.719c-0.376,2.246-0.713,4.502-1.01,6.772c-0.167,1.273-0.33,2.547-0.471,3.827
				c-0.265,2.395-0.468,4.808-0.644,7.228c-0.081,1.126-0.185,2.246-0.248,3.378c-0.194,3.54-0.314,7.1-0.314,10.69
				c0,85.506,55.982,163.817,140.03,208.591c7.737,4.121,15.716,7.963,23.916,11.502c4.106,1.773,8.269,3.47,12.485,5.089
				c29.641,11.383,61.925,18.902,95.901,21.594l0,0l0,0l0.002,0c4.683,0.371,9.342,0.635,13.979,0.816
				c1.566,0.061,3.114,0.061,4.675,0.101c3.067,0.078,6.136,0.155,9.182,0.151c1.862-0.002,3.704-0.061,5.559-0.094
				c2.721-0.048,5.443-0.096,8.143-0.208c1.979-0.083,3.941-0.212,5.908-0.328c2.554-0.152,5.106-0.31,7.641-0.519
				c2.023-0.167,4.031-0.369,6.042-0.572c2.453-0.248,4.899-0.511,7.331-0.812c2.036-0.252,4.061-0.527,6.08-0.816
				c2.381-0.341,4.75-0.706,7.108-1.098c2.023-0.335,4.04-0.683,6.045-1.055c2.333-0.433,4.646-0.901,6.955-1.383
				c1.987-0.415,3.972-0.83,5.939-1.281c0.726-0.167,1.471-0.302,2.194-0.473c-0.017-0.017-0.031-0.034-0.048-0.051
				C2985.965,1441.958,3066.288,1359.619,3066.288,1256.298z"/>
			<g>
				
					<linearGradient id="SVGID_00000094593152473587757650000010496738198816801931_" gradientUnits="userSpaceOnUse" x1="2640.6824" y1="1044.6978" x2="3033.125" y2="1772.5625">
					<stop  offset="0" style="stop-color:#FFC444"/>
					<stop  offset="0.9964" style="stop-color:#F36F56"/>
				</linearGradient>
				<path style="fill:url(#SVGID_00000094593152473587757650000010496738198816801931_);" d="M3026.761,1255.103
					c0,133.344-132.814,230.903-290.562,218.389c-151.406-12.011-269.75-121.753-269.75-245.545
					c0-123.792,118.343-222.063,269.75-219.398C2893.948,1011.326,3026.761,1121.759,3026.761,1255.103z"/>
				<g>
					<path style="fill:#FFFFFF;" d="M2619.679,1286.205l-20.211-1.118v-43.758l-37.576-1.856v43.536l-19.963-1.104v-100.598
						l19.963,0.831v39.534l37.576,1.765V1183.7l20.211,0.841V1286.205z"/>
					<path style="fill:#FFFFFF;" d="M2688.215,1289.996l-20.652-1.143v-84.263l-26.283-1.157v-17.993l73.552,3.061v18.171
						l-26.616-1.172V1289.996z"/>
					<path style="fill:#FFFFFF;" d="M2779.051,1295.021l-24.013-82.544l-0.612-0.027c0.86,16.561,1.292,27.604,1.292,33.127v48.153
						l-18.794-1.04V1189.42l28.67,1.193l23.669,80.505l0.412,0.021l25.27-78.474l29.267,1.218v104.742l-20.067-1.11v-49.447
						c0-2.333,0.034-5.023,0.104-8.069c0.069-3.045,0.38-11.13,0.935-24.253l-0.624-0.028l-26.023,80.38L2779.051,1295.021z"/>
					<path style="fill:#FFFFFF;" d="M2877.1,1300.446v-105.193l21.831,0.908v87.02l42.106,2.228v18.573L2877.1,1300.446z"/>
				</g>
				<g style="opacity:0.3;">
					
						<linearGradient id="SVGID_00000160172578946255614010000007236144884710841755_" gradientUnits="userSpaceOnUse" x1="2530.5288" y1="1086.9187" x2="2913.0693" y2="1854.5853">
						<stop  offset="0" style="stop-color:#FFC444"/>
						<stop  offset="0.9964" style="stop-color:#F36F56"/>
					</linearGradient>
					<path style="fill:url(#SVGID_00000160172578946255614010000007236144884710841755_);" d="M2804.744,1419.176
						c-34.212-71.41,0.377-134.017-45.813-181.006c-46.353-47.155-105.743-8.206-168.62-47.182
						c-24.025-14.893-50.555-42.414-70.151-97.427c-33.786,36.814-53.711,83.252-53.711,134.386
						c0,123.792,118.343,233.534,269.75,245.545c35.564,2.821,69.899,0.028,101.785-7.565
						C2822.228,1449.927,2811.833,1433.973,2804.744,1419.176z"/>
				</g>
			</g>
		</g>
		<g>
			
				<linearGradient id="SVGID_00000039837429407238460200000011582497714131469967_" gradientUnits="userSpaceOnUse" x1="1908.5155" y1="195.7404" x2="2264.1655" y2="909.4445">
				<stop  offset="0" style="stop-color:#444B8C"/>
				<stop  offset="0.9964" style="stop-color:#26264F"/>
			</linearGradient>
			<path style="fill:url(#SVGID_00000039837429407238460200000011582497714131469967_);" d="M2469.304,837.377
				c0-123.332-113.763-219.612-249.263-215.206c-77.165,2.509-144.302,37.296-186.223,88.648c-0.005-0.015-0.01-0.029-0.016-0.045
				c-0.26,0.319-0.503,0.651-0.761,0.971c-0.725,0.898-1.425,1.813-2.135,2.722c-1.295,1.657-2.57,3.325-3.814,5.015
				c-0.734,0.999-1.457,2.003-2.174,3.013c-1.196,1.686-2.361,3.39-3.507,5.107c-0.655,0.983-1.317,1.961-1.954,2.954
				c-1.276,1.984-2.504,3.994-3.71,6.016c-0.438,0.732-0.896,1.451-1.324,2.188c-1.591,2.741-3.117,5.517-4.578,8.325
				c-0.388,0.745-0.742,1.505-1.121,2.255c-1.063,2.107-2.102,4.224-3.092,6.366c-0.486,1.05-0.944,2.111-1.412,3.169
				c-0.836,1.895-1.648,3.801-2.426,5.722c-0.452,1.115-0.895,2.233-1.327,3.357c-0.757,1.971-1.474,3.958-2.169,5.954
				c-0.363,1.044-0.739,2.083-1.086,3.133c-0.827,2.512-1.596,5.046-2.323,7.595c-0.151,0.532-0.327,1.055-0.474,1.589
				c-0.848,3.075-1.615,6.179-2.314,9.304c-0.206,0.92-0.375,1.851-0.568,2.775c-0.468,2.242-0.911,4.49-1.301,6.755
				c-0.197,1.153-0.373,2.312-0.551,3.472c-0.322,2.096-0.611,4.2-0.865,6.314c-0.143,1.186-0.282,2.372-0.404,3.564
				c-0.227,2.229-0.401,4.471-0.552,6.72c-0.07,1.046-0.159,2.087-0.213,3.138c-0.166,3.286-0.269,6.586-0.269,9.909
				c0,79.143,47.932,148.955,119.793,186.334c6.609,3.437,13.423,6.604,20.425,9.48c3.506,1.44,7.06,2.808,10.659,4.101
				c25.295,9.087,52.828,14.474,81.783,15.319l0,0l0,0l0.001,0c3.99,0.117,7.958,0.135,11.908,0.078
				c1.334-0.019,2.652-0.094,3.981-0.132c2.612-0.076,5.226-0.153,7.819-0.304c1.586-0.092,3.154-0.235,4.733-0.354
				c2.317-0.175,4.633-0.351,6.932-0.585c1.684-0.172,3.354-0.385,5.029-0.587c2.174-0.263,4.346-0.532,6.503-0.847
				c1.722-0.252,3.431-0.535,5.142-0.819c2.087-0.347,4.169-0.708,6.237-1.103c1.732-0.33,3.455-0.682,5.173-1.046
				c2.025-0.429,4.04-0.88,6.046-1.354c1.72-0.407,3.436-0.824,5.141-1.264c1.984-0.512,3.951-1.054,5.915-1.61
				c1.689-0.478,3.378-0.956,5.05-1.467c0.617-0.188,1.25-0.349,1.865-0.542c-0.014-0.015-0.027-0.03-0.041-0.045
				C2401.223,1012.064,2469.304,932.459,2469.304,837.377z"/>
			<g>
				
					<linearGradient id="SVGID_00000168096260601842735280000006961774668141853103_" gradientUnits="userSpaceOnUse" x1="1951.3961" y1="356.1489" x2="2296.8413" y2="996.8472">
					<stop  offset="0" style="stop-color:#AA80F9"/>
					<stop  offset="0.9964" style="stop-color:#6165D7"/>
				</linearGradient>
				<path style="fill:url(#SVGID_00000168096260601842735280000006961774668141853103_);" d="M2450.684,837.407
					c0,123.015-113.184,219.431-248.005,215.493c-129.799-3.792-231.525-99.86-231.525-214.7
					c0-114.84,101.727-211.245,231.525-215.465C2337.5,618.351,2450.684,714.393,2450.684,837.407z"/>
				<g>
					<path style="fill:#FFFFFF;" d="M2141.852,896.989l-96.249-48.983V832.23l96.249-55.733v26.85l-66.587,35.567l66.587,31.336
						V896.989z"/>
					<path style="fill:#FFFFFF;" d="M2244.24,754.754l-54.741,165.431l-27.497-0.28l54.307-164.774L2244.24,754.754z"/>
					<path style="fill:#FFFFFF;" d="M2264.587,870.622l70.343-32.103l-70.343-35.988v-27.328l102.584,56.22v16.52l-102.584,49.893
						V870.622z"/>
				</g>
				<g style="opacity:0.3;">
					
						<linearGradient id="SVGID_00000021107961258232579570000004468823883412757654_" gradientUnits="userSpaceOnUse" x1="2022.7954" y1="707.1024" x2="2358.3857" y2="1380.5514">
						<stop  offset="0" style="stop-color:#AA80F9"/>
						<stop  offset="0.9964" style="stop-color:#6165D7"/>
					</linearGradient>
					<path style="fill:url(#SVGID_00000021107961258232579570000004468823883412757654_);" d="M2261.313,999.367
						c-29.256-64.409,0.322-123.926-39.18-165.237c-39.678-41.495-90.57-2.707-144.515-35.912
						c-20.63-12.698-43.422-36.995-60.265-87.109c-29.055,35.669-46.199,79.655-46.199,127.091
						c0,114.841,101.727,210.909,231.525,214.7c30.432,0.889,59.792-3.354,87.04-11.913
						C2276.256,1026.957,2267.373,1012.707,2261.313,999.367z"/>
				</g>
			</g>
		</g>
		<path style="fill:#FFFFFF;" d="M1045.053,706.76c0,0,62.339-120.78,169.207-73.944c106.868,46.836,96.972,22.254,171.186,31.576
			c74.214,9.323,166.058,60.821,106.283,71.189c-59.776,10.368-527.816,22.242-527.816,22.242S970.839,713.089,1045.053,706.76z"/>
	</g>
</g>
</svg>
