<!DOCTYPE svg PUBLIC "-//W3C//DTD SVG 1.1//EN" "http://www.w3.org/Graphics/SVG/1.1/DTD/svg11.dtd">
<!-- Uploaded to: SVG Repo, www.svgrepo.com, Transformed by: SVG Repo Mixer Tools -->
<svg fill="#52526E" height="800px" width="800px" version="1.1" id="Capa_1" xmlns="http://www.w3.org/2000/svg" xmlns:xlink="http://www.w3.org/1999/xlink" viewBox="0 0 48 48" xml:space="preserve" stroke="#52526E">
<g id="SVGRepo_bgCarrier" stroke-width="0"/>
<g id="SVGRepo_tracerCarrier" stroke-linecap="round" stroke-linejoin="round"/>
<g id="SVGRepo_iconCarrier"> <g> <g> <path d="M47.987,21.938c-0.006-0.091-0.023-0.178-0.053-0.264c-0.011-0.032-0.019-0.063-0.033-0.094 c-0.048-0.104-0.109-0.202-0.193-0.285c-0.001-0.001-0.001-0.001-0.001-0.001L42,15.586V10c0-0.022-0.011-0.041-0.013-0.063 c-0.006-0.088-0.023-0.173-0.051-0.257c-0.011-0.032-0.019-0.063-0.034-0.094c-0.049-0.106-0.11-0.207-0.196-0.293l-9-9 c-0.086-0.086-0.187-0.147-0.294-0.196c-0.03-0.014-0.06-0.022-0.091-0.033c-0.085-0.029-0.172-0.047-0.262-0.052 C32.039,0.01,32.021,0,32,0H7C6.448,0,6,0.448,6,1v14.586l-5.707,5.707c0,0-0.001,0.001-0.002,0.002 c-0.084,0.084-0.144,0.182-0.192,0.285c-0.014,0.031-0.022,0.062-0.033,0.094c-0.03,0.086-0.048,0.173-0.053,0.264 C0.011,21.96,0,21.978,0,22v19c0,0.552,0.448,1,1,1h5v5c0,0.552,0.448,1,1,1h34c0.552,0,1-0.448,1-1v-5h5c0.552,0,1-0.448,1-1V22 C48,21.978,47.989,21.96,47.987,21.938z M44.586,21H42v-2.586L44.586,21z M38.586,9H33V3.414L38.586,9z M8,2h23v8 c0,0.552,0.448,1,1,1h8v5v5H8v-5V2z M6,18.414V21H3.414L6,18.414z M40,46H8v-4h32V46z M46,40H2V23h5h34h5V40z"/> <path d="M35.144,32.143c0.221-0.153,0.422-0.354,0.604-0.603c0.181-0.249,0.332-0.552,0.451-0.91 c0.119-0.357,0.179-0.767,0.179-1.232c0-0.601-0.085-1.116-0.255-1.547c-0.17-0.431-0.405-0.788-0.706-1.071 c-0.3-0.283-0.66-0.49-1.079-0.621c-0.419-0.13-0.878-0.195-1.377-0.195h-3.434V38h1.972v-5.134h1.139L34.506,38h2.142 l-2.159-5.542C34.704,32.401,34.923,32.297,35.144,32.143z M33.886,30.902c-0.323,0.312-0.734,0.468-1.232,0.468h-1.156v-3.706 h1.156c0.204,0,0.408,0.028,0.612,0.085s0.388,0.153,0.553,0.289s0.298,0.323,0.4,0.561s0.153,0.538,0.153,0.901 C34.37,30.123,34.208,30.591,33.886,30.902z"/> <path d="M22.725,25.964L19.733,38h2.04l0.612-2.55h3.162L26.142,38h2.125l-2.941-12.036H22.725z M22.64,33.852l1.309-5.967h0.068 l1.275,5.967H22.64z"/> <path d="M17.82,32.143c0.221-0.153,0.422-0.354,0.604-0.603c0.181-0.249,0.331-0.552,0.451-0.91 c0.119-0.357,0.178-0.767,0.178-1.232c0-0.601-0.085-1.116-0.255-1.547c-0.17-0.431-0.405-0.788-0.705-1.071 c-0.3-0.283-0.66-0.49-1.08-0.621c-0.419-0.13-0.878-0.195-1.377-0.195h-3.434V38h1.972v-5.134h1.139L17.183,38h2.142 l-2.159-5.542C17.381,32.401,17.6,32.297,17.82,32.143z M16.563,30.902c-0.323,0.312-0.734,0.468-1.233,0.468h-1.156v-3.706h1.156 c0.204,0,0.408,0.028,0.612,0.085c0.204,0.057,0.388,0.153,0.552,0.289s0.298,0.323,0.399,0.561s0.153,0.538,0.153,0.901 C17.047,30.123,16.885,30.591,16.563,30.902z"/> </g> </g> </g>
</svg>