<!DOCTYPE svg PUBLIC "-//W3C//DTD SVG 1.1//EN" "http://www.w3.org/Graphics/SVG/1.1/DTD/svg11.dtd">
<!-- Uploaded to: SVG Repo, www.svgrepo.com, Transformed by: SVG Repo Mixer Tools -->
<svg width="800px" height="800px" viewBox="0 0 24 24" fill="none" xmlns="http://www.w3.org/2000/svg">
<g id="SVGRepo_bgCarrier" stroke-width="0"/>
<g id="SVGRepo_tracerCarrier" stroke-linecap="round" stroke-linejoin="round"/>
<g id="SVGRepo_iconCarrier"> <path d="M4 4C4 3.44772 4.44772 3 5 3H14H14.5858C14.851 3 15.1054 3.10536 15.2929 3.29289L19.7071 7.70711C19.8946 7.89464 20 8.149 20 8.41421V20C20 20.5523 19.5523 21 19 21H5C4.44772 21 4 20.5523 4 20V4Z" stroke="#52526E" stroke-width="2" stroke-linecap="round"/> <path d="M20 8H15V3" stroke="#52526E" stroke-width="2" stroke-linecap="round" stroke-linejoin="round"/> <path d="M7 13H9.5L7 17H9.5" stroke="#52526E" stroke-width="1.5" stroke-linecap="round" stroke-linejoin="round"/> <path d="M12 13V17" stroke="#52526E" stroke-width="1.5" stroke-linecap="round" stroke-linejoin="round"/> <path d="M15 17L15 15.5M15 15.5L15 13L15.75 13C16.4404 13 17 13.5596 17 14.25V14.25C17 14.9404 16.4404 15.5 15.75 15.5H15Z" stroke="#52526E" stroke-width="1.5" stroke-linecap="round" stroke-linejoin="round"/> </g>
</svg>